<svg width="260" height="83" viewBox="0 0 260 83" fill="none" xmlns="http://www.w3.org/2000/svg">
<rect width="260" height="72" rx="12" fill="#61279E"/>
<path d="M85.74 47.5V30.412H89.452L89.58 34.604L89.196 34.412C89.388 33.4947 89.7187 32.716 90.188 32.076C90.6787 31.4147 91.2653 30.9133 91.948 30.572C92.652 30.2093 93.42 30.028 94.252 30.028C95.7027 30.028 96.876 30.444 97.772 31.276C98.668 32.0867 99.2333 33.2067 99.468 34.636H98.924C99.116 33.6333 99.4467 32.8013 99.916 32.14C100.385 31.4573 100.972 30.9347 101.676 30.572C102.401 30.2093 103.212 30.028 104.108 30.028C105.281 30.028 106.295 30.284 107.148 30.796C108.001 31.2867 108.652 32.012 109.1 32.972C109.569 33.932 109.804 35.116 109.804 36.524V47.5H105.708V37.58C105.708 36.172 105.463 35.116 104.972 34.412C104.503 33.708 103.777 33.356 102.796 33.356C102.135 33.356 101.569 33.5267 101.1 33.868C100.631 34.2093 100.268 34.7107 100.012 35.372C99.7773 36.012 99.66 36.7907 99.66 37.708V47.5H95.852V37.708C95.852 36.3 95.6387 35.2227 95.212 34.476C94.7853 33.7293 94.0493 33.356 93.004 33.356C92.3427 33.356 91.7773 33.5267 91.308 33.868C90.86 34.2093 90.4973 34.7107 90.22 35.372C89.964 36.012 89.836 36.7907 89.836 37.708V47.5H85.74ZM117.095 47.5C115.857 47.5 114.865 47.18 114.119 46.54C113.372 45.9 112.999 44.876 112.999 43.468V24.78H117.095V43.052C117.095 43.4787 117.201 43.7987 117.415 44.012C117.649 44.2253 117.969 44.332 118.375 44.332H119.623V47.5H117.095ZM121.609 47.5V24.78H129.161C132.787 24.78 135.571 25.772 137.513 27.756C139.475 29.7187 140.457 32.524 140.457 36.172C140.457 39.7987 139.497 42.5933 137.577 44.556C135.657 46.5187 132.915 47.5 129.353 47.5H121.609ZM125.769 43.884H129.161C131.529 43.884 133.289 43.244 134.441 41.964C135.593 40.684 136.169 38.7533 136.169 36.172C136.169 33.548 135.593 31.596 134.441 30.316C133.289 29.036 131.529 28.396 129.161 28.396H125.769V43.884ZM142.93 47.5V24.78H147.09V35.628L145.17 34.252H158.546L156.658 35.628V24.78H160.818V47.5H156.658V36.524L158.546 37.868H145.17L147.09 36.524V47.5H142.93ZM168.49 47.5V31.916H163.626V28.748H165.578C166.495 28.748 167.231 28.6307 167.786 28.396C168.341 28.1613 168.735 27.756 168.97 27.18C169.226 26.5827 169.354 25.7827 169.354 24.78H172.65V47.5H168.49Z" fill="white"/>
<rect x="118.687" y="71.3137" width="16" height="16" rx="2" transform="rotate(-45 118.687 71.3137)" fill="#61279E"/>
</svg>
