<svg width="260" height="83" viewBox="0 0 260 83" fill="none" xmlns="http://www.w3.org/2000/svg">
<rect width="260" height="72" rx="12" fill="#61279E"/>
<path d="M74.0936 47.5C74.0936 45.6653 74.3496 44.0653 74.8616 42.7C75.3736 41.3133 76.2376 40.0547 77.4536 38.924C78.6696 37.772 80.3123 36.652 82.3816 35.564C83.4056 35.0093 84.227 34.5187 84.8456 34.092C85.4643 33.6653 85.9123 33.228 86.1896 32.78C86.467 32.3107 86.6056 31.756 86.6056 31.116C86.6056 30.476 86.467 29.9213 86.1896 29.452C85.9123 28.9613 85.4963 28.5773 84.9416 28.3C84.4083 28.0227 83.7363 27.884 82.9256 27.884C81.6243 27.884 80.5896 28.2573 79.8216 29.004C79.075 29.7293 78.6163 30.7747 78.4456 32.14L74.1576 31.884C74.371 29.516 75.235 27.66 76.7496 26.316C78.2856 24.9507 80.3443 24.268 82.9256 24.268C84.5896 24.268 86.019 24.556 87.2136 25.132C88.4083 25.6867 89.315 26.476 89.9336 27.5C90.5736 28.524 90.8936 29.708 90.8936 31.052C90.8936 32.204 90.691 33.196 90.2856 34.028C89.9016 34.86 89.2616 35.628 88.3656 36.332C87.491 37.0147 86.307 37.7507 84.8136 38.54C82.9363 39.5427 81.5283 40.5133 80.5896 41.452C79.651 42.3693 79.1496 43.18 79.0856 43.884H90.8936V47.5H74.0936ZM92.0561 39.884V36.428H102.936V39.884H92.0561ZM105.783 47.5V24.78H122.007V28.396H109.943V47.5H105.783ZM123.229 47.5V24.78H139.453V28.396H127.389V47.5H123.229Z" fill="white"/>
<rect x="196" y="8" width="56" height="56" rx="8" fill="white" fill-opacity="0.15"/>
<path d="M224.333 47.353L224.333 24.0197" stroke="white" stroke-width="3" stroke-linecap="round" stroke-linejoin="round"/>
<path d="M232.668 39.0195L224.333 47.3545L215.998 39.0195" stroke="white" stroke-width="3" stroke-linecap="round" stroke-linejoin="round"/>
<rect x="118.687" y="71.3137" width="16" height="16" rx="2" transform="rotate(-45 118.687 71.3137)" fill="#61279E"/>
</svg>
