<svg width="260" height="83" viewBox="0 0 260 83" fill="none" xmlns="http://www.w3.org/2000/svg">
<rect width="260" height="72" rx="12" fill="#61279E"/>
<path d="M78.5866 47.82C77.2213 47.82 76.0373 47.468 75.0346 46.764C74.032 46.06 73.2533 45.036 72.6986 43.692C72.1653 42.348 71.8986 40.748 71.8986 38.892C71.8986 35.9267 72.5173 33.676 73.7546 32.14C74.992 30.604 76.656 29.836 78.7466 29.836C79.5573 29.836 80.2826 29.9533 80.9226 30.188C81.5626 30.4013 82.128 30.7 82.6186 31.084C83.1093 31.468 83.536 31.916 83.8986 32.428H84.0266L84.4426 30.156H87.8026V42.636C87.8026 43.34 87.9306 43.82 88.1866 44.076C88.4426 44.332 88.752 44.46 89.1146 44.46C89.264 44.46 89.4346 44.4387 89.6266 44.396C89.8186 44.3533 89.9573 44.3213 90.0426 44.3V47.404C89.936 47.468 89.7653 47.532 89.5306 47.596C89.296 47.66 89.04 47.7133 88.7626 47.756C88.5066 47.7987 88.2613 47.82 88.0266 47.82C87.0666 47.82 86.2773 47.628 85.6586 47.244C85.0613 46.86 84.6026 46.1773 84.2826 45.196H83.9946C83.6746 45.6867 83.2586 46.1347 82.7466 46.54C82.2346 46.924 81.6266 47.2333 80.9226 47.468C80.24 47.7027 79.4613 47.82 78.5866 47.82ZM79.8986 44.62C80.88 44.62 81.6693 44.428 82.2666 44.044C82.864 43.6387 83.2906 43.02 83.5466 42.188C83.824 41.356 83.9626 40.3107 83.9626 39.052V38.86C83.9626 36.9827 83.664 35.564 83.0666 34.604C82.4693 33.6227 81.392 33.132 79.8346 33.132C78.5546 33.132 77.5946 33.6227 76.9546 34.604C76.336 35.5853 76.0266 37.0253 76.0266 38.924C76.0266 40.78 76.3466 42.1987 76.9866 43.18C77.6266 44.14 78.5973 44.62 79.8986 44.62ZM91.2124 39.884V36.428H102.092V39.884H91.2124ZM118.443 47.5L108.875 36.14H113.835L123.403 47.5H118.443ZM104.939 47.5V24.78H109.099V47.5H104.939ZM108.875 36.14L118.123 24.78H123.083L113.835 36.14H108.875ZM125.104 47.5V24.78H141.328V28.396H129.264V47.5H125.104Z" fill="white"/>
<rect x="196" y="8" width="56" height="56" rx="8" fill="white" fill-opacity="0.15"/>
<path d="M223.667 24.647V47.9803" stroke="white" stroke-width="3" stroke-linecap="round" stroke-linejoin="round"/>
<path d="M215.332 32.9805L223.667 24.6455L232.002 32.9805" stroke="white" stroke-width="3" stroke-linecap="round" stroke-linejoin="round"/>
<rect x="118.687" y="71.3137" width="16" height="16" rx="2" transform="rotate(-45 118.687 71.3137)" fill="#61279E"/>
</svg>
