<svg width="260" height="83" viewBox="0 0 260 83" fill="none" xmlns="http://www.w3.org/2000/svg">
<rect width="260" height="72" rx="12" fill="#61279E"/>
<g clip-path="url(#clip0_976_73069)">
<path fill-rule="evenodd" clip-rule="evenodd" d="M117.678 17.745L118.215 17.6759L118.212 17.9147C118.211 18.9729 118.418 20.0209 118.822 20.9987C119.227 21.9766 119.82 22.8651 120.568 23.6133C121.317 24.3616 122.205 24.9549 123.183 25.3592C124.161 25.7636 125.209 25.9711 126.267 25.9699H133.734C134.812 25.9708 135.88 25.7551 136.873 25.3355C137.866 24.9159 138.764 24.301 139.515 23.5274C140.266 22.7537 140.854 21.8371 141.243 20.8319C141.633 19.8267 141.816 18.7534 141.783 17.6759L142.324 17.745C143.417 17.8731 144.432 18.3773 145.195 19.1714C145.957 19.9655 146.42 21.0001 146.504 22.0979C147.156 31.1785 147.156 40.2941 146.504 49.3747C146.425 50.4802 145.955 51.5214 145.177 52.3107C144.399 53.1001 143.365 53.5858 142.261 53.6804C134.104 54.3854 125.901 54.3854 117.744 53.6804C116.639 53.5858 115.605 53.1001 114.827 52.3107C114.049 51.5214 113.579 50.4802 113.501 49.3747C112.849 40.2941 112.849 31.1785 113.501 22.0979C113.584 21.0006 114.047 19.9664 114.808 19.1723C115.57 18.3783 116.585 17.8737 117.678 17.745ZM126.267 13.7913H133.734C134.809 13.8209 135.829 14.2685 136.578 15.0389C137.328 15.8093 137.747 16.8416 137.747 17.9163C137.747 18.991 137.328 20.0233 136.578 20.7937C135.829 21.564 134.809 22.0116 133.734 22.0413H126.267C125.674 22.0422 125.088 21.9153 124.549 21.6692C124.01 21.4231 123.53 21.0637 123.142 20.6153C122.754 20.167 122.468 19.6404 122.302 19.0713C122.136 18.5022 122.095 17.904 122.181 17.3176C122.324 16.3358 122.816 15.4385 123.567 14.7906C124.318 14.1427 125.278 13.7878 126.27 13.7913M126.308 44.8396C126.346 45.971 127.156 46.9453 128.282 47.0647C129.46 47.1904 130.601 47.1904 131.776 47.0647C132.902 46.9484 133.716 45.971 133.75 44.8396C133.775 43.97 133.796 43.1089 133.813 42.2561C134.662 42.2394 135.515 42.2184 136.374 42.1933C137.506 42.1556 138.483 41.3447 138.603 40.2164C138.725 39.0557 138.725 37.8854 138.603 36.7247C138.483 35.5964 137.509 34.7856 136.374 34.751C135.522 34.7249 134.669 34.7039 133.816 34.6881C133.799 33.8258 133.777 32.9636 133.75 32.1016C133.716 30.9701 132.902 29.9959 131.776 29.8764C130.615 29.7539 129.443 29.7539 128.282 29.8764C127.156 29.9927 126.346 30.9701 126.308 32.1016C126.283 32.9711 126.262 33.8322 126.245 34.685C125.38 34.6997 124.51 34.7217 123.636 34.751C122.502 34.7856 121.524 35.5996 121.405 36.7247C121.283 37.8854 121.283 39.0557 121.405 40.2164C121.524 41.3447 122.502 42.1556 123.636 42.1901C124.51 42.2195 125.38 42.2415 126.245 42.2561C126.262 43.111 126.283 43.9721 126.308 44.8396Z" fill="white"/>
</g>
<rect x="118.687" y="71.3137" width="16" height="16" rx="2" transform="rotate(-45 118.687 71.3137)" fill="#61279E"/>
<defs>
<clipPath id="clip0_976_73069">
<rect width="44" height="44" fill="white" transform="translate(108 14)"/>
</clipPath>
</defs>
</svg>
