<svg width="260" height="83" viewBox="0 0 260 83" fill="none" xmlns="http://www.w3.org/2000/svg">
<rect x="118.687" y="11.3137" width="16" height="16" rx="2" transform="rotate(-45 118.687 11.3137)" fill="#87A9E2"/>
<rect y="10.6274" width="260" height="72" rx="12" fill="#87A9E2"/>
<path d="M85.74 58.1274V41.0394H89.452L89.58 45.2314L89.196 45.0394C89.388 44.1221 89.7187 43.3434 90.188 42.7034C90.6787 42.0421 91.2653 41.5408 91.948 41.1994C92.652 40.8368 93.42 40.6554 94.252 40.6554C95.7027 40.6554 96.876 41.0714 97.772 41.9034C98.668 42.7141 99.2333 43.8341 99.468 45.2634H98.924C99.116 44.2608 99.4467 43.4288 99.916 42.7674C100.385 42.0848 100.972 41.5621 101.676 41.1994C102.401 40.8368 103.212 40.6554 104.108 40.6554C105.281 40.6554 106.295 40.9114 107.148 41.4234C108.001 41.9141 108.652 42.6394 109.1 43.5994C109.569 44.5594 109.804 45.7434 109.804 47.1514V58.1274H105.708V48.2074C105.708 46.7994 105.463 45.7434 104.972 45.0394C104.503 44.3354 103.777 43.9834 102.796 43.9834C102.135 43.9834 101.569 44.1541 101.1 44.4954C100.631 44.8368 100.268 45.3381 100.012 45.9994C99.7773 46.6394 99.66 47.4181 99.66 48.3354V58.1274H95.852V48.3354C95.852 46.9274 95.6387 45.8501 95.212 45.1034C94.7853 44.3568 94.0493 43.9834 93.004 43.9834C92.3427 43.9834 91.7773 44.1541 91.308 44.4954C90.86 44.8368 90.4973 45.3381 90.22 45.9994C89.964 46.6394 89.836 47.4181 89.836 48.3354V58.1274H85.74ZM117.095 58.1274C115.857 58.1274 114.865 57.8074 114.119 57.1674C113.372 56.5274 112.999 55.5034 112.999 54.0954V35.4074H117.095V53.6794C117.095 54.1061 117.201 54.4261 117.415 54.6394C117.649 54.8528 117.969 54.9594 118.375 54.9594H119.623V58.1274H117.095ZM121.609 58.1274V35.4074H129.161C132.787 35.4074 135.571 36.3994 137.513 38.3834C139.475 40.3461 140.457 43.1514 140.457 46.7994C140.457 50.4261 139.497 53.2208 137.577 55.1834C135.657 57.1461 132.915 58.1274 129.353 58.1274H121.609ZM125.769 54.5114H129.161C131.529 54.5114 133.289 53.8714 134.441 52.5914C135.593 51.3114 136.169 49.3808 136.169 46.7994C136.169 44.1754 135.593 42.2234 134.441 40.9434C133.289 39.6634 131.529 39.0234 129.161 39.0234H125.769V54.5114ZM142.93 58.1274V35.4074H147.09V46.2554L145.17 44.8794H158.546L156.658 46.2554V35.4074H160.818V58.1274H156.658V47.1514L158.546 48.4954H145.17L147.09 47.1514V58.1274H142.93ZM168.49 58.1274V42.5434H163.626V39.3754H165.578C166.495 39.3754 167.231 39.2581 167.786 39.0234C168.341 38.7888 168.735 38.3834 168.97 37.8074C169.226 37.2101 169.354 36.4101 169.354 35.4074H172.65V58.1274H168.49Z" fill="white"/>
</svg>
