<svg width="260" height="83" viewBox="0 0 260 83" fill="none" xmlns="http://www.w3.org/2000/svg">
<rect x="118.687" y="11.3137" width="16" height="16" rx="2" transform="rotate(-45 118.687 11.3137)" fill="#87A9E2"/>
<rect y="10.6274" width="260" height="72" rx="12" fill="#87A9E2"/>
<path d="M78.5866 58.4474C77.2213 58.4474 76.0373 58.0954 75.0346 57.3914C74.032 56.6874 73.2533 55.6634 72.6986 54.3194C72.1653 52.9754 71.8986 51.3754 71.8986 49.5194C71.8986 46.5541 72.5173 44.3034 73.7546 42.7674C74.992 41.2314 76.656 40.4634 78.7466 40.4634C79.5573 40.4634 80.2826 40.5808 80.9226 40.8154C81.5626 41.0288 82.128 41.3274 82.6186 41.7114C83.1093 42.0954 83.536 42.5434 83.8986 43.0554H84.0266L84.4426 40.7834H87.8026V53.2634C87.8026 53.9674 87.9306 54.4474 88.1866 54.7034C88.4426 54.9594 88.752 55.0874 89.1146 55.0874C89.264 55.0874 89.4346 55.0661 89.6266 55.0234C89.8186 54.9808 89.9573 54.9488 90.0426 54.9274V58.0314C89.936 58.0954 89.7653 58.1594 89.5306 58.2234C89.296 58.2874 89.04 58.3408 88.7626 58.3834C88.5066 58.4261 88.2613 58.4474 88.0266 58.4474C87.0666 58.4474 86.2773 58.2554 85.6586 57.8714C85.0613 57.4874 84.6026 56.8048 84.2826 55.8234H83.9946C83.6746 56.3141 83.2586 56.7621 82.7466 57.1674C82.2346 57.5514 81.6266 57.8608 80.9226 58.0954C80.24 58.3301 79.4613 58.4474 78.5866 58.4474ZM79.8986 55.2474C80.88 55.2474 81.6693 55.0554 82.2666 54.6714C82.864 54.2661 83.2906 53.6474 83.5466 52.8154C83.824 51.9834 83.9626 50.9381 83.9626 49.6794V49.4874C83.9626 47.6101 83.664 46.1914 83.0666 45.2314C82.4693 44.2501 81.392 43.7594 79.8346 43.7594C78.5546 43.7594 77.5946 44.2501 76.9546 45.2314C76.336 46.2128 76.0266 47.6528 76.0266 49.5514C76.0266 51.4074 76.3466 52.8261 76.9866 53.8074C77.6266 54.7674 78.5973 55.2474 79.8986 55.2474ZM91.2124 50.5114V47.0554H102.092V50.5114H91.2124ZM118.443 58.1274L108.875 46.7674H113.835L123.403 58.1274H118.443ZM104.939 58.1274V35.4074H109.099V58.1274H104.939ZM108.875 46.7674L118.123 35.4074H123.083L113.835 46.7674H108.875ZM125.104 58.1274V35.4074H141.328V39.0234H129.264V58.1274H125.104Z" fill="white"/>
<rect x="196" y="18.6274" width="56" height="56" rx="8" fill="white" fill-opacity="0.15"/>
<path d="M224.333 57.9805L224.333 34.6471" stroke="white" stroke-width="3" stroke-linecap="round" stroke-linejoin="round"/>
<path d="M232.668 49.6469L224.333 57.9819L215.998 49.6469" stroke="white" stroke-width="3" stroke-linecap="round" stroke-linejoin="round"/>
</svg>
