<svg width="260" height="83" viewBox="0 0 260 83" fill="none" xmlns="http://www.w3.org/2000/svg">
<rect x="118.687" y="11.3137" width="16" height="16" rx="2" transform="rotate(-45 118.687 11.3137)" fill="#87A9E2"/>
<rect y="10.6274" width="260" height="72" rx="12" fill="#87A9E2"/>
<path d="M74.0936 58.1274C74.0936 56.2928 74.3496 54.6928 74.8616 53.3274C75.3736 51.9408 76.2376 50.6821 77.4536 49.5514C78.6696 48.3994 80.3123 47.2794 82.3816 46.1914C83.4056 45.6368 84.227 45.1461 84.8456 44.7194C85.4643 44.2928 85.9123 43.8554 86.1896 43.4074C86.467 42.9381 86.6056 42.3834 86.6056 41.7434C86.6056 41.1034 86.467 40.5488 86.1896 40.0794C85.9123 39.5888 85.4963 39.2048 84.9416 38.9274C84.4083 38.6501 83.7363 38.5114 82.9256 38.5114C81.6243 38.5114 80.5896 38.8848 79.8216 39.6314C79.075 40.3568 78.6163 41.4021 78.4456 42.7674L74.1576 42.5114C74.371 40.1434 75.235 38.2874 76.7496 36.9434C78.2856 35.5781 80.3443 34.8954 82.9256 34.8954C84.5896 34.8954 86.019 35.1834 87.2136 35.7594C88.4083 36.3141 89.315 37.1034 89.9336 38.1274C90.5736 39.1514 90.8936 40.3354 90.8936 41.6794C90.8936 42.8314 90.691 43.8234 90.2856 44.6554C89.9016 45.4874 89.2616 46.2554 88.3656 46.9594C87.491 47.6421 86.307 48.3781 84.8136 49.1674C82.9363 50.1701 81.5283 51.1408 80.5896 52.0794C79.651 52.9968 79.1496 53.8074 79.0856 54.5114H90.8936V58.1274H74.0936ZM92.0561 50.5114V47.0554H102.936V50.5114H92.0561ZM105.783 58.1274V35.4074H122.007V39.0234H109.943V58.1274H105.783ZM123.229 58.1274V35.4074H139.453V39.0234H127.389V58.1274H123.229Z" fill="white"/>
<rect x="196" y="18.6274" width="56" height="56" rx="8" fill="white" fill-opacity="0.15"/>
<path d="M223.667 34.647V57.9803" stroke="white" stroke-width="3" stroke-linecap="round" stroke-linejoin="round"/>
<path d="M215.332 42.9805L223.667 34.6455L232.002 42.9805" stroke="white" stroke-width="3" stroke-linecap="round" stroke-linejoin="round"/>
</svg>
