<svg width="953" height="45" viewBox="0 0 953 45" fill="none" xmlns="http://www.w3.org/2000/svg">
<mask id="path-1-inside-1_2028_10718" fill="white">
<path d="M929.921 0L952.548 22.6274L930.628 44.5477L908.001 21.9203L929.921 0Z"/>
</mask>
<path d="M952.548 22.6274L956.084 26.163L959.619 22.6274L956.084 19.0919L952.548 22.6274ZM929.921 0L926.385 3.53553L949.013 26.163L952.548 22.6274L956.084 19.0919L933.456 -3.53553L929.921 0ZM952.548 22.6274L949.013 19.0919L927.092 41.0122L930.628 44.5477L934.164 48.0833L956.084 26.163L952.548 22.6274Z" fill="#61279E" mask="url(#path-1-inside-1_2028_10718)"/>
<mask id="path-3-inside-2_2028_10718" fill="white">
<path d="M626.921 0L649.548 22.6274L627.628 44.5477L605.001 21.9203L626.921 0Z"/>
</mask>
<path d="M649.548 22.6274L653.084 26.163L656.619 22.6274L653.084 19.0919L649.548 22.6274ZM626.921 0L623.385 3.53553L646.013 26.163L649.548 22.6274L653.084 19.0919L630.456 -3.53553L626.921 0ZM649.548 22.6274L646.013 19.0919L624.092 41.0122L627.628 44.5477L631.164 48.0833L653.084 26.163L649.548 22.6274Z" fill="#61279E" mask="url(#path-3-inside-2_2028_10718)"/>
<mask id="path-5-inside-3_2028_10718" fill="white">
<path d="M323.921 0L346.548 22.6274L324.628 44.5477L302.001 21.9203L323.921 0Z"/>
</mask>
<path d="M346.548 22.6274L350.084 26.163L353.619 22.6274L350.084 19.0919L346.548 22.6274ZM323.921 0L320.385 3.53553L343.013 26.163L346.548 22.6274L350.084 19.0919L327.456 -3.53553L323.921 0ZM346.548 22.6274L343.013 19.0919L321.092 41.0122L324.628 44.5477L328.164 48.0833L350.084 26.163L346.548 22.6274Z" fill="#61279E" mask="url(#path-5-inside-3_2028_10718)"/>
<mask id="path-7-inside-4_2028_10718" fill="white">
<path d="M21.9209 0L44.5483 22.6274L22.628 44.5477L0.000588596 21.9203L21.9209 0Z"/>
</mask>
<path d="M44.5483 22.6274L48.0838 26.163L51.6194 22.6274L48.0838 19.0919L44.5483 22.6274ZM21.9209 0L18.3854 3.53553L41.0128 26.163L44.5483 22.6274L48.0838 19.0919L25.4564 -3.53553L21.9209 0ZM44.5483 22.6274L41.0128 19.0919L19.0925 41.0122L22.628 44.5477L26.1635 48.0833L48.0838 26.163L44.5483 22.6274Z" fill="#61279E" mask="url(#path-7-inside-4_2028_10718)"/>
<rect x="38.9209" y="20" width="909" height="5" fill="#61279E"/>
</svg>
