<svg width="42" height="42" viewBox="0 0 42 42" fill="none" xmlns="http://www.w3.org/2000/svg">
<path fill-rule="evenodd" clip-rule="evenodd" d="M25.9049 28.5628L30.313 24.1548C31.2124 23.2553 32.4323 22.7501 33.7043 22.7501C34.9762 22.7501 36.1961 23.2554 37.0955 24.1548V24.1548C37.9949 25.0542 38.5002 26.2741 38.5002 27.546C38.5002 28.818 37.9949 30.0379 37.0955 30.9373L32.6874 35.3454C30.8145 37.2183 27.7779 37.2183 25.9049 35.3454V35.3454C24.032 33.4724 24.032 30.4358 25.9049 28.5628Z" stroke="#61279E" stroke-width="3" stroke-linecap="round" stroke-linejoin="round"/>
<path d="M19.2559 35C10.7841 35.0031 3.82758 28.3041 3.51118 19.8382C3.19478 11.3723 9.63187 4.17278 18.0803 3.54349C26.5287 2.91421 33.9614 9.08063 34.9027 17.5" stroke="#61279E" stroke-width="3" stroke-linecap="round" stroke-linejoin="round"/>
<path d="M28.1084 26.3588L34.8964 33.1468" stroke="#61279E" stroke-width="3" stroke-linecap="round" stroke-linejoin="round"/>
<path d="M20.1201 10.5V20.125H12.2451" stroke="#61279E" stroke-width="3" stroke-linecap="round" stroke-linejoin="round"/>
</svg>
