<svg width="42" height="42" viewBox="0 0 42 42" fill="none" xmlns="http://www.w3.org/2000/svg">
<path d="M28.4686 4.78141C30.1771 6.48995 30.1771 9.26004 28.4686 10.9686C26.76 12.6771 23.99 12.6771 22.2814 10.9686C20.5729 9.26004 20.5729 6.48995 22.2814 4.78141C23.99 3.07286 26.76 3.07286 28.4686 4.78141" stroke="#61279E" stroke-width="3" stroke-linecap="round" stroke-linejoin="round"/>
<path d="M15.4497 12.5503C18.1834 15.2839 18.1834 19.7161 15.4497 22.4497C12.7161 25.1834 8.28391 25.1834 5.55026 22.4497C2.81658 19.7161 2.81658 15.2839 5.55026 12.5503C8.28393 9.81658 12.7161 9.81658 15.4497 12.5503" stroke="#61279E" stroke-width="3" stroke-linecap="round" stroke-linejoin="round"/>
<path d="M17.5 17.5H3.5" stroke="#61279E" stroke-width="3" stroke-linecap="round" stroke-linejoin="round"/>
<path fill-rule="evenodd" clip-rule="evenodd" d="M36.9508 26.5213L28.2708 35.2013C26.2058 37.2663 22.8598 37.2663 20.7948 35.2013V35.2013C18.7298 33.1363 18.7298 29.7903 20.7948 27.7253L29.4748 19.0453C31.5398 16.9803 34.8858 16.9803 36.9508 19.0453V19.0453C39.0158 21.1103 39.0158 24.458 36.9508 26.5213Z" stroke="#61279E" stroke-width="3" stroke-linecap="round" stroke-linejoin="round"/>
<path d="M25.165 23.415L32.585 30.835" stroke="#61279E" stroke-width="3" stroke-linecap="round" stroke-linejoin="round"/>
</svg>
