<svg width="42" height="42" viewBox="0 0 42 42" fill="none" xmlns="http://www.w3.org/2000/svg">
<path d="M5.25 5.39697V13.2055V13.363V13.2055C5.25 15.435 6.16875 17.409 7.59325 18.6865C8.28975 19.3112 8.75 20.1547 8.75 21.091V34.125C8.75 35.574 9.926 36.75 11.375 36.75C12.824 36.75 14 35.574 14 34.125V21.091C14 20.1547 14.4603 19.3112 15.1568 18.6865C16.5813 17.409 17.5 15.435 17.5 13.2055V5.39697V13.2055" stroke="#61279E" stroke-width="3" stroke-linecap="round" stroke-linejoin="round"/>
<path d="M11.375 14V5.25" stroke="#61279E" stroke-width="3" stroke-linecap="round" stroke-linejoin="round"/>
<path fill-rule="evenodd" clip-rule="evenodd" d="M35 7.09094C35 6.12494 34.216 5.34094 33.25 5.34094H31.5C28.6003 5.34094 26.25 7.69119 26.25 10.5909V21.0909C26.25 23.3729 27.7148 25.2962 29.75 26.0189V34.1249C29.75 35.5739 30.926 36.7499 32.375 36.7499C33.824 36.7499 35 35.5739 35 34.1249V26.3409V7.09094Z" stroke="#61279E" stroke-width="3" stroke-linecap="round" stroke-linejoin="round"/>
</svg>
