<svg width="42" height="42" viewBox="0 0 42 42" fill="none" xmlns="http://www.w3.org/2000/svg">
<path d="M21.3604 21.3606L27.9956 27.9959" stroke="#61279E" stroke-width="3" stroke-linecap="round" stroke-linejoin="round"/>
<path d="M18.3734 22.8225V30.9511" stroke="#61279E" stroke-width="3" stroke-linecap="round" stroke-linejoin="round"/>
<path fill-rule="evenodd" clip-rule="evenodd" d="M6.49727 29.1618C7.11246 28.5337 8.10216 28.4703 8.79247 29.0148C14.5129 33.6338 22.7963 33.1939 27.9953 27.9949C33.1943 22.7959 33.6342 14.5126 29.0151 8.79211C28.4707 8.10179 28.5341 7.11209 29.1622 6.4969L29.9028 5.75459C30.2602 5.40318 30.7496 5.21942 31.25 5.24878C31.7504 5.27813 32.215 5.51786 32.5289 5.90866C38.6209 13.4376 38.0473 24.3505 31.1994 31.1993C24.3516 38.048 13.4387 38.6231 5.90902 32.532C5.51822 32.2181 5.2785 31.7535 5.24914 31.2531C5.21979 30.7528 5.40354 30.2633 5.75496 29.9059L6.49727 29.1618Z" stroke="#61279E" stroke-width="3" stroke-linecap="round" stroke-linejoin="round"/>
<path d="M14.2979 21.3607C16.2481 23.3109 19.4101 23.3109 21.3603 21.3607C23.3105 19.4104 23.3105 16.2485 21.3603 14.2982" stroke="#61279E" stroke-width="3" stroke-linecap="round" stroke-linejoin="round"/>
<path d="M29.162 6.49695L6.49707 29.1619" stroke="#61279E" stroke-width="3" stroke-linecap="round" stroke-linejoin="round"/>
<path d="M22.8223 18.3739H30.9509" stroke="#61279E" stroke-width="3" stroke-linecap="round" stroke-linejoin="round"/>
</svg>
