<svg width="42" height="42" viewBox="0 0 42 42" fill="none" xmlns="http://www.w3.org/2000/svg">
<circle cx="14.8719" cy="14.8729" r="4.37682" stroke="white" stroke-width="3" stroke-linecap="round" stroke-linejoin="round"/>
<path fill-rule="evenodd" clip-rule="evenodd" d="M30.3763 24.0639L24.0614 30.3788C22.5593 31.8809 20.1258 31.8809 18.6237 30.3788V30.3788C17.1215 28.8766 17.1215 26.4431 18.6237 24.941L24.9385 18.6261C26.4407 17.124 28.8742 17.124 30.3763 18.6261V18.6261C31.8802 20.1282 31.8802 22.5617 30.3763 24.0639Z" stroke="white" stroke-width="3" stroke-linecap="round" stroke-linejoin="round"/>
<path d="M21.8018 21.8022L27.2028 27.205" stroke="white" stroke-width="3" stroke-linecap="round" stroke-linejoin="round"/>
<path fill-rule="evenodd" clip-rule="evenodd" d="M29.7534 36.7568H12.2461C8.37872 36.7568 5.24316 33.6212 5.24316 29.7539V12.2466C5.24316 8.37921 8.37872 5.24365 12.2461 5.24365H29.7534C33.6207 5.24365 36.7563 8.37921 36.7563 12.2466V29.7539C36.7563 33.6212 33.6207 36.7568 29.7534 36.7568Z" stroke="white" stroke-width="3" stroke-linecap="round" stroke-linejoin="round"/>
</svg>
