<svg width="42" height="42" viewBox="0 0 42 42" fill="none" xmlns="http://www.w3.org/2000/svg">
<path fill-rule="evenodd" clip-rule="evenodd" d="M13.6379 19.7624C12.9534 20.447 11.8452 20.447 11.1624 19.7624L7.02366 15.6237C4.64967 13.2497 4.64967 9.39638 7.02366 7.02414V7.02414C9.39764 4.65016 13.251 4.65016 15.625 7.02414L20.9997 12.4006L13.6379 19.7624Z" stroke="white" stroke-width="3" stroke-linecap="round" stroke-linejoin="round"/>
<path fill-rule="evenodd" clip-rule="evenodd" d="M21 12.4008L26.3747 7.0261C28.7487 4.65211 32.6003 4.65211 34.9761 7.0261V7.0261C37.3501 9.40009 37.3501 13.2534 34.9761 15.6274L30.8391 19.7644C30.1546 20.4489 29.0464 20.4489 28.3636 19.7644L21 12.4008Z" stroke="white" stroke-width="3" stroke-linecap="round" stroke-linejoin="round"/>
<path d="M21.0029 26.2527C21.4861 26.2492 21.8748 25.857 21.8748 25.3738C21.8748 24.8906 21.4826 24.4985 20.9994 24.502C20.5162 24.502 20.124 24.8941 20.124 25.3773C20.124 25.8605 20.5127 26.2527 21.0029 26.2527" stroke="white" stroke-width="3" stroke-linecap="round" stroke-linejoin="round"/>
<path d="M21.8748 35.8782C21.8713 35.395 21.4791 35.0063 20.9959 35.0063C20.5127 35.0063 20.1205 35.3985 20.124 35.8817C20.124 36.3649 20.5162 36.7571 20.9994 36.7571C21.4826 36.7571 21.8748 36.3649 21.8748 35.8782" stroke="white" stroke-width="3" stroke-linecap="round" stroke-linejoin="round"/>
<path d="M25.377 30.6328C25.3805 31.116 25.7726 31.5046 26.2558 31.5046C26.739 31.5046 27.1312 31.1125 27.1277 30.6293C27.1277 30.1461 26.7355 29.7539 26.2523 29.7539C25.7691 29.7539 25.377 30.1426 25.377 30.6328" stroke="white" stroke-width="3" stroke-linecap="round" stroke-linejoin="round"/>
<path d="M15.7509 31.5047C16.2341 31.5012 16.6228 31.109 16.6228 30.6258C16.6228 30.1426 16.2306 29.7504 15.7474 29.7539C15.2642 29.7539 14.8721 30.1461 14.8721 30.6293C14.8721 31.1125 15.2642 31.5047 15.7509 31.5047" stroke="white" stroke-width="3" stroke-linecap="round" stroke-linejoin="round"/>
<path d="M30.6289 35.8852C30.6324 36.3684 31.0246 36.7571 31.5078 36.7571C31.991 36.7571 32.3831 36.3649 32.3796 35.8817C32.3796 35.3985 31.9875 35.0063 31.5043 35.0063C31.0211 35.0063 30.6289 35.395 30.6289 35.8852" stroke="white" stroke-width="3" stroke-linecap="round" stroke-linejoin="round"/>
<path d="M11.3709 35.8782C11.3674 35.395 10.9752 35.0063 10.492 35.0063C10.0088 35.0063 9.61664 35.3985 9.62014 35.8817C9.62014 36.3649 10.0123 36.7571 10.4955 36.7571C10.9787 36.7571 11.3709 36.3684 11.3709 35.8782" stroke="white" stroke-width="3" stroke-linecap="round" stroke-linejoin="round"/>
</svg>
