<svg width="219" height="1742" viewBox="0 0 219 1742" fill="none" xmlns="http://www.w3.org/2000/svg">
<path d="M962.946 -325.755L21.5359 441.22C9.64256 450.91 7.85607 468.406 17.5457 480.299L20.003 483.316C29.6926 495.209 47.1891 496.995 59.0824 487.306L1000.49 -279.669C1012.39 -289.359 1014.17 -306.855 1004.48 -318.749L1002.03 -321.765C992.336 -333.658 974.84 -335.445 962.946 -325.755Z" fill="url(#paint0_linear_979_93510)"/>
<path d="M205.809 487.306L1147.22 -279.669C1159.11 -289.359 1160.9 -306.855 1151.21 -318.749L1148.75 -321.765C1139.06 -333.658 1121.57 -335.445 1109.67 -325.755L168.262 441.22C156.369 450.91 154.582 468.406 164.272 480.3L166.729 483.316C176.419 495.209 193.915 496.996 205.809 487.306Z" fill="url(#paint1_linear_979_93510)"/>
<path d="M1076.46 -543.195L135.047 223.78C123.153 233.47 121.367 250.966 131.056 262.86L133.514 265.876C143.203 277.769 160.7 279.556 172.593 269.866L1114 -497.109C1125.9 -506.799 1127.68 -524.295 1117.99 -536.189L1115.54 -539.205C1105.85 -551.098 1088.35 -552.885 1076.46 -543.195Z" fill="url(#paint2_linear_979_93510)"/>
<path d="M157.276 276.24C175.082 276.24 189.516 261.806 189.516 244C189.516 226.195 175.082 211.761 157.276 211.761C139.471 211.761 125.037 226.195 125.037 244C125.037 261.806 139.471 276.24 157.276 276.24Z" fill="#E74C39"/>
<path d="M190.489 493.678C208.294 493.678 222.728 479.244 222.728 461.439C222.728 443.633 208.294 429.199 190.489 429.199C172.683 429.199 158.249 443.633 158.249 461.439C158.249 479.244 172.683 493.678 190.489 493.678Z" fill="#61279E"/>
<path d="M59.0813 237.606L1000.49 -529.369C1012.39 -539.059 1014.17 -556.556 1004.48 -568.449L1002.02 -571.465C992.335 -583.358 974.839 -585.145 962.945 -575.455L21.5348 191.52C9.64145 201.21 7.85491 218.706 17.5445 230.599L20.0018 233.616C29.6915 245.509 47.188 247.295 59.0813 237.606Z" fill="url(#paint3_linear_979_93510)"/>
<path d="M43.7657 244.001C61.5712 244.001 76.0053 229.567 76.0053 211.762C76.0053 193.956 61.5712 179.522 43.7657 179.522C25.9603 179.522 11.5261 193.956 11.5261 211.762C11.5261 229.567 25.9603 244.001 43.7657 244.001Z" fill="#6A19A4"/>
<path d="M43.79 493.672C61.5955 493.672 76.0296 479.237 76.0296 461.432C76.0296 443.627 61.5955 429.192 43.79 429.192C25.9846 429.192 11.5504 443.627 11.5504 461.432C11.5504 479.237 25.9846 493.672 43.79 493.672Z" fill="#87A9E2"/>
<defs>
<linearGradient id="paint0_linear_979_93510" x1="1003.25" y1="-320.257" x2="18.7743" y2="481.808" gradientUnits="userSpaceOnUse">
<stop stop-color="#8DABDF"/>
<stop offset="0.48" stop-color="#90ADE0" stop-opacity="0.99"/>
<stop offset="0.66" stop-color="#9BB5E3" stop-opacity="0.95"/>
<stop offset="0.78" stop-color="#AEC4E8" stop-opacity="0.88"/>
<stop offset="0.88" stop-color="#CAD8F0" stop-opacity="0.79"/>
<stop offset="0.97" stop-color="#EDF2FA" stop-opacity="0.66"/>
<stop offset="1" stop-color="white" stop-opacity="0.6"/>
</linearGradient>
<linearGradient id="paint1_linear_979_93510" x1="165.479" y1="481.826" x2="1149.96" y2="-320.239" gradientUnits="userSpaceOnUse">
<stop stop-color="white" stop-opacity="0.6"/>
<stop offset="0.02" stop-color="#F3EDF8" stop-opacity="0.63"/>
<stop offset="0.08" stop-color="#CFB4E2" stop-opacity="0.73"/>
<stop offset="0.14" stop-color="#AF84CE" stop-opacity="0.81"/>
<stop offset="0.22" stop-color="#965CBF" stop-opacity="0.88"/>
<stop offset="0.31" stop-color="#823EB3" stop-opacity="0.94"/>
<stop offset="0.42" stop-color="#7429AA" stop-opacity="0.97"/>
<stop offset="0.57" stop-color="#6C1CA5" stop-opacity="0.99"/>
<stop offset="1" stop-color="#6A19A4"/>
</linearGradient>
<linearGradient id="paint2_linear_979_93510" x1="1116.79" y1="-537.715" x2="132.307" y2="264.35" gradientUnits="userSpaceOnUse">
<stop stop-color="#E74C39"/>
<stop offset="0.46" stop-color="#E34E3C" stop-opacity="0.99"/>
<stop offset="0.63" stop-color="#DF5F50" stop-opacity="0.96"/>
<stop offset="0.75" stop-color="#D97266" stop-opacity="0.9"/>
<stop offset="0.84" stop-color="#E8A095" stop-opacity="0.83"/>
<stop offset="0.93" stop-color="#F2CAC4" stop-opacity="0.73"/>
<stop offset="1" stop-color="white" stop-opacity="0.6"/>
</linearGradient>
<linearGradient id="paint3_linear_979_93510" x1="18.751" y1="232.126" x2="1003.23" y2="-569.939" gradientUnits="userSpaceOnUse">
<stop stop-color="white" stop-opacity="0.6"/>
<stop offset="0.02" stop-color="#F3EDF8" stop-opacity="0.63"/>
<stop offset="0.08" stop-color="#CFB4E2" stop-opacity="0.73"/>
<stop offset="0.14" stop-color="#AF84CE" stop-opacity="0.81"/>
<stop offset="0.22" stop-color="#965CBF" stop-opacity="0.88"/>
<stop offset="0.31" stop-color="#823EB3" stop-opacity="0.94"/>
<stop offset="0.42" stop-color="#7429AA" stop-opacity="0.97"/>
<stop offset="0.57" stop-color="#6C1CA5" stop-opacity="0.99"/>
<stop offset="1" stop-color="#6A19A4"/>
</linearGradient>
</defs>
</svg>
