<svg width="1440" height="204" viewBox="0 0 1440 204" fill="none" xmlns="http://www.w3.org/2000/svg">
<path d="M623.966 166.043H621.586V148.732H621.498L613.829 166.043H611.096V144.447H613.476V161.758H613.565L621.233 144.447H623.966V166.043Z" fill="#6D6C6C"/>
<path d="M640.89 160.215C640.89 162.187 640.361 163.643 639.215 164.586C638.069 165.529 636.659 166.043 634.984 166.043H628.109V144.447H634.543C638.598 144.447 640.537 146.075 640.537 149.332C640.537 150.789 640.273 151.988 639.744 152.931C639.215 153.874 638.245 154.388 636.923 154.645V154.731C638.422 154.988 639.391 155.502 640.008 156.445C640.625 157.387 640.89 158.673 640.89 160.215ZM638.157 149.76C638.157 148.989 638.069 148.389 637.805 147.96C637.628 147.532 637.276 147.189 636.835 147.018C636.394 146.846 636.042 146.675 635.601 146.589C635.248 146.504 634.719 146.504 634.191 146.504H630.4V153.702H633.397C635.072 153.702 636.306 153.445 637.011 152.845C637.805 152.245 638.157 151.217 638.157 149.76ZM638.422 160.044C638.422 158.416 638.069 157.302 637.364 156.702C636.659 156.102 635.336 155.759 633.485 155.759H630.488V163.986H634.543C637.099 163.986 638.422 162.701 638.422 160.044Z" fill="#6D6C6C"/>
<path d="M657.814 157.387C657.814 160.472 657.285 162.786 656.227 164.329C655.17 165.871 653.407 166.643 650.762 166.643C648.294 166.643 646.531 165.871 645.562 164.329C644.592 162.786 644.063 160.558 644.063 157.644V153.359C644.063 150.36 644.592 148.046 645.65 146.418C646.708 144.789 648.471 144.018 651.115 144.018C652.525 144.018 653.671 144.189 654.553 144.704C655.434 145.132 656.139 145.732 656.58 146.589C657.021 147.446 657.373 148.389 657.55 149.417C657.726 150.446 657.814 151.645 657.814 153.102V157.387ZM655.434 156.359V153.359C655.434 152.331 655.346 151.388 655.258 150.617C655.17 149.846 654.993 149.074 654.729 148.303C654.464 147.532 654.024 146.932 653.407 146.589C652.79 146.161 652.085 145.989 651.115 145.989C650.145 145.989 649.264 146.161 648.647 146.675C648.03 147.103 647.501 147.703 647.236 148.56C646.972 149.417 646.708 150.188 646.619 151.045C646.531 151.817 646.443 152.845 646.443 154.045V156.702C646.443 157.644 646.443 158.416 646.443 159.015C646.443 159.615 646.531 160.301 646.708 161.072C646.884 161.844 647.148 162.443 647.413 162.958C647.765 163.386 648.206 163.815 648.823 164.157C649.44 164.5 650.145 164.672 651.027 164.672C651.732 164.672 652.349 164.586 652.878 164.329C653.407 164.072 653.759 163.729 654.112 163.3C654.376 162.872 654.641 162.358 654.817 161.929C654.993 161.501 655.17 160.901 655.17 160.13C655.258 159.358 655.258 158.758 655.346 158.33C655.346 157.816 655.434 157.216 655.434 156.359Z" fill="#6D6C6C"/>
<path d="M672.975 159.787C672.975 164.415 671.124 166.643 667.333 166.643C663.014 166.643 660.899 163.729 660.899 157.901V154.216C660.899 153.188 660.899 152.331 660.987 151.56C661.075 150.874 661.163 150.017 661.251 149.16C661.428 148.303 661.604 147.617 661.957 147.018C662.221 146.503 662.662 145.903 663.102 145.475C663.543 144.961 664.16 144.618 664.865 144.361C665.571 144.104 666.452 144.018 667.422 144.018C669.361 144.018 670.859 144.532 671.653 145.646C672.446 146.76 672.975 148.389 672.975 150.617H670.595C670.595 147.532 669.537 146.075 667.333 146.075C666.628 146.075 666.011 146.246 665.571 146.503C665.13 146.76 664.689 147.189 664.425 147.617C664.16 148.046 663.896 148.732 663.808 149.589C663.631 150.446 663.543 151.303 663.543 152.16C663.543 153.017 663.455 154.131 663.455 155.588C663.455 156.787 663.455 157.816 663.543 158.587C663.543 159.358 663.631 160.13 663.808 160.987C663.984 161.844 664.16 162.443 664.425 162.872C664.689 163.3 665.042 163.729 665.571 163.986C666.011 164.329 666.628 164.415 667.333 164.415C669.537 164.415 670.683 162.786 670.683 159.701H672.975V159.787Z" fill="#6D6C6C"/>
<path d="M689.37 166.043H686.99V148.732H686.902L679.233 166.043H676.501V144.447H678.881V161.758H678.969L686.637 144.447H689.37V166.043Z" fill="#6D6C6C"/>
<path d="M709.115 171.271H706.735V166.129H694.306V171.271H691.926V163.986H693.425C694.218 162.872 694.835 161.672 695.364 160.301C695.805 158.93 696.157 157.302 696.334 155.416C696.51 153.531 696.598 152.074 696.686 150.96C696.686 149.846 696.774 148.218 696.774 146.075C696.774 145.561 696.774 145.132 696.774 144.79V144.447H707.352V163.986H709.115V171.271ZM704.972 163.986V146.504H698.978V146.932C698.978 155.673 697.92 161.33 695.893 163.986H704.972Z" fill="#6D6C6C"/>
<path d="M725.245 159.53C725.245 161.758 724.717 163.472 723.571 164.757C722.425 166.043 720.838 166.643 718.546 166.643C717.312 166.643 716.255 166.471 715.373 166.043C714.492 165.614 713.786 165.1 713.258 164.5C712.729 163.9 712.376 163.043 712.112 161.929C711.847 160.815 711.671 159.787 711.583 158.758C711.495 157.73 711.495 156.53 711.495 154.988C711.495 153.702 711.583 152.588 711.671 151.56C711.759 150.531 712.023 149.589 712.288 148.56C712.641 147.617 712.993 146.76 713.522 146.161C714.051 145.475 714.668 145.046 715.549 144.618C716.431 144.189 717.4 144.018 718.546 144.018C721.103 144.018 722.865 144.875 723.835 146.418C724.717 148.046 725.245 150.36 725.245 153.274V155.673H714.051V157.044C714.051 158.073 714.139 158.93 714.227 159.701C714.315 160.472 714.492 161.244 714.844 162.015C715.109 162.786 715.637 163.386 716.255 163.815C716.872 164.243 717.665 164.415 718.634 164.415C720.045 164.415 721.103 163.986 721.808 163.043C722.513 162.186 722.865 160.901 722.865 159.444H725.245V159.53ZM722.865 153.702C722.865 152.931 722.865 152.331 722.865 151.902C722.865 151.474 722.777 150.874 722.689 150.188C722.601 149.503 722.513 148.903 722.248 148.474C721.984 148.046 721.808 147.617 721.543 147.189C721.279 146.76 720.838 146.418 720.309 146.246C719.78 146.075 719.163 145.903 718.546 145.903C715.637 145.903 714.139 148.132 714.139 152.502V153.616H722.865V153.702Z" fill="#6D6C6C"/>
<path d="M741.641 166.043H739.261V155.759H731.328V166.043H728.948V144.447H731.328V153.702H739.261V144.447H741.641V166.043Z" fill="#6D6C6C"/>
<path d="M758.741 166.043H756.361V148.732H756.273L748.604 166.043H745.872V144.447H748.252V161.758H748.34L756.008 144.447H758.741V166.043Z" fill="#6D6C6C"/>
<path d="M776.105 157.729C776.105 160.729 775.488 162.957 774.254 164.414C773.02 165.871 771.434 166.556 769.318 166.556C767.203 166.556 765.528 165.871 764.294 164.585C763.06 163.3 762.443 160.9 762.443 157.558V151.988C762.443 148.217 762.707 145.303 763.148 143.418C763.677 141.446 764.382 140.075 765.264 139.218C766.233 138.361 767.643 137.761 769.671 137.247C771.434 136.819 772.491 136.39 772.932 136.047C773.197 135.79 773.285 135.533 773.373 135.19H775.841C775.841 135.79 775.753 136.305 775.488 136.733C775.224 137.162 774.96 137.59 774.607 137.847C774.254 138.104 773.814 138.361 773.197 138.618C772.58 138.876 772.051 139.047 771.61 139.133C771.169 139.218 770.64 139.39 769.847 139.561C767.82 139.99 766.498 140.847 765.704 142.132C764.999 143.332 764.47 145.389 764.206 148.302H764.294C765.352 145.903 767.115 144.703 769.759 144.703C770.993 144.703 772.139 144.96 773.02 145.56C773.902 146.074 774.519 146.846 774.96 147.703C775.312 148.56 775.577 149.417 775.753 150.274C775.929 151.045 775.929 151.902 775.929 152.759V157.729H776.105ZM773.726 154.816C773.726 151.559 773.373 149.417 772.668 148.302C771.963 147.188 770.905 146.674 769.495 146.674C766.409 146.674 764.823 149.417 764.823 154.816C764.823 158.586 765.175 161.072 765.792 162.443C766.409 163.728 767.643 164.414 769.406 164.414C771.081 164.414 772.227 163.728 772.844 162.443C773.373 161.072 773.726 158.586 773.726 154.816Z" fill="#6D6C6C"/>
<path d="M620.352 75.4578H606.248L608.099 65.5166H647.765L646.002 75.4578H632.163L625.112 114.451H613.3L620.352 75.4578Z" fill="#592481"/>
<path d="M653.583 65.5166H665.218L659.4 97.7396H659.665L684.874 65.5166H697.303L688.4 114.451H676.765L682.494 82.9993H682.318L657.285 114.451H644.68L653.583 65.5166Z" fill="#592481"/>
<path d="M705.148 65.5186H739.525L737.85 75.1169H715.285L713.61 84.3725H719.868C731.592 84.3725 738.115 89.4287 738.115 97.7416C738.115 109.397 729.388 114.367 715.99 114.367H696.333L705.148 65.5186ZM716.166 105.026C722.16 105.026 725.95 103.398 725.95 98.77C725.95 94.7421 722.865 93.5423 718.194 93.5423H711.935L709.82 105.026H716.166Z" fill="#592481"/>
<path d="M742.698 94.4844C742.698 77.6016 755.567 64.2324 772.668 64.2324C780.601 64.2324 787.388 67.3176 790.561 71.5169L781.835 79.1442C780.248 76.8303 776.987 74.6021 772.315 74.6021C762.267 74.6021 755.391 83.6005 755.391 93.1989C755.391 99.8834 759.71 105.454 767.732 105.454C772.139 105.454 776.282 103.483 779.367 100.141L785.978 107.768C782.011 112.053 775.488 115.909 765.881 115.909C751.689 115.738 742.698 107.254 742.698 94.4844Z" fill="#592481"/>
<path d="M788.005 94.0559C788.005 77.5159 800.434 64.2324 817.798 64.2324C832.959 64.2324 842.127 72.7167 842.127 85.9144C842.127 102.454 829.962 115.738 812.51 115.738C797.26 115.738 788.005 107.168 788.005 94.0559ZM829.786 86.7714C829.786 80.0011 825.203 74.4307 817.005 74.4307C806.692 74.4307 800.257 83.6005 800.257 92.9418C800.257 99.712 804.841 105.283 813.127 105.283C823.704 105.368 829.786 96.1984 829.786 86.7714Z" fill="#592481"/>
<path d="M851.735 65.5186H871.391C878.355 65.5186 886.112 68.2609 886.112 76.231C886.112 82.8299 881.704 87.1149 875.358 88.7431V88.9145C880.47 89.7715 884.349 93.628 884.349 99.3699C884.349 109.311 875.358 114.539 862.841 114.539H842.744L851.735 65.5186ZM862.665 105.197C867.954 105.197 872.625 103.569 872.625 98.5129C872.625 95.4277 870.069 93.5423 865.485 93.5423H857.817L855.789 105.197H862.665ZM866.719 85.2295C870.157 85.2295 874.564 83.8583 874.564 79.2305C874.564 75.9739 871.656 74.7741 867.777 74.7741H861.343L859.491 85.3152H866.719V85.2295Z" fill="#592481"/>
<path d="M888.668 94.0559C888.668 77.5159 901.096 64.2324 918.461 64.2324C933.622 64.2324 942.789 72.7167 942.789 85.9144C942.789 102.454 930.625 115.738 913.172 115.738C897.923 115.738 888.668 107.168 888.668 94.0559ZM930.449 86.7714C930.449 80.0011 925.865 74.4307 917.668 74.4307C907.355 74.4307 900.92 83.6005 900.92 92.9418C900.92 99.712 905.504 105.283 913.789 105.283C924.367 105.368 930.449 96.1984 930.449 86.7714Z" fill="#592481"/>
<path d="M594.437 68.7733C594.437 49.1481 578.042 33.208 557.856 33.208C549.747 33.208 542.255 35.779 536.172 40.1497C540.227 38.6928 544.546 37.9215 549.042 37.9215C569.932 37.9215 586.856 54.4615 586.856 74.858C586.856 83.6851 583.683 91.8265 578.394 98.1683C588.09 91.7408 594.437 80.9427 594.437 68.7733Z" fill="#592481"/>
<path d="M945.963 75.9726C945.963 71.0877 950.017 67.1455 955.13 67.1455C960.154 67.1455 964.297 71.0877 964.297 75.9726C964.297 80.8574 960.242 84.8853 955.13 84.8853C949.929 84.7996 945.963 80.8574 945.963 75.9726ZM961.829 75.9726C961.829 72.0304 959.008 69.4594 955.042 69.4594C951.075 69.4594 948.254 72.0304 948.254 75.9726C948.254 79.9147 951.075 82.5714 955.042 82.5714C958.92 82.4857 961.829 79.9147 961.829 75.9726ZM959.273 80.6003H956.893L954.777 76.6582H953.279V80.6003H951.251V71.3448H955.835C957.862 71.3448 959.096 72.0304 959.096 74.1729C959.096 75.8012 958.127 76.5725 956.981 76.6582L959.273 80.6003ZM955.482 74.8585C956.452 74.8585 957.333 74.8585 957.333 73.8301C957.333 72.9731 956.452 72.9731 955.482 72.9731H953.279V74.7728H955.482V74.8585Z" fill="#592481"/>
<mask id="mask0_979_95809" style="mask-type:luminance" maskUnits="userSpaceOnUse" x="475" y="42" width="108" height="92">
<path d="M527.446 128.164C527.181 128.335 527.093 128.592 527.005 128.849C527.005 129.106 527.093 129.364 527.269 129.621C527.622 130.049 528.327 130.135 528.856 129.792L563.145 107.167L573.193 100.568C575.926 97.569 577.16 95.855 579.099 91.4843L527.446 128.164ZM509.288 128.849C509.023 129.021 508.935 129.278 508.847 129.535C508.847 129.792 508.847 130.135 509.111 130.306C509.464 130.82 510.169 130.906 510.698 130.478L580.51 86.3423C581.479 83.4285 582.272 79.5721 582.361 76.4012L509.288 128.849ZM511.491 115.394C511.227 115.566 511.051 115.909 511.051 116.251C511.051 116.594 511.051 116.937 511.315 117.194C511.756 117.708 512.461 117.794 512.99 117.366L582.096 71.602C582.008 68.9453 581.655 65.9458 580.421 63.1177L511.491 115.394ZM475.88 130.992C475.352 131.42 475.263 132.106 475.704 132.62C475.969 132.877 476.233 133.049 476.586 133.049C476.938 133.049 477.291 133.049 477.555 132.791L578.218 59.6041C577.16 56.5189 575.309 53.7765 572.576 51.9768L475.88 130.992ZM475.528 118.308C474.999 118.737 474.911 119.422 475.352 119.937C475.616 120.194 475.88 120.365 476.233 120.365C476.586 120.365 476.938 120.279 477.203 120.108L569.139 49.1487C566.406 46.5777 564.114 45.3779 560.677 44.6923L475.528 118.308ZM547.367 42.0356C544.81 43.064 484.783 99.5401 484.783 99.5401C484.342 99.8829 484.254 100.654 484.607 101.083C484.783 101.34 485.048 101.425 485.4 101.511C485.665 101.511 486.017 101.425 486.193 101.254L556.269 43.4925C553.89 42.5498 551.157 42.0356 548.601 42.0356C548.248 42.0356 547.807 42.0356 547.367 42.0356ZM529.561 46.6634L520.747 54.8049L490.689 82.5715C490.248 82.9143 490.16 83.5999 490.513 84.1141C490.689 84.3712 490.953 84.4569 491.218 84.5426C491.482 84.5426 491.835 84.5426 492.011 84.2855L542.078 42.0356C537.23 42.8069 533.528 44.0067 529.561 46.6634Z" fill="white"/>
</mask>
<g mask="url(#mask0_979_95809)">
<path d="M429.604 75.6301L542.607 -8.52686L627.667 99.4546L514.576 183.612L429.604 75.6301Z" fill="url(#paint0_linear_979_95809)"/>
</g>
<defs>
<linearGradient id="paint0_linear_979_95809" x1="439.952" y1="153.508" x2="571.389" y2="50.0008" gradientUnits="userSpaceOnUse">
<stop stop-color="#FAD0C4"/>
<stop offset="0.0269658" stop-color="#F9C8BC"/>
<stop offset="0.1548" stop-color="#F5A798"/>
<stop offset="0.2902" stop-color="#F18C7B"/>
<stop offset="0.4335" stop-color="#EE7764"/>
<stop offset="0.5884" stop-color="#ED6954"/>
<stop offset="0.7632" stop-color="#EB604B"/>
<stop offset="1" stop-color="#EB5D48"/>
</linearGradient>
</defs>
</svg>
