<svg width="492" height="140" viewBox="0 0 492 140" fill="none" xmlns="http://www.w3.org/2000/svg">
<path d="M149.71 134.043H147.33V116.732H147.242L139.574 134.043H136.841V112.447H139.221V129.758H139.309L146.978 112.447H149.71V134.043Z" fill="#6D6C6C"/>
<path d="M166.634 128.215C166.634 130.187 166.105 131.643 164.96 132.586C163.814 133.529 162.403 134.043 160.729 134.043H153.853V112.447H160.288C164.343 112.447 166.282 114.075 166.282 117.332C166.282 118.789 166.017 119.988 165.488 120.931C164.96 121.874 163.99 122.388 162.668 122.645V122.731C164.166 122.988 165.136 123.502 165.753 124.445C166.37 125.387 166.634 126.673 166.634 128.215ZM163.902 117.76C163.902 116.989 163.814 116.389 163.549 115.96C163.373 115.532 163.02 115.189 162.58 115.018C162.139 114.846 161.786 114.675 161.346 114.589C160.993 114.504 160.464 114.504 159.935 114.504H156.145V121.702H159.142C160.817 121.702 162.051 121.445 162.756 120.845C163.549 120.245 163.902 119.217 163.902 117.76ZM164.166 128.044C164.166 126.416 163.814 125.302 163.108 124.702C162.403 124.102 161.081 123.759 159.23 123.759H156.233V131.986H160.288C162.844 131.986 164.166 130.701 164.166 128.044Z" fill="#6D6C6C"/>
<path d="M183.559 125.387C183.559 128.472 183.03 130.786 181.972 132.329C180.914 133.871 179.151 134.643 176.507 134.643C174.039 134.643 172.276 133.871 171.306 132.329C170.337 130.786 169.808 128.558 169.808 125.644V121.359C169.808 118.36 170.337 116.046 171.395 114.418C172.452 112.789 174.215 112.018 176.86 112.018C178.27 112.018 179.416 112.189 180.297 112.704C181.179 113.132 181.884 113.732 182.325 114.589C182.765 115.446 183.118 116.389 183.294 117.417C183.47 118.446 183.559 119.645 183.559 121.102V125.387ZM181.179 124.359V121.359C181.179 120.331 181.091 119.388 181.002 118.617C180.914 117.846 180.738 117.074 180.474 116.303C180.209 115.532 179.768 114.932 179.151 114.589C178.534 114.161 177.829 113.989 176.86 113.989C175.89 113.989 175.008 114.161 174.391 114.675C173.774 115.103 173.246 115.703 172.981 116.56C172.717 117.417 172.452 118.188 172.364 119.045C172.276 119.817 172.188 120.845 172.188 122.045V124.702C172.188 125.644 172.188 126.416 172.188 127.015C172.188 127.615 172.276 128.301 172.452 129.072C172.629 129.844 172.893 130.443 173.157 130.958C173.51 131.386 173.951 131.815 174.568 132.157C175.185 132.5 175.89 132.672 176.771 132.672C177.477 132.672 178.094 132.586 178.622 132.329C179.151 132.072 179.504 131.729 179.856 131.3C180.121 130.872 180.385 130.358 180.562 129.929C180.738 129.501 180.914 128.901 180.914 128.13C181.002 127.358 181.002 126.758 181.091 126.33C181.091 125.816 181.179 125.216 181.179 124.359Z" fill="#6D6C6C"/>
<path d="M198.719 127.787C198.719 132.415 196.868 134.643 193.078 134.643C188.759 134.643 186.643 131.729 186.643 125.901V122.216C186.643 121.188 186.643 120.331 186.732 119.56C186.82 118.874 186.908 118.017 186.996 117.16C187.172 116.303 187.349 115.617 187.701 115.018C187.966 114.503 188.406 113.903 188.847 113.475C189.288 112.961 189.905 112.618 190.61 112.361C191.315 112.104 192.197 112.018 193.166 112.018C195.105 112.018 196.604 112.532 197.397 113.646C198.191 114.76 198.719 116.389 198.719 118.617H196.339C196.339 115.532 195.282 114.075 193.078 114.075C192.373 114.075 191.756 114.246 191.315 114.503C190.874 114.76 190.434 115.189 190.169 115.617C189.905 116.046 189.64 116.732 189.552 117.589C189.376 118.446 189.288 119.303 189.288 120.16C189.288 121.017 189.2 122.131 189.2 123.588C189.2 124.787 189.2 125.816 189.288 126.587C189.288 127.358 189.376 128.13 189.552 128.987C189.729 129.844 189.905 130.443 190.169 130.872C190.434 131.3 190.786 131.729 191.315 131.986C191.756 132.329 192.373 132.415 193.078 132.415C195.282 132.415 196.428 130.786 196.428 127.701H198.719V127.787Z" fill="#6D6C6C"/>
<path d="M215.115 134.043H212.735V116.732H212.646L204.978 134.043H202.245V112.447H204.625V129.758H204.713L212.382 112.447H215.115V134.043Z" fill="#6D6C6C"/>
<path d="M234.859 139.271H232.48V134.129H220.051V139.271H217.671V131.986H219.169C219.963 130.872 220.58 129.672 221.109 128.301C221.549 126.93 221.902 125.302 222.078 123.416C222.255 121.531 222.343 120.074 222.431 118.96C222.431 117.846 222.519 116.218 222.519 114.075C222.519 113.561 222.519 113.132 222.519 112.79V112.447H233.097V131.986H234.859V139.271ZM230.717 131.986V114.504H224.723V114.932C224.723 123.673 223.665 129.33 221.638 131.986H230.717Z" fill="#6D6C6C"/>
<path d="M250.99 127.53C250.99 129.758 250.461 131.472 249.315 132.757C248.169 134.043 246.583 134.643 244.291 134.643C243.057 134.643 241.999 134.471 241.118 134.043C240.236 133.614 239.531 133.1 239.002 132.5C238.473 131.9 238.121 131.043 237.856 129.929C237.592 128.815 237.416 127.787 237.327 126.758C237.239 125.73 237.239 124.53 237.239 122.988C237.239 121.702 237.327 120.588 237.416 119.56C237.504 118.531 237.768 117.589 238.033 116.56C238.385 115.617 238.738 114.76 239.267 114.161C239.796 113.475 240.413 113.046 241.294 112.618C242.175 112.189 243.145 112.018 244.291 112.018C246.847 112.018 248.61 112.875 249.58 114.418C250.461 116.046 250.99 118.36 250.99 121.274V123.673H239.795V125.044C239.795 126.073 239.884 126.93 239.972 127.701C240.06 128.472 240.236 129.244 240.589 130.015C240.853 130.786 241.382 131.386 241.999 131.815C242.616 132.243 243.409 132.415 244.379 132.415C245.789 132.415 246.847 131.986 247.552 131.043C248.258 130.186 248.61 128.901 248.61 127.444H250.99V127.53ZM248.61 121.702C248.61 120.931 248.61 120.331 248.61 119.902C248.61 119.474 248.522 118.874 248.434 118.188C248.346 117.503 248.258 116.903 247.993 116.474C247.729 116.046 247.552 115.617 247.288 115.189C247.023 114.76 246.583 114.418 246.054 114.246C245.525 114.075 244.908 113.903 244.291 113.903C241.382 113.903 239.884 116.132 239.884 120.502V121.616H248.61V121.702Z" fill="#6D6C6C"/>
<path d="M267.385 134.043H265.005V123.759H257.072V134.043H254.692V112.447H257.072V121.702H265.005V112.447H267.385V134.043Z" fill="#6D6C6C"/>
<path d="M284.486 134.043H282.106V116.732H282.018L274.349 134.043H271.616V112.447H273.996V129.758H274.084L281.753 112.447H284.486V134.043Z" fill="#6D6C6C"/>
<path d="M301.85 125.729C301.85 128.729 301.233 130.957 299.999 132.414C298.765 133.871 297.178 134.556 295.063 134.556C292.947 134.556 291.273 133.871 290.039 132.585C288.804 131.3 288.188 128.9 288.188 125.558V119.988C288.188 116.217 288.452 113.303 288.893 111.418C289.422 109.446 290.127 108.075 291.008 107.218C291.978 106.361 293.388 105.761 295.415 105.247C297.178 104.819 298.236 104.39 298.677 104.047C298.941 103.79 299.029 103.533 299.118 103.19H301.586C301.586 103.79 301.498 104.305 301.233 104.733C300.969 105.162 300.704 105.59 300.352 105.847C299.999 106.104 299.558 106.361 298.941 106.618C298.324 106.876 297.795 107.047 297.355 107.133C296.914 107.218 296.385 107.39 295.592 107.561C293.564 107.99 292.242 108.847 291.449 110.132C290.744 111.332 290.215 113.389 289.95 116.302H290.039C291.096 113.903 292.859 112.703 295.504 112.703C296.738 112.703 297.884 112.96 298.765 113.56C299.646 114.074 300.263 114.846 300.704 115.703C301.057 116.56 301.321 117.417 301.498 118.274C301.674 119.045 301.674 119.902 301.674 120.759V125.729H301.85ZM299.47 122.816C299.47 119.559 299.118 117.417 298.412 116.302C297.707 115.188 296.65 114.674 295.239 114.674C292.154 114.674 290.567 117.417 290.567 122.816C290.567 126.586 290.92 129.072 291.537 130.443C292.154 131.728 293.388 132.414 295.151 132.414C296.826 132.414 297.972 131.728 298.589 130.443C299.118 129.072 299.47 126.586 299.47 122.816Z" fill="#6D6C6C"/>
<path d="M146.096 43.4578H131.993L133.844 33.5166H173.51L171.747 43.4578H157.908L150.856 82.4511H139.045L146.096 43.4578Z" fill="#592481"/>
<path d="M179.327 33.5166H190.962L185.145 65.7396H185.409L210.619 33.5166H223.048L214.145 82.4511H202.51L208.239 50.9993H208.063L183.029 82.4511H170.424L179.327 33.5166Z" fill="#592481"/>
<path d="M230.893 33.5186H265.269L263.595 43.1169H241.029L239.355 52.3725H245.613C257.336 52.3725 263.859 57.4287 263.859 65.7416C263.859 77.3967 255.133 82.3673 241.735 82.3673H222.078L230.893 33.5186ZM241.911 73.0261C247.905 73.0261 251.695 71.3978 251.695 66.77C251.695 62.7421 248.61 61.5423 243.938 61.5423H237.68L235.564 73.0261H241.911Z" fill="#592481"/>
<path d="M268.443 62.4844C268.443 45.6016 281.312 32.2324 298.412 32.2324C306.345 32.2324 313.133 35.3176 316.306 39.5169L307.58 47.1442C305.993 44.8303 302.732 42.6021 298.06 42.6021C288.011 42.6021 281.136 51.6005 281.136 61.1989C281.136 67.8834 285.455 73.4539 293.476 73.4539C297.884 73.4539 302.026 71.4828 305.111 68.1405L311.722 75.7678C307.756 80.0528 301.233 83.9093 291.625 83.9093C277.434 83.7379 268.443 75.2536 268.443 62.4844Z" fill="#592481"/>
<path d="M313.75 62.0559C313.75 45.5159 326.178 32.2324 343.543 32.2324C358.704 32.2324 367.871 40.7167 367.871 53.9144C367.871 70.4544 355.707 83.7379 338.254 83.7379C323.005 83.7379 313.75 75.1679 313.75 62.0559ZM355.531 54.7714C355.531 48.0011 350.947 42.4307 342.75 42.4307C332.437 42.4307 326.002 51.6005 326.002 60.9418C326.002 67.712 330.586 73.2825 338.871 73.2825C349.449 73.3682 355.531 64.1984 355.531 54.7714Z" fill="#592481"/>
<path d="M377.479 33.5186H397.136C404.099 33.5186 411.856 36.2609 411.856 44.231C411.856 50.8299 407.449 55.1149 401.102 56.7431V56.9145C406.215 57.7715 410.093 61.628 410.093 67.3699C410.093 77.311 401.102 82.5387 388.586 82.5387H368.488L377.479 33.5186ZM388.409 73.1975C393.698 73.1975 398.37 71.5692 398.37 66.5129C398.37 63.4277 395.814 61.5423 391.23 61.5423H383.561L381.534 73.1975H388.409ZM392.464 53.2295C395.902 53.2295 400.309 51.8583 400.309 47.2305C400.309 43.9739 397.4 42.7741 393.522 42.7741H387.087L385.236 53.3152H392.464V53.2295Z" fill="#592481"/>
<path d="M414.412 62.0559C414.412 45.5159 426.841 32.2324 444.206 32.2324C459.367 32.2324 468.534 40.7167 468.534 53.9144C468.534 70.4544 456.37 83.7379 438.917 83.7379C423.668 83.7379 414.412 75.1679 414.412 62.0559ZM456.193 54.7714C456.193 48.0011 451.61 42.4307 443.412 42.4307C433.099 42.4307 426.665 51.6005 426.665 60.9418C426.665 67.712 431.248 73.2825 439.534 73.2825C450.111 73.3682 456.193 64.1984 456.193 54.7714Z" fill="#592481"/>
<path d="M120.182 36.7733C120.182 17.1481 103.786 1.20801 83.601 1.20801C75.4916 1.20801 67.9992 3.779 61.9171 8.14968C65.9718 6.69279 70.291 5.92148 74.7864 5.92148C95.677 5.92148 112.601 22.4615 112.601 42.858C112.601 51.6851 109.428 59.8265 104.139 66.1683C113.835 59.7408 120.182 48.9427 120.182 36.7733Z" fill="#592481"/>
<path d="M471.707 43.9726C471.707 39.0877 475.762 35.1455 480.874 35.1455C485.899 35.1455 490.041 39.0877 490.041 43.9726C490.041 48.8574 485.987 52.8853 480.874 52.8853C475.674 52.7996 471.707 48.8574 471.707 43.9726ZM487.573 43.9726C487.573 40.0304 484.753 37.4594 480.786 37.4594C476.82 37.4594 473.999 40.0304 473.999 43.9726C473.999 47.9147 476.82 50.5714 480.786 50.5714C484.665 50.4857 487.573 47.9147 487.573 43.9726ZM485.017 48.6003H482.637L480.522 44.6582H479.023V48.6003H476.996V39.3448H481.579C483.607 39.3448 484.841 40.0304 484.841 42.1729C484.841 43.8012 483.871 44.5725 482.725 44.6582L485.017 48.6003ZM481.227 42.8585C482.197 42.8585 483.078 42.8585 483.078 41.8301C483.078 40.9731 482.197 40.9731 481.227 40.9731H479.023V42.7728H481.227V42.8585Z" fill="#592481"/>
<mask id="mask0_979_95811" style="mask-type:luminance" maskUnits="userSpaceOnUse" x="0" y="10" width="109" height="92">
<path d="M53.1904 96.1637C52.9259 96.3351 52.8378 96.5922 52.7497 96.8493C52.7497 97.1064 52.8378 97.3635 53.0141 97.6206C53.3667 98.0491 54.0718 98.1348 54.6007 97.792L88.8895 75.1673L98.9381 68.5684C101.671 65.569 102.905 63.855 104.844 59.4843L53.1904 96.1637ZM35.0323 96.8493C34.7679 97.0207 34.6797 97.2778 34.5916 97.5349C34.5916 97.792 34.5916 98.1348 34.856 98.3062C35.2086 98.8204 35.9138 98.9061 36.4427 98.4776L106.254 54.3423C107.224 51.4285 108.017 47.5721 108.105 44.4012L35.0323 96.8493ZM37.236 83.3945C36.9715 83.5659 36.7952 83.9087 36.7952 84.2515C36.7952 84.5943 36.7952 84.9371 37.0597 85.1942C37.5004 85.7084 38.2056 85.7941 38.7345 85.3656L107.841 39.602C107.753 36.9453 107.4 33.9458 106.166 31.1177L37.236 83.3945ZM1.62504 98.9918C1.09616 99.4203 1.008 100.106 1.44873 100.62C1.71317 100.877 1.97761 101.049 2.33019 101.049C2.68278 101.049 3.03537 101.049 3.2998 100.791L103.962 27.6041C102.905 24.5189 101.054 21.7765 98.3211 19.9768L1.62504 98.9918ZM1.27244 86.3083C0.743569 86.7368 0.655426 87.4223 1.09616 87.9365C1.36059 88.1936 1.62503 88.365 1.97761 88.365C2.3302 88.365 2.68279 88.2794 2.94722 88.108L94.8834 17.1487C92.1509 14.5777 89.8591 13.3779 86.4214 12.6923L1.27244 86.3083ZM73.1113 10.0356C70.5551 11.064 10.5278 67.5401 10.5278 67.5401C10.087 67.8829 9.99889 68.6541 10.3515 69.0826C10.5278 69.3397 10.7922 69.4254 11.1448 69.5111C11.4092 69.5111 11.7618 69.4255 11.9381 69.2541L82.0141 11.4925C79.6341 10.5498 76.9016 10.0356 74.3454 10.0356C73.9928 10.0356 73.5521 10.0356 73.1113 10.0356ZM55.3059 14.6634L46.4913 22.8049L16.4335 50.5715C15.9928 50.9143 15.9047 51.5999 16.2572 52.1141C16.4335 52.3712 16.698 52.4569 16.9624 52.5426C17.2269 52.5426 17.5794 52.5426 17.7557 52.2855L67.8226 10.0356C62.9746 10.8069 59.2724 12.0067 55.3059 14.6634Z" fill="white"/>
</mask>
<g mask="url(#mask0_979_95811)">
<path d="M-44.6517 43.6301L68.3513 -40.5269L153.412 67.4546L40.3209 151.612L-44.6517 43.6301Z" fill="url(#paint0_linear_979_95811)"/>
</g>
<defs>
<linearGradient id="paint0_linear_979_95811" x1="-34.3032" y1="121.508" x2="97.1336" y2="18.0008" gradientUnits="userSpaceOnUse">
<stop stop-color="#FAD0C4"/>
<stop offset="0.0269658" stop-color="#F9C8BC"/>
<stop offset="0.1548" stop-color="#F5A798"/>
<stop offset="0.2902" stop-color="#F18C7B"/>
<stop offset="0.4335" stop-color="#EE7764"/>
<stop offset="0.5884" stop-color="#ED6954"/>
<stop offset="0.7632" stop-color="#EB604B"/>
<stop offset="1" stop-color="#EB5D48"/>
</linearGradient>
</defs>
</svg>
