<svg width="42" height="42" viewBox="0 0 42 42" fill="none" xmlns="http://www.w3.org/2000/svg">
<path d="M36.7563 22.7509V21.0002C36.7563 14.2319 31.2695 8.74511 24.5012 8.74511H22.7505C21.2028 8.74511 19.8915 7.74194 19.4276 6.35011C19.1982 5.65858 18.4857 5.24365 17.7591 5.24365H15.9786C14.8372 5.24365 13.9881 6.3256 14.2734 7.43031C14.8634 9.71852 16.3585 11.6408 18.3509 12.8015C18.8848 13.1132 19.249 13.6384 19.249 14.2564C19.249 16.8807 19.249 23.7769 19.249 23.7769C19.249 25.1442 18.1408 26.2524 16.7735 26.2524C16.1169 26.2524 15.4867 25.9915 15.0227 25.5276L13.6974 24.2023C12.2706 22.7755 10.0612 22.3098 8.07584 23.2219C6.2901 24.0412 5.24316 25.9373 5.24316 27.9016V33.2553C5.24316 34.7049 6.41965 35.8814 7.86926 35.8814C9.31886 35.8814 10.4954 34.7049 10.4954 33.2553V29.7539L14.1824 33.4409C16.306 35.5645 19.1842 36.7568 22.1867 36.7568V36.7568C30.2331 36.7568 36.7563 30.2336 36.7563 22.1872" stroke="white" stroke-width="3" stroke-linecap="round" stroke-linejoin="round"/>
</svg>
