<svg width="122" height="34" viewBox="0 0 122 34" fill="none" xmlns="http://www.w3.org/2000/svg">
<g clip-path="url(#clip0_976_76090)">
<path d="M37.1613 32.5532H36.5705V28.349H36.5486L34.6451 32.5532H33.9668V27.3083H34.5576V31.5125H34.5794L36.483 27.3083H37.1613V32.5532Z" fill="#6D6C6C"/>
<path d="M41.3621 31.1379C41.3621 31.6166 41.2308 31.9704 40.9463 32.1993C40.6619 32.4283 40.3118 32.5532 39.8961 32.5532H38.1895V27.3083H39.7867C40.7932 27.3083 41.2745 27.7038 41.2745 28.4947C41.2745 28.8485 41.2089 29.1399 41.0776 29.3688C40.9463 29.5978 40.7057 29.7226 40.3775 29.7851V29.8059C40.7494 29.8683 40.9901 29.9932 41.1433 30.2221C41.2964 30.4511 41.3621 30.7633 41.3621 31.1379ZM40.6838 28.5987C40.6838 28.4114 40.6619 28.2657 40.5963 28.1617C40.5525 28.0576 40.465 27.9744 40.3556 27.9327C40.2462 27.8911 40.1587 27.8495 40.0493 27.8287C39.9617 27.8079 39.8305 27.8079 39.6992 27.8079H38.7583V29.5561H39.5023C39.918 29.5561 40.2243 29.4937 40.3993 29.348C40.5963 29.2023 40.6838 28.9526 40.6838 28.5987ZM40.7494 31.0963C40.7494 30.7008 40.6619 30.4303 40.4869 30.2846C40.3118 30.1389 39.9836 30.0556 39.5241 30.0556H38.7802V32.0537H39.7867C40.4212 32.0537 40.7494 31.7415 40.7494 31.0963Z" fill="#6D6C6C"/>
<path d="M45.5637 30.451C45.5637 31.2003 45.4324 31.7622 45.1698 32.1368C44.9073 32.5115 44.4697 32.6988 43.8133 32.6988C43.2006 32.6988 42.763 32.5115 42.5224 32.1368C42.2817 31.7622 42.1504 31.2211 42.1504 30.5134V29.4728C42.1504 28.7444 42.2817 28.1824 42.5442 27.787C42.8068 27.3915 43.2444 27.2042 43.9008 27.2042C44.2509 27.2042 44.5353 27.2458 44.7541 27.3707C44.9729 27.4748 45.148 27.6205 45.2574 27.8286C45.3668 28.0367 45.4543 28.2657 45.498 28.5154C45.5418 28.7652 45.5637 29.0566 45.5637 29.4104V30.451ZM44.9729 30.2013V29.4728C44.9729 29.2231 44.951 28.9941 44.9292 28.8068C44.9073 28.6195 44.8635 28.4322 44.7979 28.2449C44.7322 28.0575 44.6228 27.9119 44.4697 27.8286C44.3165 27.7245 44.1415 27.6829 43.9008 27.6829C43.6601 27.6829 43.4413 27.7245 43.2882 27.8494C43.135 27.9535 43.0037 28.0992 42.9381 28.3073C42.8724 28.5154 42.8068 28.7027 42.7849 28.9109C42.763 29.0982 42.7412 29.3479 42.7412 29.6393V30.2845C42.7412 30.5134 42.7412 30.7008 42.7412 30.8465C42.7412 30.9921 42.763 31.1586 42.8068 31.346C42.8506 31.5333 42.9162 31.679 42.9818 31.8038C43.0694 31.9079 43.1788 32.012 43.3319 32.0952C43.4851 32.1785 43.6601 32.2201 43.8789 32.2201C44.054 32.2201 44.2071 32.1993 44.3384 32.1368C44.4697 32.0744 44.5572 31.9912 44.6447 31.8871C44.7104 31.783 44.776 31.6582 44.8198 31.5541C44.8635 31.45 44.9073 31.3043 44.9073 31.117C44.9292 30.9297 44.9292 30.784 44.951 30.68C44.951 30.5551 44.9729 30.4094 44.9729 30.2013Z" fill="#6D6C6C"/>
<path d="M49.3257 31.0338C49.3257 32.1577 48.8662 32.6988 47.9254 32.6988C46.8532 32.6988 46.3281 31.9912 46.3281 30.5759V29.6809C46.3281 29.4312 46.3281 29.2231 46.35 29.0357C46.3719 28.8692 46.3938 28.6611 46.4156 28.453C46.4594 28.2449 46.5032 28.0784 46.5907 27.9327C46.6563 27.8078 46.7657 27.6621 46.8751 27.558C46.9845 27.4332 47.1377 27.3499 47.3127 27.2875C47.4878 27.225 47.7066 27.2042 47.9472 27.2042C48.4286 27.2042 48.8006 27.3291 48.9975 27.5997C49.1944 27.8702 49.3257 28.2657 49.3257 28.8068H48.7349C48.7349 28.0575 48.4724 27.7037 47.9254 27.7037C47.7503 27.7037 47.5972 27.7454 47.4878 27.8078C47.3784 27.8702 47.269 27.9743 47.2033 28.0784C47.1377 28.1824 47.072 28.3489 47.0502 28.5571C47.0064 28.7652 46.9845 28.9733 46.9845 29.1814C46.9845 29.3896 46.9626 29.6601 46.9626 30.0139C46.9626 30.3053 46.9626 30.5551 46.9845 30.7424C46.9845 30.9297 47.0064 31.117 47.0502 31.3251C47.0939 31.5333 47.1377 31.679 47.2033 31.783C47.269 31.8871 47.3565 31.9912 47.4878 32.0536C47.5972 32.1368 47.7503 32.1577 47.9254 32.1577C48.4724 32.1577 48.7568 31.7622 48.7568 31.013H49.3257V31.0338Z" fill="#6D6C6C"/>
<path d="M53.3957 32.5532H52.8049V28.349H52.783L50.8794 32.5532H50.2012V27.3083H50.7919V31.5125H50.8138L52.7174 27.3083H53.3957V32.5532Z" fill="#6D6C6C"/>
<path d="M58.2979 33.8227H57.7071V32.574H54.622V33.8227H54.0312V32.0537H54.4032C54.6001 31.7831 54.7533 31.4917 54.8846 31.1587C54.994 30.8257 55.0815 30.4303 55.1253 29.9724C55.169 29.5145 55.1909 29.1607 55.2128 28.8901C55.2128 28.6196 55.2347 28.2241 55.2347 27.7038C55.2347 27.5789 55.2347 27.4749 55.2347 27.3916V27.3083H57.8603V32.0537H58.2979V33.8227ZM57.2695 32.0537V27.8079H55.7817V27.9119C55.7817 30.0348 55.5191 31.4085 55.0159 32.0537H57.2695Z" fill="#6D6C6C"/>
<path d="M62.302 30.9713C62.302 31.5125 62.1707 31.9287 61.8862 32.2409C61.6018 32.5531 61.208 32.6988 60.6391 32.6988C60.3328 32.6988 60.0702 32.6572 59.8514 32.5531C59.6326 32.449 59.4576 32.3242 59.3263 32.1785C59.195 32.0328 59.1075 31.8247 59.0418 31.5541C58.9762 31.2835 58.9324 31.0338 58.9106 30.784C58.8887 30.5343 58.8887 30.2429 58.8887 29.8683C58.8887 29.5561 58.9106 29.2855 58.9324 29.0357C58.9543 28.786 59.02 28.557 59.0856 28.3073C59.1731 28.0784 59.2606 27.8702 59.3919 27.7245C59.5232 27.558 59.6764 27.454 59.8952 27.3499C60.114 27.2459 60.3546 27.2042 60.6391 27.2042C61.2736 27.2042 61.7112 27.4123 61.9519 27.787C62.1707 28.1824 62.302 28.7444 62.302 29.452V30.0348H59.5232V30.3678C59.5232 30.6175 59.5451 30.8256 59.567 31.013C59.5888 31.2003 59.6326 31.3876 59.7201 31.5749C59.7858 31.7622 59.917 31.9079 60.0702 32.012C60.2234 32.116 60.4203 32.1577 60.661 32.1577C61.011 32.1577 61.2736 32.0536 61.4486 31.8247C61.6237 31.6165 61.7112 31.3043 61.7112 30.9505H62.302V30.9713ZM61.7112 29.5561C61.7112 29.3687 61.7112 29.2231 61.7112 29.119C61.7112 29.0149 61.6893 28.8692 61.6674 28.7027C61.6456 28.5362 61.6237 28.3906 61.558 28.2865C61.4924 28.1824 61.4486 28.0784 61.383 27.9743C61.3174 27.8702 61.208 27.787 61.0767 27.7454C60.9454 27.7037 60.7922 27.6621 60.6391 27.6621C59.917 27.6621 59.5451 28.2032 59.5451 29.2647V29.5353H61.7112V29.5561Z" fill="#6D6C6C"/>
<path d="M66.3714 32.5532H65.7807V30.0556H63.8115V32.5532H63.2207V27.3083H63.8115V29.5561H65.7807V27.3083H66.3714V32.5532Z" fill="#6D6C6C"/>
<path d="M70.6164 32.5532H70.0256V28.349H70.0037L68.1002 32.5532H67.4219V27.3083H68.0126V31.5125H68.0345L69.9381 27.3083H70.6164V32.5532Z" fill="#6D6C6C"/>
<path d="M74.9266 30.5343C74.9266 31.2627 74.7734 31.8039 74.4671 32.1577C74.1608 32.5115 73.7669 32.678 73.2418 32.678C72.7167 32.678 72.301 32.5115 71.9946 32.1993C71.6883 31.8871 71.5352 31.3044 71.5352 30.4927V29.1398C71.5352 28.2241 71.6008 27.5164 71.7102 27.0586C71.8415 26.5799 72.0165 26.2469 72.2353 26.0387C72.476 25.8306 72.8261 25.6849 73.3293 25.5601C73.7669 25.456 74.0295 25.3519 74.1389 25.2687C74.2045 25.2062 74.2264 25.1438 74.2483 25.0605H74.8609C74.8609 25.2062 74.839 25.3311 74.7734 25.4352C74.7078 25.5392 74.6421 25.6433 74.5546 25.7057C74.4671 25.7682 74.3577 25.8306 74.2045 25.8931C74.0514 25.9555 73.9201 25.9971 73.8107 26.0179C73.7013 26.0387 73.57 26.0804 73.3731 26.122C72.8698 26.2261 72.5416 26.4342 72.3447 26.7464C72.1697 27.0378 72.0384 27.5373 71.9728 28.2449H71.9946C72.2572 27.6621 72.6948 27.3708 73.3512 27.3708C73.6575 27.3708 73.942 27.4332 74.1608 27.5789C74.3796 27.7038 74.5327 27.8911 74.6421 28.0992C74.7296 28.3073 74.7953 28.5155 74.839 28.7236C74.8828 28.9109 74.8828 29.119 74.8828 29.3272V30.5343H74.9266ZM74.3358 29.8267C74.3358 29.0358 74.2483 28.5155 74.0732 28.2449C73.8982 27.9743 73.6356 27.8495 73.2856 27.8495C72.5198 27.8495 72.1259 28.5155 72.1259 29.8267C72.1259 30.7424 72.2134 31.346 72.3666 31.679C72.5198 31.9912 72.8261 32.1577 73.2637 32.1577C73.6794 32.1577 73.9638 31.9912 74.117 31.679C74.2483 31.346 74.3358 30.7424 74.3358 29.8267Z" fill="#6D6C6C"/>
<path d="M81.0301 27.8079H79.6298V32.5532H79.039V27.8079H77.6387V27.3083H81.0301V27.8079Z" fill="#6D6C6C"/>
<path d="M84.7934 32.5531H84.2026V31.8455C83.8525 32.3658 83.393 32.6364 82.8023 32.6364C82.3866 32.6364 82.0584 32.4907 81.7958 32.2201C81.5551 31.9495 81.4238 31.5749 81.4238 31.0962C81.4238 30.2429 81.7958 29.7226 82.5616 29.5353C82.8241 29.4728 83.0429 29.4312 83.218 29.4104C83.393 29.3896 83.6994 29.3896 84.1588 29.3896V28.7444C84.1588 28.0575 83.8306 27.7037 83.1961 27.7037C82.8898 27.7037 82.6491 27.787 82.4741 27.9327C82.299 28.0784 82.2115 28.3073 82.2115 28.5779V28.5987H81.577C81.5989 28.1408 81.752 27.787 82.0583 27.558C82.3647 27.3291 82.7366 27.2042 83.218 27.2042C83.6556 27.2042 84.0057 27.3083 84.2901 27.5164C84.4433 27.6205 84.5308 27.7454 84.6183 27.9327C84.7058 28.12 84.7277 28.2657 84.7496 28.3906C84.7496 28.5154 84.7715 28.7027 84.7715 28.9317V31.45L84.7934 32.116V32.5531ZM84.1807 30.2845C84.1807 30.2429 84.1807 30.0972 84.1807 29.8683C84.1151 29.8683 84.0494 29.8683 83.9838 29.8683C83.3055 29.8683 82.8023 29.9723 82.4741 30.1804C82.2115 30.3469 82.0583 30.6383 82.0583 31.0754C82.0583 31.4084 82.1459 31.679 82.299 31.8663C82.4522 32.0536 82.671 32.1577 82.9554 32.1577C83.3274 32.1577 83.6337 31.9912 83.8963 31.6582C84.0276 31.5125 84.0932 31.3251 84.1369 31.1378C84.1588 30.9297 84.1807 30.6591 84.1807 30.2845Z" fill="#6D6C6C"/>
<path d="M89.0828 30.5343C89.0828 31.2627 88.9296 31.8039 88.6233 32.1577C88.317 32.5115 87.9232 32.678 87.398 32.678C86.8729 32.678 86.4572 32.5115 86.1509 32.1993C85.8446 31.8871 85.6914 31.3044 85.6914 30.4927V29.1398C85.6914 28.2241 85.757 27.5164 85.8664 27.0586C85.9977 26.5799 86.1728 26.2469 86.3916 26.0387C86.6322 25.8306 86.9823 25.6849 87.4856 25.5601C87.9232 25.456 88.1857 25.3519 88.2951 25.2687C88.3608 25.2062 88.3826 25.1438 88.4045 25.0605H89.0172C89.0172 25.2062 88.9953 25.3311 88.9296 25.4352C88.864 25.5392 88.7984 25.6433 88.7108 25.7057C88.6233 25.7682 88.5139 25.8306 88.3608 25.8931C88.2076 25.9555 88.0763 25.9971 87.9669 26.0179C87.8575 26.0387 87.7262 26.0804 87.5293 26.122C87.0261 26.2261 86.6979 26.4342 86.501 26.7464C86.3259 27.0378 86.1946 27.5373 86.129 28.2449H86.1509C86.4134 27.6621 86.851 27.3708 87.5074 27.3708C87.8138 27.3708 88.0982 27.4332 88.317 27.5789C88.5358 27.7038 88.689 27.8911 88.7984 28.0992C88.8859 28.3073 88.9515 28.5155 88.9953 28.7236C89.039 28.9109 89.039 29.119 89.039 29.3272V30.5343H89.0828ZM88.492 29.8267C88.492 29.0358 88.4045 28.5155 88.2295 28.2449C88.0544 27.9743 87.7919 27.8495 87.4418 27.8495C86.676 27.8495 86.2822 28.5155 86.2822 29.8267C86.2822 30.7424 86.3697 31.346 86.5228 31.679C86.676 31.9912 86.9823 32.1577 87.4199 32.1577C87.8356 32.1577 88.1201 31.9912 88.2732 31.679C88.4264 31.346 88.492 30.7424 88.492 29.8267Z" fill="#6D6C6C"/>
<path d="M93.2622 32.5532H92.6714V27.8079H91.0961V28.8693C91.0961 30.8049 90.921 31.9496 90.5928 32.3034C90.4178 32.4907 90.1771 32.5948 89.8708 32.5948C89.6958 32.5948 89.5645 32.574 89.4551 32.5532V32.012C89.4988 32.0328 89.5864 32.0328 89.6958 32.0328C89.6958 32.0328 89.7176 32.0328 89.7395 32.0328C89.7614 32.0328 89.7833 32.0328 89.8052 32.0328C89.827 32.0328 89.827 32.0328 89.8708 32.0328C89.9146 32.0328 89.9146 32.0328 89.9364 32.0328C89.9583 32.0328 89.9802 32.012 90.0021 32.012C90.024 32.012 90.0458 31.9912 90.0677 31.9912C90.0896 31.9704 90.1115 31.9496 90.1334 31.9496C90.1552 31.9288 90.1771 31.908 90.199 31.8663C90.2209 31.8455 90.2428 31.8039 90.2646 31.7831C90.3522 31.6166 90.4178 31.346 90.4616 30.9298C90.5053 30.5135 90.5272 30.1805 90.5272 29.8891C90.5272 29.6186 90.5272 29.1607 90.5272 28.5571V27.3083H93.2622V32.5532Z" fill="#6D6C6C"/>
<path d="M97.6164 30.9713C97.6164 31.5125 97.4851 31.9287 97.2007 32.2409C96.9163 32.5531 96.5224 32.6988 95.9535 32.6988C95.6472 32.6988 95.3847 32.6572 95.1659 32.5531C94.9471 32.449 94.772 32.3242 94.6407 32.1785C94.5094 32.0328 94.4219 31.8247 94.3563 31.5541C94.2906 31.2835 94.2469 31.0338 94.225 30.784C94.2031 30.5343 94.2031 30.2429 94.2031 29.8683C94.2031 29.5561 94.225 29.2855 94.2469 29.0357C94.2688 28.786 94.3344 28.557 94.4001 28.3073C94.4876 28.0784 94.5751 27.8702 94.7064 27.7245C94.8376 27.558 94.9908 27.454 95.2096 27.3499C95.4284 27.2459 95.6691 27.2042 95.9535 27.2042C96.588 27.2042 97.0256 27.4123 97.2663 27.787C97.4851 28.1824 97.6164 28.7444 97.6164 29.452V30.0348H94.8377V30.3678C94.8377 30.6175 94.8595 30.8256 94.8814 31.013C94.9033 31.2003 94.947 31.3876 95.0346 31.5749C95.1002 31.7622 95.2096 31.9079 95.3847 32.012C95.5378 32.116 95.7347 32.1577 95.9754 32.1577C96.3255 32.1577 96.588 32.0536 96.7631 31.8247C96.9381 31.5957 97.0257 31.3043 97.0257 30.9505H97.6164V30.9713ZM97.0257 29.5561C97.0257 29.3687 97.0257 29.2231 97.0257 29.119C97.0257 29.0149 97.0038 28.8692 96.9819 28.7027C96.96 28.5362 96.9381 28.3906 96.8725 28.2865C96.8068 28.1824 96.7631 28.0784 96.6975 27.9743C96.6318 27.8702 96.5224 27.787 96.3911 27.7454C96.2598 27.7037 96.1067 27.6621 95.9535 27.6621C95.2315 27.6621 94.8595 28.2032 94.8595 29.2647V29.5353H97.0257V29.5561Z" fill="#6D6C6C"/>
<path d="M101.511 27.8079H100.11V32.5532H99.5195V27.8079H98.1191V27.3083H101.511V27.8079Z" fill="#6D6C6C"/>
<path d="M105.47 32.5532H104.726L102.779 29.8059H102.757V32.5532H102.166V27.3083H102.757V29.7434H102.779L104.66 27.3083H105.339L103.413 29.7643L105.47 32.5532Z" fill="#6D6C6C"/>
<path d="M109.321 32.5532H108.731V28.349H108.709L106.805 32.5532H106.127V27.3083H106.718V31.5125H106.74L108.643 27.3083H109.321V32.5532Z" fill="#6D6C6C"/>
<path d="M36.2645 10.5541H32.7637L33.2232 8.13977H43.0692L42.6316 10.5541H39.1964L37.446 20.0239H34.5141L36.2645 10.5541Z" fill="#592481"/>
<path d="M44.5126 8.13977H47.4008L45.9567 15.9654H46.0223L52.28 8.13977H55.3651L53.1552 20.0239H50.2671L51.6893 12.3856H51.6455L45.4316 20.0239H42.3027L44.5126 8.13977Z" fill="#592481"/>
<path d="M57.313 8.13989H65.8462L65.4305 10.4709H59.8292L59.4135 12.7187H60.967C63.877 12.7187 65.4961 13.9467 65.4961 15.9655C65.4961 18.796 63.33 20.0032 60.0042 20.0032H55.125L57.313 8.13989ZM60.048 17.7346C61.5358 17.7346 62.4767 17.3391 62.4767 16.2152C62.4767 15.237 61.7109 14.9457 60.5512 14.9457H58.9978L58.4726 17.7346H60.048Z" fill="#592481"/>
<path d="M66.6348 15.1745C66.6348 11.0744 69.8292 7.82764 74.074 7.82764C76.0432 7.82764 77.7279 8.5769 78.5156 9.59672L76.3495 11.4491C75.9557 10.8871 75.1461 10.346 73.9865 10.346C71.4921 10.346 69.7855 12.5313 69.7855 14.8623C69.7855 16.4857 70.8576 17.8386 72.8487 17.8386C73.9427 17.8386 74.9711 17.3599 75.7369 16.5482L77.3779 18.4005C76.3933 19.4412 74.7741 20.3777 72.3892 20.3777C68.8665 20.3361 66.6348 18.2756 66.6348 15.1745Z" fill="#592481"/>
<path d="M77.8809 15.0705C77.8809 11.0536 80.9659 7.82764 85.2763 7.82764C89.0397 7.82764 91.3152 9.8881 91.3152 13.0933C91.3152 17.1101 88.2957 20.3361 83.9635 20.3361C80.1783 20.3361 77.8809 18.2548 77.8809 15.0705ZM88.252 13.3014C88.252 11.6572 87.1142 10.3044 85.0794 10.3044C82.5194 10.3044 80.9222 12.5313 80.9222 14.7999C80.9222 16.4441 82.0599 17.7969 84.1167 17.7969C86.7423 17.8178 88.252 15.5908 88.252 13.3014Z" fill="#592481"/>
<path d="M93.7005 8.13989H98.5798C100.308 8.13989 102.234 8.8059 102.234 10.7415C102.234 12.3441 101.14 13.3847 99.5644 13.7801V13.8218C100.833 14.0299 101.796 14.9665 101.796 16.3609C101.796 18.7752 99.5644 20.0448 96.4574 20.0448H91.4688L93.7005 8.13989ZM96.4136 17.7762C97.7264 17.7762 98.8861 17.3808 98.8861 16.1528C98.8861 15.4035 98.2516 14.9457 97.1138 14.9457H95.2102L94.707 17.7762H96.4136ZM97.4201 12.9268C98.2734 12.9268 99.3674 12.5938 99.3674 11.4699C99.3674 10.679 98.6454 10.3877 97.6827 10.3877H96.0854L95.626 12.9476H97.4201V12.9268Z" fill="#592481"/>
<path d="M102.867 15.0705C102.867 11.0536 105.952 7.82764 110.263 7.82764C114.026 7.82764 116.302 9.8881 116.302 13.0933C116.302 17.1101 113.282 20.3361 108.95 20.3361C105.165 20.3361 102.867 18.2548 102.867 15.0705ZM113.238 13.3014C113.238 11.6572 112.101 10.3044 110.066 10.3044C107.506 10.3044 105.909 12.5313 105.909 14.7999C105.909 16.4441 107.046 17.7969 109.103 17.7969C111.729 17.8178 113.238 15.5908 113.238 13.3014Z" fill="#592481"/>
<path d="M29.8318 8.93075C29.8318 4.16463 25.7622 0.293457 20.7516 0.293457C18.7387 0.293457 16.8789 0.917841 15.3691 1.97929C16.3756 1.62547 17.4477 1.43816 18.5636 1.43816C23.7492 1.43816 27.9502 5.45502 27.9502 10.4085C27.9502 12.5522 27.1625 14.5294 25.8497 16.0695C28.2565 14.5086 29.8318 11.8862 29.8318 8.93075Z" fill="#592481"/>
<path d="M117.09 10.679C117.09 9.49267 118.096 8.53528 119.365 8.53528C120.613 8.53528 121.641 9.49267 121.641 10.679C121.641 11.8653 120.634 12.8435 119.365 12.8435C118.074 12.8227 117.09 11.8653 117.09 10.679ZM121.028 10.679C121.028 9.72161 120.328 9.09722 119.343 9.09722C118.359 9.09722 117.659 9.72161 117.659 10.679C117.659 11.6364 118.359 12.2816 119.343 12.2816C120.306 12.2608 121.028 11.6364 121.028 10.679ZM120.394 11.8029H119.803L119.278 10.8455H118.906V11.8029H118.403V9.5551H119.54C120.044 9.5551 120.35 9.7216 120.35 10.2419C120.35 10.6374 120.109 10.8247 119.825 10.8455L120.394 11.8029ZM119.453 10.4084C119.694 10.4084 119.912 10.4084 119.912 10.1587C119.912 9.95055 119.694 9.95055 119.453 9.95055H118.906V10.3876H119.453V10.4084Z" fill="#592481"/>
<mask id="mask0_976_76090" style="mask-type:luminance" maskUnits="userSpaceOnUse" x="0" y="2" width="27" height="23">
<path d="M13.2023 23.354C13.1367 23.3956 13.1148 23.458 13.0929 23.5205C13.0929 23.5829 13.1148 23.6453 13.1586 23.7078C13.2461 23.8118 13.4211 23.8326 13.5524 23.7494L22.0637 18.2548L24.558 16.6522C25.2363 15.9238 25.5426 15.5075 26.024 14.4461L13.2023 23.354ZM8.69503 23.5205C8.62939 23.5621 8.60751 23.6245 8.58563 23.687C8.58563 23.7494 8.58563 23.8326 8.65127 23.8743C8.73879 23.9991 8.91383 24.02 9.04511 23.9159L26.3741 13.1973C26.6148 12.4897 26.8117 11.5531 26.8336 10.783L8.69503 23.5205ZM9.24203 20.2529C9.17639 20.2945 9.13263 20.3777 9.13263 20.461C9.13263 20.5442 9.13263 20.6275 9.19827 20.6899C9.30767 20.8148 9.48271 20.8356 9.61399 20.7315L26.7679 9.61753C26.746 8.97234 26.6585 8.24389 26.3522 7.55707L9.24203 20.2529ZM0.4025 24.0408C0.27122 24.1448 0.249337 24.3113 0.358737 24.4362C0.424377 24.4987 0.490018 24.5403 0.577538 24.5403C0.665058 24.5403 0.752579 24.5403 0.818219 24.4778L25.8052 6.70375C25.5426 5.95449 25.0832 5.28848 24.4049 4.85141L0.4025 24.0408ZM0.314978 20.9605C0.183698 21.0645 0.161819 21.231 0.271219 21.3559C0.336859 21.4184 0.402499 21.46 0.490019 21.46C0.577539 21.46 0.66506 21.4392 0.7307 21.3976L23.5516 4.16459C22.8733 3.54021 22.3044 3.24883 21.4511 3.08233L0.314978 20.9605ZM18.1472 2.43713C17.5127 2.68689 2.61238 16.4025 2.61238 16.4025C2.50298 16.4857 2.4811 16.6731 2.56862 16.7771C2.61238 16.8396 2.67802 16.8604 2.76554 16.8812C2.83118 16.8812 2.9187 16.8604 2.96246 16.8187L20.3571 2.79095C19.7663 2.56201 19.088 2.43713 18.4535 2.43713C18.366 2.43713 18.2566 2.43713 18.1472 2.43713ZM13.7274 3.56102L11.5394 5.53823L4.07834 12.2816C3.96894 12.3648 3.94706 12.5313 4.03458 12.6562C4.07834 12.7186 4.14398 12.7394 4.20962 12.7603C4.27526 12.7603 4.36278 12.7603 4.40654 12.6978L16.8344 2.43713C15.631 2.62445 14.712 2.91583 13.7274 3.56102Z" fill="white"/>
</mask>
<g mask="url(#mask0_976_76090)">
<path d="M-11.084 10.5957L16.9662 -9.84241L38.0804 16.3817L10.0084 36.8198L-11.084 10.5957Z" fill="url(#paint0_linear_976_76090)"/>
</g>
<path d="M112.386 32.6364H110.789V32.3659L111.883 30.576C112.014 30.3678 112.08 30.1597 112.08 29.9724C112.08 29.6602 111.905 29.4937 111.577 29.4937C111.424 29.4937 111.292 29.5353 111.205 29.6394C111.117 29.7435 111.074 29.8892 111.074 30.0557V30.0973H110.789V30.0348C110.789 29.7851 110.855 29.577 111.008 29.4313C111.139 29.2856 111.336 29.2231 111.577 29.2231C111.817 29.2231 111.992 29.2856 112.146 29.3896C112.299 29.5145 112.364 29.681 112.364 29.91C112.364 30.1597 112.277 30.4511 112.08 30.7633L111.095 32.3451H112.386V32.6364Z" fill="#6D6C6C"/>
<path d="M114.334 31.138C114.355 31.2629 114.355 31.3877 114.355 31.5542C114.355 31.7207 114.334 31.8664 114.312 31.9913C114.29 32.1162 114.246 32.2411 114.18 32.3451C114.115 32.4492 114.027 32.5324 113.918 32.5949C113.808 32.6573 113.677 32.6781 113.502 32.6781C113.261 32.6781 113.086 32.6157 112.933 32.47C112.802 32.3451 112.736 32.137 112.736 31.8872V31.8248H113.021V31.8664C113.021 32.2411 113.196 32.4284 113.524 32.4284C113.721 32.4284 113.852 32.3659 113.918 32.2202C114.005 32.0954 114.027 31.8664 114.027 31.5334C114.027 31.4085 114.027 31.3253 114.005 31.242C114.005 31.1588 113.983 31.0755 113.94 30.9923C113.918 30.909 113.852 30.8466 113.787 30.805C113.721 30.7633 113.612 30.7425 113.502 30.7425C113.371 30.7425 113.261 30.7842 113.174 30.8466C113.086 30.909 113.021 30.9923 112.999 31.0964H112.736L112.78 29.2856H114.202V29.5562H113.065L113.043 30.7425C113.174 30.5968 113.371 30.5136 113.59 30.5136C113.743 30.5136 113.874 30.5344 113.983 30.5968C114.093 30.6385 114.159 30.7217 114.224 30.8258C114.29 30.9299 114.334 31.0339 114.334 31.138Z" fill="#6D6C6C"/>
<path d="M116.281 31.5334C116.281 31.6999 116.281 31.8455 116.259 31.9704C116.237 32.0953 116.193 32.2202 116.15 32.3242C116.106 32.4491 116.018 32.5324 115.887 32.5948C115.756 32.6572 115.624 32.6781 115.449 32.6781C115.296 32.6781 115.165 32.6572 115.056 32.5948C114.946 32.5324 114.859 32.4491 114.815 32.3451C114.771 32.241 114.727 32.1161 114.705 31.9912C114.684 31.8664 114.684 31.7207 114.684 31.575V30.4095C114.684 30.243 114.684 30.0973 114.705 29.9724C114.727 29.8475 114.771 29.7226 114.815 29.5978C114.859 29.4729 114.946 29.3896 115.077 29.3272C115.187 29.2648 115.34 29.2231 115.493 29.2231C115.668 29.2231 115.799 29.244 115.909 29.3064C116.018 29.3688 116.106 29.4313 116.15 29.5561C116.193 29.6602 116.237 29.7851 116.259 29.91C116.281 30.0348 116.281 30.1805 116.281 30.3678V31.5334ZM115.996 31.5334V30.4303C115.996 30.4303 115.996 30.4095 115.996 30.3887C115.996 30.2638 115.996 30.1805 115.996 30.1181C115.996 30.0557 115.975 29.9724 115.975 29.8891C115.953 29.7851 115.931 29.7226 115.887 29.6602C115.843 29.6186 115.799 29.5561 115.734 29.5353C115.668 29.5145 115.581 29.4729 115.471 29.4729C115.362 29.4729 115.252 29.4937 115.187 29.5561C115.121 29.6186 115.056 29.681 115.034 29.7851C115.012 29.8891 114.99 29.9724 114.968 30.0765C114.968 30.1597 114.946 30.2638 114.946 30.3887V31.3877C114.946 31.3877 114.946 31.4085 114.946 31.4293C114.946 31.5334 114.946 31.5958 114.946 31.6582C114.946 31.7207 114.946 31.7831 114.968 31.8664C114.968 31.9496 114.99 32.0329 115.012 32.0745C115.034 32.1161 115.056 32.1786 115.099 32.241C115.143 32.3034 115.187 32.3451 115.252 32.3659C115.318 32.3867 115.384 32.4075 115.471 32.4075C115.559 32.4075 115.646 32.3867 115.712 32.3451C115.778 32.3034 115.821 32.2618 115.865 32.1994C115.909 32.1369 115.931 32.0745 115.953 31.9912C115.975 31.908 115.996 31.8247 115.996 31.7623C115.996 31.7207 115.996 31.6374 115.996 31.5334Z" fill="#6D6C6C"/>
<path d="M119.87 32.6364H119.607V30.6592H119.586L118.951 32.6364H118.667L118.054 30.6592H118.032V32.6364H117.77V30.2222H118.163L118.82 32.2826H118.842L119.498 30.2222H119.892V32.6364H119.87Z" fill="#6D6C6C"/>
<path d="M121.62 30.4511H120.657V32.6364H120.395V30.2222H121.62V30.4511Z" fill="#6D6C6C"/>
</g>
<defs>
<linearGradient id="paint0_linear_976_76090" x1="-8.51521" y1="29.5089" x2="23.5619" y2="3.68965" gradientUnits="userSpaceOnUse">
<stop stop-color="#FAD0C4"/>
<stop offset="0.0269658" stop-color="#F9C8BC"/>
<stop offset="0.1548" stop-color="#F5A798"/>
<stop offset="0.2902" stop-color="#F18C7B"/>
<stop offset="0.4335" stop-color="#EE7764"/>
<stop offset="0.5884" stop-color="#ED6954"/>
<stop offset="0.7632" stop-color="#EB604B"/>
<stop offset="1" stop-color="#EB5D48"/>
</linearGradient>
<clipPath id="clip0_976_76090">
<rect width="122" height="34" fill="white"/>
</clipPath>
</defs>
</svg>
