<svg width="43" height="43" viewBox="0 0 43 43" fill="none" xmlns="http://www.w3.org/2000/svg">
<path fill-rule="evenodd" clip-rule="evenodd" d="M27.8178 14.0061H14.2007C12.1593 14.0061 10.5049 12.3516 10.5049 10.3103V8.94823C10.5049 6.90688 12.1593 5.25244 14.2007 5.25244H27.8178C29.8592 5.25244 31.5136 6.90688 31.5136 8.94823V10.3103C31.5136 12.3516 29.8592 14.0061 27.8178 14.0061Z" stroke="white" stroke-width="3" stroke-linecap="round" stroke-linejoin="round"/>
<path fill-rule="evenodd" clip-rule="evenodd" d="M27.7196 36.7658H14.2985C11.2364 36.7658 8.75391 34.2833 8.75391 31.2213V19.5492C8.75391 16.4889 11.2364 14.0063 14.2985 14.0063H27.7213C30.7816 14.0063 33.2641 16.4889 33.2641 19.5509V31.223C33.2641 34.2833 30.7816 36.7658 27.7196 36.7658Z" stroke="white" stroke-width="3" stroke-linecap="round" stroke-linejoin="round"/>
<path d="M21.0092 21.9824V29.374" stroke="white" stroke-width="3" stroke-linecap="round" stroke-linejoin="round"/>
<path d="M24.7051 25.6781H17.3135" stroke="white" stroke-width="3" stroke-linecap="round" stroke-linejoin="round"/>
<path d="M21.0092 9.27219V10.1651" stroke="white" stroke-width="3" stroke-linecap="round" stroke-linejoin="round"/>
<path d="M16.1947 9.27219V10.1651" stroke="white" stroke-width="3" stroke-linecap="round" stroke-linejoin="round"/>
<path d="M25.8236 9.27219V10.1651" stroke="white" stroke-width="3" stroke-linecap="round" stroke-linejoin="round"/>
</svg>
