<svg width="42" height="42" viewBox="0 0 42 42" fill="none" xmlns="http://www.w3.org/2000/svg">
<path d="M6.9942 33.2551C6.98651 31.4056 7.71381 29.6287 9.01615 28.3154C10.3185 27.0021 12.0892 26.2599 13.9388 26.2522C13.9582 26.2522 13.9777 26.2522 13.9972 26.2522H18.0433" stroke="#E74C39" stroke-width="3" stroke-linecap="round" stroke-linejoin="round"/>
<path fill-rule="evenodd" clip-rule="evenodd" d="M22.7506 28.8616C22.8355 30.6135 23.5339 32.2796 24.7237 33.5683C25.6739 34.672 26.8078 35.6033 28.0753 36.3208C29.179 36.9366 30.5316 36.8967 31.5972 36.2171C32.746 35.4827 33.7789 34.5813 34.662 33.5423C35.8737 32.2667 36.6127 30.6151 36.7566 28.8616C36.7648 27.8184 36.3748 26.8113 35.6659 26.0459C34.9847 25.3037 34.0259 24.8776 33.0185 24.8694C31.7536 24.7809 30.5312 25.345 29.7777 26.3648L29.7537 26.4L29.7294 26.3648C29.0438 25.3999 27.923 24.8393 26.7397 24.8694C25.6758 24.8513 24.6501 25.2662 23.898 26.019C23.1458 26.7717 22.7317 27.7977 22.7506 28.8616Z" stroke="#E74C39" stroke-width="3" stroke-linecap="round" stroke-linejoin="round"/>
<circle cx="20.9992" cy="12.6843" r="7.4406" stroke="#E74C39" stroke-width="3" stroke-linecap="round" stroke-linejoin="round"/>
</svg>
