<svg width="260" height="83" viewBox="0 0 260 83" fill="none" xmlns="http://www.w3.org/2000/svg">
<rect x="118.687" y="11.3137" width="16" height="16" rx="2" transform="rotate(-45 118.687 11.3137)" fill="#87A9E2"/>
<rect y="10.6274" width="260" height="72" rx="12" fill="#87A9E2"/>
<g clip-path="url(#clip0_976_73105)">
<path d="M132.705 28.1636C132.565 28.1651 132.427 28.1696 132.288 28.1743C130.961 28.2204 129.682 28.4178 128.512 28.7839C126.243 29.4942 124.381 30.7811 123.233 32.866C124.22 38.8031 127.224 43.1951 131.496 44.8703C135.794 46.556 141.559 45.5894 148.291 40.2352L148.557 40.0257C148.721 39.4012 148.778 38.7938 148.745 38.2021C148.709 38.2163 148.674 38.2322 148.638 38.2451C147.531 38.6369 146.232 38.5189 144.999 37.8987C142.533 36.6584 141.036 33.8743 141.698 31.389C141.793 31.0337 141.938 30.6937 142.128 30.3792C141.158 29.8925 140.123 29.4726 139.05 29.1359C136.985 28.487 134.793 28.1409 132.705 28.1636ZM120.08 28.6846C118.276 28.7181 116.542 29.5213 115.256 30.8223C113.627 32.4703 112.686 34.8645 113.253 37.5174C114.571 36.1912 116.278 35.2298 118.246 34.8049L118.654 34.523L121.672 32.4255C122.211 31.379 122.9 30.4799 123.705 29.7237C122.509 28.9731 121.275 28.6623 120.08 28.6844L120.08 28.6846ZM145.356 30.2072C145.067 30.2102 144.798 30.2597 144.558 30.3442C143.92 30.5694 143.457 31.0274 143.25 31.8026C142.837 33.3542 143.915 35.556 145.721 36.4647C146.624 36.9189 147.467 36.9557 148.103 36.7305C148.74 36.5053 149.202 36.0456 149.408 35.2696C149.822 33.7178 148.745 31.5177 146.94 30.61C146.491 30.384 146.055 30.2588 145.651 30.2207C145.553 30.2111 145.455 30.2066 145.356 30.2072ZM134.112 31.4184C135.747 31.4165 137.243 32.3663 137.579 33.9268C137.975 35.7677 136.548 37.4985 134.601 37.9175C132.653 38.3364 130.641 37.3443 130.245 35.5031C129.849 33.6624 131.275 31.9314 133.223 31.5125C133.466 31.4601 133.711 31.4306 133.953 31.4212C134.006 31.4192 134.059 31.4186 134.112 31.4186L134.112 31.4184ZM134.203 33.0217C133.987 33.0171 133.772 33.0378 133.561 33.0836C132.325 33.3494 131.635 34.3365 131.813 35.1648C131.991 35.9931 133.026 36.6123 134.262 36.3464C135.499 36.0806 136.186 35.0907 136.008 34.2625C135.862 33.583 135.14 33.0461 134.203 33.0217ZM121.863 34.2489L120.176 35.4199C122.268 39.1954 122.431 43.217 121.033 46.205C119.649 49.1632 116.606 51.0276 112.794 50.408L112.547 51.5062C115.857 52.1786 117.575 53.9873 118.074 56.0824C118.573 58.1788 118.033 60.3866 117.451 62.1706L118.452 63.2474C119.935 56.6964 124.465 53.5937 128.741 53.9689C133.132 54.3542 137.012 58.3972 136.881 64.9878L137.968 64.8159C137.778 59.3112 138.401 55.083 140.084 51.6943C141.77 48.3015 144.515 45.805 148.318 43.7208L148.157 42.3566C141.588 47.1895 135.593 48.2023 130.911 46.3662C126.284 44.552 123.103 40.0474 121.863 34.249L121.863 34.2489ZM118.839 36.3142C116.19 36.7931 114.143 38.3893 112.979 40.5573C111.747 42.8535 111.514 45.7963 112.778 48.7751C116.137 49.4591 118.419 48.0076 119.58 45.5254C120.707 43.1168 120.647 39.6585 118.839 36.314V36.3142ZM148.673 45.351C145.284 47.2734 142.986 49.4654 141.524 52.4086C139.953 55.5708 139.338 59.6712 139.588 65.31C140.893 65.2704 142.171 64.899 143.382 64.2572C145.417 63.1793 147.237 61.3247 148.514 59.0554C150.761 55.0628 151.33 49.8721 148.673 45.351ZM125.695 46.0895C126.482 46.0848 127.212 46.2868 127.809 46.6829C128.604 47.2111 129.133 48.1189 129.133 49.1429C129.133 51.1884 127.344 52.9052 125.171 53.2894C124.086 53.4813 123.05 53.2968 122.255 52.7683C121.46 52.24 120.934 51.3328 120.934 50.3084C120.934 48.2596 122.721 46.5458 124.892 46.1619C125.157 46.1152 125.426 46.0909 125.695 46.0894V46.0895ZM125.701 47.6953C125.533 47.6962 125.356 47.711 125.171 47.7437C123.692 48.0052 122.54 49.2846 122.54 50.3084C122.54 50.8202 122.747 51.1675 123.144 51.4309C123.54 51.6943 124.153 51.8382 124.892 51.7076C126.369 51.4463 127.524 50.1599 127.524 49.1428C127.524 48.6317 127.316 48.2836 126.92 48.0202C126.622 47.8227 126.203 47.6928 125.701 47.6953ZM111.44 52.9324C110.918 53.3519 110.512 53.888 110.21 54.4982C109.607 55.7193 109.471 57.2483 109.829 58.5962C110.187 59.944 111.006 61.0884 112.302 61.7007C113.195 62.1224 114.349 62.305 115.804 62.0606C116.397 60.3164 116.912 58.1394 116.511 56.4557C116.105 54.7542 114.958 53.3927 111.473 52.9377L111.443 52.9324H111.44ZM127.903 55.5454C124.463 55.6056 120.81 58.3332 119.803 64.6897C120.817 66.4021 122.783 67.8792 125.166 68.5758C128.372 69.5127 132.176 69.0735 135.226 66.0378L135.24 65.8685C135.762 59.3075 132.297 55.894 128.601 55.5695C128.369 55.5494 128.136 55.5414 127.903 55.5455L127.903 55.5454Z" fill="white"/>
</g>
<defs>
<clipPath id="clip0_976_73105">
<rect width="44" height="44" fill="white" transform="translate(108 24.6274)"/>
</clipPath>
</defs>
</svg>
