<svg width="666" height="900" viewBox="0 0 666 900" fill="none" xmlns="http://www.w3.org/2000/svg">
<path d="M962.945 -118.247L21.5348 648.728C9.64146 658.418 7.85497 675.914 17.5446 687.808L20.0019 690.824C29.6915 702.717 47.188 704.504 59.0813 694.814L1000.49 -72.1611C1012.39 -81.8507 1014.17 -99.3472 1004.48 -111.241L1002.02 -114.257C992.335 -126.15 974.839 -127.937 962.945 -118.247Z" fill="url(#paint0_linear_644_14718)"/>
<path d="M205.807 694.814L1147.22 -72.1612C1159.11 -81.8508 1160.9 -99.3473 1151.21 -111.241L1148.75 -114.257C1139.06 -126.15 1121.56 -127.937 1109.67 -118.247L168.261 648.728C156.367 658.418 154.581 675.914 164.27 687.808L166.728 690.824C176.417 702.717 193.914 704.504 205.807 694.814Z" fill="url(#paint1_linear_644_14718)"/>
<path d="M1299.76 -157.26L358.348 609.715C346.455 619.405 344.668 636.901 354.358 648.795L356.815 651.811C366.505 663.704 384.001 665.491 395.895 655.801L1337.31 -111.174C1349.2 -120.864 1350.99 -138.36 1341.3 -150.253L1338.84 -153.27C1329.15 -165.163 1311.65 -166.949 1299.76 -157.26Z" fill="url(#paint2_linear_644_14718)"/>
<path d="M570.095 747.038L1511.51 -19.9368C1523.4 -29.6264 1525.19 -47.1229 1515.5 -59.0162L1513.04 -62.0325C1503.35 -73.9258 1485.85 -75.7123 1473.96 -66.0227L532.548 700.953C520.655 710.642 518.868 728.139 528.558 740.032L531.015 743.048C540.705 754.942 558.201 756.728 570.095 747.038Z" fill="url(#paint3_linear_644_14718)"/>
<path d="M317.688 835.702L1259.1 68.7265C1270.99 59.0369 1272.78 41.5404 1263.09 29.647L1260.63 26.6309C1250.94 14.7375 1233.45 12.951 1221.55 22.6407L280.141 789.616C268.248 799.306 266.462 816.802 276.151 828.695L278.608 831.712C288.298 843.605 305.795 845.391 317.688 835.702Z" fill="url(#paint4_linear_644_14718)"/>
<path d="M1456.95 66.0527L515.535 833.028C503.641 842.718 501.855 860.214 511.545 872.107L514.002 875.123C523.691 887.017 541.188 888.803 553.081 879.114L1494.49 112.139C1506.39 102.449 1508.17 84.9523 1498.48 73.059L1496.02 70.0428C1486.34 58.1495 1468.84 56.3631 1456.95 66.0527Z" fill="url(#paint5_linear_644_14718)"/>
<path d="M1575.92 313.144L634.513 1080.12C622.619 1089.81 620.833 1107.31 630.523 1119.2L632.98 1122.21C642.67 1134.11 660.166 1135.89 672.059 1126.2L1613.47 359.23C1625.36 349.54 1627.15 332.044 1617.46 320.15L1615 317.134C1605.31 305.241 1587.82 303.454 1575.92 313.144Z" fill="url(#paint6_linear_644_14718)"/>
<path d="M380.606 662.197C398.411 662.197 412.845 647.762 412.845 629.957C412.845 612.151 398.411 597.717 380.606 597.717C362.8 597.717 348.366 612.151 348.366 629.957C348.366 647.762 362.8 662.197 380.606 662.197Z" fill="#E74C39"/>
<path d="M1076.46 -335.687L135.046 431.288C123.152 440.978 121.366 458.474 131.055 470.368L133.513 473.384C143.202 485.277 160.699 487.064 172.592 477.374L1114 -289.601C1125.9 -299.291 1127.68 -316.787 1117.99 -328.681L1115.54 -331.697C1105.85 -343.59 1088.35 -345.377 1076.46 -335.687Z" fill="url(#paint7_linear_644_14718)"/>
<path d="M157.275 483.749C175.081 483.749 189.515 469.314 189.515 451.509C189.515 433.704 175.081 419.269 157.275 419.269C139.47 419.269 125.036 433.704 125.036 451.509C125.036 469.314 139.47 483.749 157.275 483.749Z" fill="#E74C39"/>
<path d="M190.488 701.187C208.293 701.187 222.727 686.753 222.727 668.947C222.727 651.142 208.293 636.708 190.488 636.708C172.682 636.708 158.248 651.142 158.248 668.947C158.248 686.753 172.682 701.187 190.488 701.187Z" fill="#61279E"/>
<path d="M59.0816 445.114L1000.49 -321.862C1012.39 -331.551 1014.17 -349.048 1004.48 -360.941L1002.02 -363.957C992.335 -375.851 974.839 -377.637 962.946 -367.947L21.5351 399.028C9.64169 408.717 7.85515 426.214 17.5448 438.107L20.0021 441.123C29.6917 453.017 47.1882 454.803 59.0816 445.114Z" fill="url(#paint8_linear_644_14718)"/>
<path d="M43.7645 451.509C61.57 451.509 76.0041 437.075 76.0041 419.27C76.0041 401.464 61.57 387.03 43.7645 387.03C25.9591 387.03 11.5249 401.464 11.5249 419.27C11.5249 437.075 25.9591 451.509 43.7645 451.509Z" fill="#6A19A4"/>
<path d="M554.787 753.436C572.592 753.436 587.027 739.001 587.027 721.196C587.027 703.39 572.592 688.956 554.787 688.956C536.981 688.956 522.547 703.39 522.547 721.196C522.547 739.001 536.981 753.436 554.787 753.436Z" fill="#61279E"/>
<path d="M537.76 885.486C555.566 885.486 570 871.052 570 853.247C570 835.441 555.566 821.007 537.76 821.007C519.955 821.007 505.521 835.441 505.521 853.247C505.521 871.052 519.955 885.486 537.76 885.486Z" fill="#E74C39"/>
<path d="M302.341 842.079C320.147 842.079 334.581 827.645 334.581 809.84C334.581 792.034 320.147 777.6 302.341 777.6C284.536 777.6 270.102 792.034 270.102 809.84C270.102 827.645 284.536 842.079 302.341 842.079Z" fill="#87A9E2"/>
<path d="M43.7889 701.18C61.5944 701.18 76.0285 686.746 76.0285 668.94C76.0285 651.135 61.5944 636.701 43.7889 636.701C25.9835 636.701 11.5493 651.135 11.5493 668.94C11.5493 686.746 25.9835 701.18 43.7889 701.18Z" fill="#87A9E2"/>
<defs>
<linearGradient id="paint0_linear_644_14718" x1="1003.25" y1="-112.749" x2="18.7732" y2="689.316" gradientUnits="userSpaceOnUse">
<stop stop-color="#8DABDF"/>
<stop offset="0.48" stop-color="#90ADE0" stop-opacity="0.99"/>
<stop offset="0.66" stop-color="#9BB5E3" stop-opacity="0.95"/>
<stop offset="0.78" stop-color="#AEC4E8" stop-opacity="0.88"/>
<stop offset="0.88" stop-color="#CAD8F0" stop-opacity="0.79"/>
<stop offset="0.97" stop-color="#EDF2FA" stop-opacity="0.66"/>
<stop offset="1" stop-color="white" stop-opacity="0.6"/>
</linearGradient>
<linearGradient id="paint1_linear_644_14718" x1="165.477" y1="689.334" x2="1149.96" y2="-112.731" gradientUnits="userSpaceOnUse">
<stop stop-color="white" stop-opacity="0.6"/>
<stop offset="0.02" stop-color="#F3EDF8" stop-opacity="0.63"/>
<stop offset="0.08" stop-color="#CFB4E2" stop-opacity="0.73"/>
<stop offset="0.14" stop-color="#AF84CE" stop-opacity="0.81"/>
<stop offset="0.22" stop-color="#965CBF" stop-opacity="0.88"/>
<stop offset="0.31" stop-color="#823EB3" stop-opacity="0.94"/>
<stop offset="0.42" stop-color="#7429AA" stop-opacity="0.97"/>
<stop offset="0.57" stop-color="#6C1CA5" stop-opacity="0.99"/>
<stop offset="1" stop-color="#6A19A4"/>
</linearGradient>
<linearGradient id="paint2_linear_644_14718" x1="1340.09" y1="-151.78" x2="355.609" y2="650.285" gradientUnits="userSpaceOnUse">
<stop stop-color="#E74C39"/>
<stop offset="0.46" stop-color="#E34E3C" stop-opacity="0.99"/>
<stop offset="0.63" stop-color="#DF5F50" stop-opacity="0.96"/>
<stop offset="0.75" stop-color="#D97266" stop-opacity="0.9"/>
<stop offset="0.84" stop-color="#E8A095" stop-opacity="0.83"/>
<stop offset="0.93" stop-color="#F2CAC4" stop-opacity="0.73"/>
<stop offset="1" stop-color="white" stop-opacity="0.6"/>
</linearGradient>
<linearGradient id="paint3_linear_644_14718" x1="529.764" y1="741.558" x2="1514.24" y2="-60.5063" gradientUnits="userSpaceOnUse">
<stop stop-color="white" stop-opacity="0.6"/>
<stop offset="0.02" stop-color="#F3EDF8" stop-opacity="0.63"/>
<stop offset="0.08" stop-color="#CFB4E2" stop-opacity="0.73"/>
<stop offset="0.14" stop-color="#AF84CE" stop-opacity="0.81"/>
<stop offset="0.22" stop-color="#965CBF" stop-opacity="0.88"/>
<stop offset="0.31" stop-color="#823EB3" stop-opacity="0.94"/>
<stop offset="0.42" stop-color="#7429AA" stop-opacity="0.97"/>
<stop offset="0.57" stop-color="#6C1CA5" stop-opacity="0.99"/>
<stop offset="1" stop-color="#6A19A4"/>
</linearGradient>
<linearGradient id="paint4_linear_644_14718" x1="277.38" y1="830.203" x2="1261.86" y2="28.139" gradientUnits="userSpaceOnUse">
<stop stop-color="white" stop-opacity="0.6"/>
<stop offset="0.03" stop-color="#EDF2FA" stop-opacity="0.66"/>
<stop offset="0.12" stop-color="#CAD8F0" stop-opacity="0.79"/>
<stop offset="0.22" stop-color="#AEC4E8" stop-opacity="0.88"/>
<stop offset="0.34" stop-color="#9BB5E3" stop-opacity="0.95"/>
<stop offset="0.52" stop-color="#90ADE0" stop-opacity="0.99"/>
<stop offset="1" stop-color="#8DABDF"/>
</linearGradient>
<linearGradient id="paint5_linear_644_14718" x1="1497.28" y1="71.5329" x2="512.795" y2="873.597" gradientUnits="userSpaceOnUse">
<stop stop-color="#E74C39"/>
<stop offset="0.46" stop-color="#E34E3C" stop-opacity="0.99"/>
<stop offset="0.63" stop-color="#DF5F50" stop-opacity="0.96"/>
<stop offset="0.75" stop-color="#D97266" stop-opacity="0.9"/>
<stop offset="0.84" stop-color="#E8A095" stop-opacity="0.83"/>
<stop offset="0.93" stop-color="#F2CAC4" stop-opacity="0.73"/>
<stop offset="1" stop-color="white" stop-opacity="0.6"/>
</linearGradient>
<linearGradient id="paint6_linear_644_14718" x1="1616.23" y1="318.642" x2="631.751" y2="1120.71" gradientUnits="userSpaceOnUse">
<stop stop-color="#6A19A4"/>
<stop offset="0.43" stop-color="#6C1CA5" stop-opacity="0.99"/>
<stop offset="0.58" stop-color="#7429AA" stop-opacity="0.97"/>
<stop offset="0.69" stop-color="#823EB3" stop-opacity="0.94"/>
<stop offset="0.78" stop-color="#965CBF" stop-opacity="0.88"/>
<stop offset="0.86" stop-color="#AF84CE" stop-opacity="0.81"/>
<stop offset="0.92" stop-color="#CFB4E2" stop-opacity="0.73"/>
<stop offset="0.98" stop-color="#F3EDF8" stop-opacity="0.63"/>
<stop offset="1" stop-color="white" stop-opacity="0.6"/>
</linearGradient>
<linearGradient id="paint7_linear_644_14718" x1="1116.79" y1="-330.207" x2="132.306" y2="471.858" gradientUnits="userSpaceOnUse">
<stop stop-color="#E74C39"/>
<stop offset="0.46" stop-color="#E34E3C" stop-opacity="0.99"/>
<stop offset="0.63" stop-color="#DF5F50" stop-opacity="0.96"/>
<stop offset="0.75" stop-color="#D97266" stop-opacity="0.9"/>
<stop offset="0.84" stop-color="#E8A095" stop-opacity="0.83"/>
<stop offset="0.93" stop-color="#F2CAC4" stop-opacity="0.73"/>
<stop offset="1" stop-color="white" stop-opacity="0.6"/>
</linearGradient>
<linearGradient id="paint8_linear_644_14718" x1="18.7513" y1="439.633" x2="1003.23" y2="-362.431" gradientUnits="userSpaceOnUse">
<stop stop-color="white" stop-opacity="0.6"/>
<stop offset="0.02" stop-color="#F3EDF8" stop-opacity="0.63"/>
<stop offset="0.08" stop-color="#CFB4E2" stop-opacity="0.73"/>
<stop offset="0.14" stop-color="#AF84CE" stop-opacity="0.81"/>
<stop offset="0.22" stop-color="#965CBF" stop-opacity="0.88"/>
<stop offset="0.31" stop-color="#823EB3" stop-opacity="0.94"/>
<stop offset="0.42" stop-color="#7429AA" stop-opacity="0.97"/>
<stop offset="0.57" stop-color="#6C1CA5" stop-opacity="0.99"/>
<stop offset="1" stop-color="#6A19A4"/>
</linearGradient>
</defs>
</svg>
