<svg width="122" height="195" viewBox="0 0 122 195" fill="none" xmlns="http://www.w3.org/2000/svg">
<path d="M322.164 -165.498L80.5294 31.3637C77.4767 33.8508 77.0181 38.3416 79.5052 41.3943L80.1359 42.1685C82.623 45.2212 87.1138 45.6798 90.1665 43.1927L331.801 -153.669C334.854 -156.156 335.312 -160.647 332.825 -163.7L332.195 -164.474C329.707 -167.527 325.217 -167.985 322.164 -165.498Z" fill="url(#paint0_linear_2008_7456)"/>
<path d="M64.1661 95.1868L305.801 -101.675C308.853 -104.162 309.312 -108.653 306.825 -111.706L306.194 -112.48C303.707 -115.532 299.216 -115.991 296.164 -113.504L54.529 83.3578C51.4763 85.8448 51.0177 90.3357 53.5048 93.3884L54.1355 94.1626C56.6226 97.2153 61.1134 97.6738 64.1661 95.1868Z" fill="url(#paint1_linear_2008_7456)"/>
<path d="M267.17 -59.5044L25.5352 137.357C22.4825 139.844 22.024 144.335 24.511 147.388L25.1418 148.162C27.6288 151.215 32.1197 151.673 35.1724 149.186L276.807 -47.6754C279.86 -50.1625 280.318 -54.6533 277.831 -57.706L277.2 -58.4802C274.713 -61.5329 270.222 -61.9914 267.17 -59.5044Z" fill="url(#paint2_linear_2008_7456)"/>
<path d="M71.1701 181.191L312.805 -15.6702C315.857 -18.1573 316.316 -22.6482 313.829 -25.7009L313.198 -26.475C310.711 -29.5277 306.22 -29.9863 303.167 -27.4992L61.5329 169.363C58.4802 171.85 58.0216 176.34 60.5087 179.393L61.1394 180.167C63.6265 183.22 68.1174 183.679 71.1701 181.191Z" fill="url(#paint3_linear_2008_7456)"/>
<path d="M79.1681 144.188L320.803 -52.6743C323.855 -55.1613 324.314 -59.6522 321.827 -62.7049L321.196 -63.4791C318.709 -66.5318 314.218 -66.9903 311.166 -64.5032L69.5309 132.359C66.4782 134.846 66.0197 139.336 68.5067 142.389L69.1375 143.163C71.6245 146.216 76.1154 146.675 79.1681 144.188Z" fill="url(#paint4_linear_2008_7456)"/>
<path d="M343.164 -30.4973L101.529 166.364C98.4767 168.852 98.0181 173.342 100.505 176.395L101.136 177.169C103.623 180.222 108.114 180.68 111.167 178.193L352.801 -18.6683C355.854 -21.1554 356.312 -25.6463 353.825 -28.699L353.195 -29.4731C350.707 -32.5258 346.217 -32.9844 343.164 -30.4973Z" fill="url(#paint5_linear_2008_7456)"/>
<path d="M31.2477 150.828C35.8179 150.828 39.5227 147.123 39.5227 142.553C39.5227 137.983 35.8179 134.278 31.2477 134.278C26.6775 134.278 22.9727 137.983 22.9727 142.553C22.9727 147.123 26.6775 150.828 31.2477 150.828Z" fill="#E74C39"/>
<path d="M292.164 -173.497L50.5294 23.3647C47.4767 25.8518 47.0181 30.3426 49.5052 33.3953L50.1359 34.1695C52.623 37.2222 57.1138 37.6807 60.1665 35.1937L301.801 -161.668C304.854 -164.155 305.312 -168.646 302.825 -171.699L302.195 -172.473C299.707 -175.526 295.217 -175.984 292.164 -173.497Z" fill="url(#paint6_linear_2008_7456)"/>
<path d="M56.236 36.8299C60.8061 36.8299 64.511 33.125 64.511 28.5548C64.511 23.9847 60.8061 20.2798 56.236 20.2798C51.6658 20.2798 47.9609 23.9847 47.9609 28.5548C47.9609 33.125 51.6658 36.8299 56.236 36.8299Z" fill="#E74C39"/>
<path d="M60.2438 96.813C64.814 96.813 68.5188 93.1081 68.5188 88.538C68.5188 83.9678 64.814 80.2629 60.2438 80.2629C55.6736 80.2629 51.9688 83.9678 51.9688 88.538C51.9688 93.1081 55.6736 96.813 60.2438 96.813Z" fill="#61279E"/>
<path d="M15.1642 41.1926L256.799 -155.669C259.851 -158.156 260.31 -162.647 257.823 -165.7L257.192 -166.474C254.705 -169.527 250.214 -169.985 247.162 -167.498L5.52703 29.3636C2.47434 31.8507 2.01579 36.3416 4.50285 39.3943L5.13358 40.1684C7.62064 43.2211 12.1115 43.6797 15.1642 41.1926Z" fill="url(#paint7_linear_2008_7456)"/>
<path d="M11.2477 42.8379C15.8179 42.8379 19.5227 39.133 19.5227 34.5629C19.5227 29.9927 15.8179 26.2878 11.2477 26.2878C6.67752 26.2878 2.97266 29.9927 2.97266 34.5629C2.97266 39.133 6.67752 42.8379 11.2477 42.8379Z" fill="#6A19A4"/>
<path d="M67.2535 182.818C71.8237 182.818 75.5286 179.113 75.5286 174.543C75.5286 169.973 71.8237 166.268 67.2535 166.268C62.6834 166.268 58.9785 169.973 58.9785 174.543C58.9785 179.113 62.6834 182.818 67.2535 182.818Z" fill="#61279E"/>
<path d="M107.234 179.829C111.804 179.829 115.509 176.124 115.509 171.554C115.509 166.984 111.804 163.279 107.234 163.279C102.664 163.279 98.959 166.984 98.959 171.554C98.959 176.124 102.664 179.829 107.234 179.829Z" fill="#E74C39"/>
<path d="M75.2399 145.815C79.8101 145.815 83.5149 142.11 83.5149 137.54C83.5149 132.97 79.8101 129.265 75.2399 129.265C70.6697 129.265 66.9648 132.97 66.9648 137.54C66.9648 142.11 70.6697 145.815 75.2399 145.815Z" fill="#87A9E2"/>
<path d="M86.2418 44.8264C90.812 44.8264 94.5169 41.1216 94.5169 36.5514C94.5169 31.9812 90.812 28.2764 86.2418 28.2764C81.6717 28.2764 77.9668 31.9812 77.9668 36.5514C77.9668 41.1216 81.6717 44.8264 86.2418 44.8264Z" fill="#87A9E2"/>
<defs>
<linearGradient id="paint0_linear_2008_7456" x1="332.51" y1="-164.087" x2="79.8205" y2="41.7814" gradientUnits="userSpaceOnUse">
<stop stop-color="#8DABDF"/>
<stop offset="0.48" stop-color="#90ADE0" stop-opacity="0.99"/>
<stop offset="0.66" stop-color="#9BB5E3" stop-opacity="0.95"/>
<stop offset="0.78" stop-color="#AEC4E8" stop-opacity="0.88"/>
<stop offset="0.88" stop-color="#CAD8F0" stop-opacity="0.79"/>
<stop offset="0.97" stop-color="#EDF2FA" stop-opacity="0.66"/>
<stop offset="1" stop-color="white" stop-opacity="0.6"/>
</linearGradient>
<linearGradient id="paint1_linear_2008_7456" x1="53.8145" y1="93.7801" x2="306.504" y2="-112.088" gradientUnits="userSpaceOnUse">
<stop stop-color="white" stop-opacity="0.6"/>
<stop offset="0.02" stop-color="#F3EDF8" stop-opacity="0.63"/>
<stop offset="0.08" stop-color="#CFB4E2" stop-opacity="0.73"/>
<stop offset="0.14" stop-color="#AF84CE" stop-opacity="0.81"/>
<stop offset="0.22" stop-color="#965CBF" stop-opacity="0.88"/>
<stop offset="0.31" stop-color="#823EB3" stop-opacity="0.94"/>
<stop offset="0.42" stop-color="#7429AA" stop-opacity="0.97"/>
<stop offset="0.57" stop-color="#6C1CA5" stop-opacity="0.99"/>
<stop offset="1" stop-color="#6A19A4"/>
</linearGradient>
<linearGradient id="paint2_linear_2008_7456" x1="277.521" y1="-58.0978" x2="24.8321" y2="147.77" gradientUnits="userSpaceOnUse">
<stop stop-color="#E74C39"/>
<stop offset="0.46" stop-color="#E34E3C" stop-opacity="0.99"/>
<stop offset="0.63" stop-color="#DF5F50" stop-opacity="0.96"/>
<stop offset="0.75" stop-color="#D97266" stop-opacity="0.9"/>
<stop offset="0.84" stop-color="#E8A095" stop-opacity="0.83"/>
<stop offset="0.93" stop-color="#F2CAC4" stop-opacity="0.73"/>
<stop offset="1" stop-color="white" stop-opacity="0.6"/>
</linearGradient>
<linearGradient id="paint3_linear_2008_7456" x1="60.8184" y1="179.785" x2="313.508" y2="-26.0833" gradientUnits="userSpaceOnUse">
<stop stop-color="white" stop-opacity="0.6"/>
<stop offset="0.02" stop-color="#F3EDF8" stop-opacity="0.63"/>
<stop offset="0.08" stop-color="#CFB4E2" stop-opacity="0.73"/>
<stop offset="0.14" stop-color="#AF84CE" stop-opacity="0.81"/>
<stop offset="0.22" stop-color="#965CBF" stop-opacity="0.88"/>
<stop offset="0.31" stop-color="#823EB3" stop-opacity="0.94"/>
<stop offset="0.42" stop-color="#7429AA" stop-opacity="0.97"/>
<stop offset="0.57" stop-color="#6C1CA5" stop-opacity="0.99"/>
<stop offset="1" stop-color="#6A19A4"/>
</linearGradient>
<linearGradient id="paint4_linear_2008_7456" x1="68.8221" y1="142.776" x2="321.511" y2="-63.092" gradientUnits="userSpaceOnUse">
<stop stop-color="white" stop-opacity="0.6"/>
<stop offset="0.03" stop-color="#EDF2FA" stop-opacity="0.66"/>
<stop offset="0.12" stop-color="#CAD8F0" stop-opacity="0.79"/>
<stop offset="0.22" stop-color="#AEC4E8" stop-opacity="0.88"/>
<stop offset="0.34" stop-color="#9BB5E3" stop-opacity="0.95"/>
<stop offset="0.52" stop-color="#90ADE0" stop-opacity="0.99"/>
<stop offset="1" stop-color="#8DABDF"/>
</linearGradient>
<linearGradient id="paint5_linear_2008_7456" x1="353.516" y1="-29.0907" x2="100.826" y2="176.778" gradientUnits="userSpaceOnUse">
<stop stop-color="#E74C39"/>
<stop offset="0.46" stop-color="#E34E3C" stop-opacity="0.99"/>
<stop offset="0.63" stop-color="#DF5F50" stop-opacity="0.96"/>
<stop offset="0.75" stop-color="#D97266" stop-opacity="0.9"/>
<stop offset="0.84" stop-color="#E8A095" stop-opacity="0.83"/>
<stop offset="0.93" stop-color="#F2CAC4" stop-opacity="0.73"/>
<stop offset="1" stop-color="white" stop-opacity="0.6"/>
</linearGradient>
<linearGradient id="paint6_linear_2008_7456" x1="302.516" y1="-172.09" x2="49.8262" y2="33.7778" gradientUnits="userSpaceOnUse">
<stop stop-color="#E74C39"/>
<stop offset="0.46" stop-color="#E34E3C" stop-opacity="0.99"/>
<stop offset="0.63" stop-color="#DF5F50" stop-opacity="0.96"/>
<stop offset="0.75" stop-color="#D97266" stop-opacity="0.9"/>
<stop offset="0.84" stop-color="#E8A095" stop-opacity="0.83"/>
<stop offset="0.93" stop-color="#F2CAC4" stop-opacity="0.73"/>
<stop offset="1" stop-color="white" stop-opacity="0.6"/>
</linearGradient>
<linearGradient id="paint7_linear_2008_7456" x1="4.81252" y1="39.786" x2="257.502" y2="-166.082" gradientUnits="userSpaceOnUse">
<stop stop-color="white" stop-opacity="0.6"/>
<stop offset="0.02" stop-color="#F3EDF8" stop-opacity="0.63"/>
<stop offset="0.08" stop-color="#CFB4E2" stop-opacity="0.73"/>
<stop offset="0.14" stop-color="#AF84CE" stop-opacity="0.81"/>
<stop offset="0.22" stop-color="#965CBF" stop-opacity="0.88"/>
<stop offset="0.31" stop-color="#823EB3" stop-opacity="0.94"/>
<stop offset="0.42" stop-color="#7429AA" stop-opacity="0.97"/>
<stop offset="0.57" stop-color="#6C1CA5" stop-opacity="0.99"/>
<stop offset="1" stop-color="#6A19A4"/>
</linearGradient>
</defs>
</svg>
