<svg width="43" height="43" viewBox="0 0 43 43" fill="none" xmlns="http://www.w3.org/2000/svg">
<path d="M21.0092 10.5041V5.25195" stroke="white" stroke-width="3" stroke-linecap="round" stroke-linejoin="round"/>
<path d="M18.3828 5.25207H23.635" stroke="white" stroke-width="3" stroke-linecap="round" stroke-linejoin="round"/>
<path d="M21.0092 31.5129V36.7651" stroke="white" stroke-width="3" stroke-linecap="round" stroke-linejoin="round"/>
<path d="M23.635 36.7653H18.3828" stroke="white" stroke-width="3" stroke-linecap="round" stroke-linejoin="round"/>
<path d="M28.4375 13.5802L32.1508 9.86694" stroke="white" stroke-width="3" stroke-linecap="round" stroke-linejoin="round"/>
<path d="M30.293 8.00952L34.008 11.7246" stroke="white" stroke-width="3" stroke-linecap="round" stroke-linejoin="round"/>
<path d="M13.5805 28.437L9.86719 32.1503" stroke="white" stroke-width="3" stroke-linecap="round" stroke-linejoin="round"/>
<path d="M11.7248 34.0078L8.00977 30.2927" stroke="white" stroke-width="3" stroke-linecap="round" stroke-linejoin="round"/>
<path d="M31.5137 21.0087H36.7659" stroke="white" stroke-width="3" stroke-linecap="round" stroke-linejoin="round"/>
<circle cx="21.0093" cy="21.0085" r="10.5044" stroke="white" stroke-width="3" stroke-linecap="round" stroke-linejoin="round"/>
<path d="M36.765 18.3826V23.6348" stroke="white" stroke-width="3" stroke-linecap="round" stroke-linejoin="round"/>
<path d="M10.5041 21.0087H5.25195" stroke="white" stroke-width="3" stroke-linecap="round" stroke-linejoin="round"/>
<path d="M5.25232 23.6348V18.3826" stroke="white" stroke-width="3" stroke-linecap="round" stroke-linejoin="round"/>
<path d="M28.4375 28.437L32.1508 32.1503" stroke="white" stroke-width="3" stroke-linecap="round" stroke-linejoin="round"/>
<path d="M34.008 30.2927L30.293 34.0078" stroke="white" stroke-width="3" stroke-linecap="round" stroke-linejoin="round"/>
<path d="M13.5805 13.5802L9.86719 9.86694" stroke="white" stroke-width="3" stroke-linecap="round" stroke-linejoin="round"/>
<path d="M8.00977 11.7246L11.7248 8.00952" stroke="white" stroke-width="3" stroke-linecap="round" stroke-linejoin="round"/>
<path d="M18.3832 25.2978C18.3342 25.2978 18.2956 25.3364 18.2956 25.3854C18.2956 25.4344 18.3342 25.4729 18.3832 25.4729C18.4322 25.4729 18.4707 25.4344 18.4707 25.3854C18.4707 25.3364 18.4322 25.2978 18.3832 25.2978" stroke="white" stroke-width="3" stroke-linecap="round" stroke-linejoin="round"/>
<path d="M15.7562 20.9211C15.7072 20.9211 15.6687 20.9596 15.6687 21.0087C15.6687 21.0577 15.7072 21.0962 15.7562 21.0962C15.8052 21.0962 15.8438 21.0577 15.8438 21.0087C15.8438 20.9596 15.8052 20.9211 15.7562 20.9211" stroke="white" stroke-width="3" stroke-linecap="round" stroke-linejoin="round"/>
<path d="M18.3832 16.5442C18.3342 16.5442 18.2956 16.5827 18.2956 16.6317C18.2956 16.6807 18.3342 16.7192 18.3832 16.7192C18.4322 16.7192 18.4707 16.6807 18.4707 16.6317C18.4707 16.5827 18.4322 16.5442 18.3832 16.5442" stroke="white" stroke-width="3" stroke-linecap="round" stroke-linejoin="round"/>
<path d="M23.6351 16.5442C23.5861 16.5442 23.5476 16.5827 23.5476 16.6317C23.5476 16.6807 23.5861 16.7192 23.6351 16.7192C23.6842 16.7192 23.7227 16.6807 23.7227 16.6317C23.7227 16.5827 23.6842 16.5442 23.6351 16.5442" stroke="white" stroke-width="3" stroke-linecap="round" stroke-linejoin="round"/>
<path d="M26.2611 20.9211C26.2121 20.9211 26.1736 20.9596 26.1736 21.0087C26.1736 21.0577 26.2121 21.0962 26.2611 21.0962C26.3101 21.0962 26.3486 21.0577 26.3486 21.0087C26.3486 20.9596 26.3101 20.9211 26.2611 20.9211" stroke="white" stroke-width="3" stroke-linecap="round" stroke-linejoin="round"/>
<path d="M23.6351 25.2978C23.5861 25.2978 23.5476 25.3364 23.5476 25.3854C23.5476 25.4344 23.5861 25.4729 23.6351 25.4729C23.6842 25.4729 23.7227 25.4344 23.7227 25.3854C23.7227 25.3364 23.6842 25.2978 23.6351 25.2978" stroke="white" stroke-width="3" stroke-linecap="round" stroke-linejoin="round"/>
<path d="M21.0092 20.9211C20.9601 20.9211 20.9216 20.9596 20.9216 21.0087C20.9216 21.0577 20.9601 21.0962 21.0092 21.0962C21.0582 21.0962 21.0967 21.0577 21.0967 21.0087C21.0967 20.9596 21.0582 20.9211 21.0092 20.9211" stroke="white" stroke-width="3" stroke-linecap="round" stroke-linejoin="round"/>
</svg>
