<svg width="42" height="42" viewBox="0 0 42 42" fill="none" xmlns="http://www.w3.org/2000/svg">
<path d="M24.6772 23.459L26.2505 28.0002" stroke="white" stroke-width="3" stroke-linecap="round" stroke-linejoin="round"/>
<path d="M17.3265 23.459L15.7497 28.0002" stroke="white" stroke-width="3" stroke-linecap="round" stroke-linejoin="round"/>
<path d="M36.75 36.75V34.1974C36.75 31.631 34.8946 29.4408 32.3631 29.0188L26.25 28L21 33.25L15.75 28L9.6369 29.0188C7.10542 29.4408 5.25 31.631 5.25 34.1974V36.75" stroke="white" stroke-width="3" stroke-linecap="round" stroke-linejoin="round"/>
<path d="M21 36.75V33.25" stroke="white" stroke-width="3" stroke-linecap="round" stroke-linejoin="round"/>
<path d="M33.25 29.2491V14.875C33.25 8.10951 27.7655 2.625 21 2.625V2.625C14.2345 2.625 8.75 8.10951 8.75 14.875V29.2495" stroke="white" stroke-width="3" stroke-linecap="round" stroke-linejoin="round"/>
<path d="M14 14.0002H17.087C19.4852 14.0001 21.6775 12.6452 22.75 10.5002V10.5L22.9347 10.8695C23.894 12.7881 25.855 14 28 14V14" stroke="white" stroke-width="3" stroke-linecap="round" stroke-linejoin="round"/>
<path d="M27.125 36.3125H30.625" stroke="white" stroke-width="3" stroke-linecap="round" stroke-linejoin="round"/>
<path d="M28 14V17.5C28 21.366 24.866 24.5 21 24.5V24.5C17.134 24.5 14 21.366 14 17.5V14" stroke="white" stroke-width="3" stroke-linecap="round" stroke-linejoin="round"/>
</svg>
