<svg width="322" height="261" viewBox="0 0 322 261" fill="none" xmlns="http://www.w3.org/2000/svg">
<g opacity="0.05">
<path d="M193.908 59.6035C228.899 46.0468 246.274 6.69114 232.718 -28.2997C219.161 -63.2905 179.805 -80.6663 144.815 -67.1096C109.824 -53.5529 92.4479 -14.1974 106.005 20.7935C119.561 55.7843 158.917 73.1602 193.908 59.6035Z" fill="white"/>
<path d="M331.473 172.858C366.464 159.301 383.84 119.946 370.283 84.9549C356.726 49.9641 317.371 32.5884 282.38 46.1451C247.389 59.7018 230.013 99.0573 243.57 134.048C257.127 169.039 296.482 186.415 331.473 172.858Z" fill="white"/>
<path d="M168.556 235.978C203.547 222.421 220.923 183.065 207.366 148.075C193.809 113.084 154.454 95.708 119.463 109.265C84.4721 122.821 67.0963 162.177 80.653 197.168C94.2097 232.159 133.565 249.534 168.556 235.978Z" fill="white"/>
</g>
</svg>
