<svg width="150" height="30" viewBox="0 0 150 30" fill="none" xmlns="http://www.w3.org/2000/svg">
<g clip-path="url(#clip0_976_73356)">
<path d="M58.3971 10.2806C58.9181 6.52774 56.797 3.87109 51.4667 3.87109H41.8572L39.1875 22.8147H44.2596L45.0804 17.0004H48.2113L51.2707 22.8147H57.1406L53.5393 16.18C56.3359 15.0677 57.9959 13.1395 58.3971 10.2806ZM53.2304 10.6989C53.0183 12.195 51.7825 13.0867 49.9197 13.0867H45.6475L46.3392 8.22377H50.5468C52.1699 8.22377 53.4886 8.85806 53.2304 10.6989Z" fill="#151518"/>
<path d="M74.3932 3.87109L68.1775 16.2765L65.4593 3.87109H59.7578L64.7792 22.8147H69.5585L79.9588 3.87109H74.3932Z" fill="#151518"/>
<path d="M79.3203 22.8147H84.427L87.0991 3.87109H81.9901L79.3203 22.8147Z" fill="#151518"/>
<path d="M10.8452 7.40641C12.6896 7.40641 14.3242 8.00163 15.9173 9.10474L18.9491 5.74945C17.1531 4.3223 14.4234 3.32031 11.4262 3.32031C5.95286 3.32031 3.02485 6.04591 2.57296 9.23573C2.14875 12.2233 3.40295 13.8159 8.78174 15.1718C11.9242 15.9647 12.8164 16.3852 12.655 17.47C12.5121 18.4214 11.4561 19.1476 9.1829 19.1476C6.76671 19.1476 5.11135 18.534 3.22773 17.0287L0 20.1473C2.14183 22.0686 5.0099 23.236 8.64571 23.236C15.7928 23.236 17.7825 19.2304 18.0499 17.3505C18.601 13.4689 16.6044 12.3704 11.5023 11.1455C7.89642 10.2791 7.60823 9.82176 7.73964 8.94157C7.89872 7.87753 8.91546 7.40641 10.8452 7.40641Z" fill="#151518"/>
<path d="M140.095 18.1968C139.604 20.2725 138.423 22.1219 136.745 23.4451C135.067 24.7683 132.99 25.4876 130.85 25.4865C128.051 25.4865 126.045 24.0846 124.856 21.8991L121.741 16.179C124.508 15.069 126.193 13.1547 126.599 10.2728C127.127 6.52223 124.999 3.86328 119.682 3.86328H110.068L107.398 22.8069H112.471L113.291 16.9926H116.422L119.516 22.8758C122.389 28.3339 126.223 30.0001 130.85 30.0001C137.778 30.0001 143.872 25.3762 145.054 18.1899L140.095 18.1968ZM121.421 10.698C121.208 12.1941 119.973 13.0857 118.11 13.0857H113.849L114.541 8.22286H118.751C120.372 8.22286 121.69 8.85715 121.432 10.698H121.421Z" fill="#151518"/>
<path d="M20.2578 22.8147H35.4765L36.0644 18.6689H25.6942L26.1968 15.1205H35.4788L36.0045 11.4274H26.7225L27.2089 8.01694H37.4431L38.0334 3.87109H22.9483L20.2578 22.8147Z" fill="#151518"/>
<path d="M88.5859 22.8147H103.805L104.395 18.6689H94.0223L94.5272 15.1205H103.809L104.335 11.4274H95.0529L95.537 8.01694H105.774L106.362 3.87109H91.2787L88.5859 22.8147Z" fill="#151518"/>
<path d="M142.581 0L144.077 3.41274L147.423 1.75578L146.369 5.3294L150 6.20499L146.888 8.26412L149.106 11.2632L145.391 10.8472L145.159 14.5633L142.581 11.8653L140.006 14.5633L139.77 10.8472L136.059 11.2632L138.277 8.26412L135.164 6.20499L138.795 5.3294L137.742 1.75578L141.087 3.41274L142.581 0Z" fill="#EA5C47"/>
</g>
<defs>
<clipPath id="clip0_976_73356">
<rect width="150" height="30" fill="white"/>
</clipPath>
</defs>
</svg>
