<svg width="375" height="128" viewBox="0 0 375 128" fill="none" xmlns="http://www.w3.org/2000/svg">
<g filter="url(#filter0_d_879_7558)">
<g clip-path="url(#clip0_879_7558)">
<path d="M84.4378 93.2764H83.3498V85.3627H83.3095L79.8038 93.2764H78.5547V83.4038H79.6427V91.3176H79.6829L83.1886 83.4038H84.4378V93.2764Z" fill="#6D6C6C"/>
<path d="M92.1758 90.6124C92.1758 91.5134 91.9341 92.1794 91.4102 92.6104C90.8864 93.0413 90.2417 93.2764 89.476 93.2764H86.333V83.4038H89.2746C91.1282 83.4038 92.0146 84.1482 92.0146 85.6369C92.0146 86.3029 91.8938 86.8514 91.652 87.2823C91.4102 87.7133 90.967 87.9483 90.3625 88.0659V88.105C91.0476 88.2226 91.4908 88.4576 91.7729 88.8886C92.0549 89.3195 92.1758 89.9072 92.1758 90.6124ZM90.9267 85.8328C90.9267 85.4802 90.8864 85.206 90.7655 85.0101C90.6849 84.8142 90.5237 84.6575 90.3222 84.5791C90.1208 84.5008 89.9596 84.4224 89.7581 84.3832C89.5969 84.3441 89.3552 84.3441 89.1134 84.3441H87.3807V87.6349H88.7507C89.5163 87.6349 90.0805 87.5174 90.4028 87.2431C90.7655 86.9689 90.9267 86.4988 90.9267 85.8328ZM91.0476 90.534C91.0476 89.7897 90.8864 89.2803 90.564 89.0061C90.2416 88.7319 89.6372 88.5752 88.791 88.5752H87.421V92.3361H89.2746C90.4431 92.3361 91.0476 91.7485 91.0476 90.534Z" fill="#6D6C6C"/>
<path d="M99.9111 89.3201C99.9111 90.7305 99.6693 91.7882 99.1858 92.4934C98.7022 93.1986 97.8963 93.5512 96.6874 93.5512C95.5592 93.5512 94.7533 93.1986 94.31 92.4934C93.8668 91.7882 93.625 90.7696 93.625 89.4376V87.4788C93.625 86.1076 93.8668 85.0498 94.3503 84.3054C94.8339 83.5611 95.6398 83.2085 96.8486 83.2085C97.4933 83.2085 98.0172 83.2868 98.4201 83.5219C98.8231 83.7178 99.1455 83.992 99.3469 84.3838C99.5484 84.7756 99.7096 85.2065 99.7902 85.6766C99.8708 86.1468 99.9111 86.6952 99.9111 87.3613V89.3201ZM98.8231 88.85V87.4788C98.8231 87.0087 98.7828 86.5777 98.7425 86.2251C98.7022 85.8725 98.6216 85.5199 98.5007 85.1673C98.3798 84.8148 98.1784 84.5405 97.8963 84.3838C97.6142 84.1879 97.2919 84.1096 96.8486 84.1096C96.4054 84.1096 96.0024 84.1879 95.7204 84.423C95.4383 84.6189 95.1965 84.8931 95.0756 85.2849C94.9547 85.6766 94.8339 86.0292 94.7936 86.421C94.7533 86.7736 94.713 87.2437 94.713 87.7922V89.0067C94.713 89.4376 94.713 89.7902 94.713 90.0645C94.713 90.3387 94.7533 90.6521 94.8339 91.0047C94.9144 91.3573 95.0353 91.6315 95.1562 91.8666C95.3174 92.0625 95.5189 92.2584 95.8009 92.4151C96.083 92.5718 96.4054 92.6501 96.8083 92.6501C97.1307 92.6501 97.4128 92.611 97.6545 92.4934C97.8963 92.3759 98.0575 92.2192 98.2187 92.0233C98.3395 91.8274 98.4604 91.5924 98.541 91.3965C98.6216 91.2006 98.7022 90.9263 98.7022 90.5738C98.7425 90.2212 98.7425 89.9469 98.7828 89.751C98.7828 89.516 98.8231 89.2417 98.8231 88.85Z" fill="#6D6C6C"/>
<path d="M106.843 90.417C106.843 92.5326 105.997 93.5512 104.264 93.5512C102.289 93.5512 101.322 92.2192 101.322 89.5552V87.8705C101.322 87.4004 101.322 87.0087 101.363 86.6561C101.403 86.3426 101.443 85.9509 101.483 85.5591C101.564 85.1673 101.645 84.8539 101.806 84.5797C101.927 84.3446 102.128 84.0704 102.33 83.8745C102.531 83.6394 102.813 83.4827 103.136 83.3652C103.458 83.2477 103.861 83.2085 104.304 83.2085C105.191 83.2085 105.876 83.4436 106.238 83.9529C106.601 84.4622 106.843 85.2065 106.843 86.2251H105.755C105.755 84.8148 105.271 84.1487 104.264 84.1487C103.941 84.1487 103.659 84.2271 103.458 84.3446C103.256 84.4622 103.055 84.658 102.934 84.8539C102.813 85.0498 102.692 85.3632 102.652 85.755C102.571 86.1468 102.531 86.5385 102.531 86.9303C102.531 87.3221 102.491 87.8314 102.491 88.4974C102.491 89.0459 102.491 89.516 102.531 89.8686C102.531 90.2212 102.571 90.5738 102.652 90.9655C102.733 91.3573 102.813 91.6315 102.934 91.8274C103.055 92.0233 103.216 92.2192 103.458 92.3367C103.659 92.4934 103.941 92.5326 104.264 92.5326C105.271 92.5326 105.795 91.7882 105.795 90.3779H106.843V90.417Z" fill="#6D6C6C"/>
<path d="M114.338 93.2764H113.25V85.3627H113.21L109.704 93.2764H108.455V83.4038H109.543V91.3176H109.583L113.089 83.4038H114.338V93.2764Z" fill="#6D6C6C"/>
<path d="M123.364 95.6662H122.276V93.3156H116.595V95.6662H115.507V92.3361H116.192C116.555 91.8268 116.837 91.2784 117.078 90.6515C117.28 90.0247 117.441 89.2803 117.522 88.4185C117.602 87.5566 117.642 86.8906 117.683 86.3813C117.683 85.872 117.723 85.1276 117.723 84.1482C117.723 83.9131 117.723 83.7172 117.723 83.5605V83.4038H122.559V92.3361H123.364V95.6662ZM121.471 92.3361V84.3441H118.73V84.5399C118.73 88.536 118.247 91.1217 117.32 92.3361H121.471Z" fill="#6D6C6C"/>
<path d="M130.738 90.2995C130.738 91.3181 130.496 92.1017 129.973 92.6893C129.449 93.277 128.723 93.5512 127.676 93.5512C127.112 93.5512 126.628 93.4729 126.225 93.277C125.822 93.0811 125.5 92.846 125.258 92.5718C125.016 92.2975 124.855 91.9058 124.734 91.3965C124.613 90.8872 124.533 90.4171 124.492 89.9469C124.452 89.4768 124.452 88.9283 124.452 88.2231C124.452 87.6355 124.492 87.1262 124.533 86.6561C124.573 86.1859 124.694 85.755 124.815 85.2849C124.976 84.8539 125.137 84.4622 125.379 84.1879C125.621 83.8745 125.903 83.6786 126.306 83.4827C126.709 83.2869 127.152 83.2085 127.676 83.2085C128.844 83.2085 129.65 83.6003 130.093 84.3054C130.496 85.0498 130.738 86.1076 130.738 87.4396V88.5366H125.621V89.1634C125.621 89.6335 125.661 90.0253 125.701 90.3779C125.742 90.7305 125.822 91.0831 125.983 91.4357C126.104 91.7882 126.346 92.0625 126.628 92.2584C126.91 92.4543 127.273 92.5326 127.716 92.5326C128.361 92.5326 128.844 92.3367 129.167 91.9058C129.489 91.514 129.65 90.9264 129.65 90.2603H130.738V90.2995ZM129.65 87.6355C129.65 87.2829 129.65 87.0087 129.65 86.8128C129.65 86.6169 129.61 86.3427 129.57 86.0292C129.529 85.7158 129.489 85.4416 129.368 85.2457C129.247 85.0498 129.167 84.8539 129.046 84.658C128.925 84.4622 128.723 84.3055 128.482 84.2271C128.24 84.1487 127.958 84.0704 127.676 84.0704C126.346 84.0704 125.661 85.089 125.661 87.087V87.5963H129.65V87.6355Z" fill="#6D6C6C"/>
<path d="M138.232 93.2764H137.144V88.5752H133.518V93.2764H132.43V83.4038H133.518V87.6349H137.144V83.4038H138.232V93.2764Z" fill="#6D6C6C"/>
<path d="M146.05 93.2764H144.962V85.3627H144.922L141.416 93.2764H140.167V83.4038H141.255V91.3176H141.295L144.801 83.4038H146.05V93.2764Z" fill="#6D6C6C"/>
<path d="M153.988 89.4764C153.988 90.8476 153.706 91.8662 153.142 92.5322C152.578 93.1982 151.852 93.5116 150.885 93.5116C149.918 93.5116 149.153 93.1982 148.588 92.6105C148.024 92.0229 147.742 90.9259 147.742 89.398V86.8515C147.742 85.1277 147.863 83.7957 148.065 82.9338C148.306 82.0328 148.629 81.4059 149.032 81.0142C149.475 80.6224 150.12 80.3482 151.046 80.1131C151.852 79.9172 152.336 79.7213 152.537 79.5646C152.658 79.4471 152.699 79.3296 152.739 79.1729H153.867C153.867 79.4471 153.827 79.6821 153.706 79.878C153.585 80.0739 153.464 80.2698 153.303 80.3873C153.142 80.5049 152.94 80.6224 152.658 80.7399C152.376 80.8575 152.134 80.9358 151.933 80.975C151.731 81.0142 151.49 81.0925 151.127 81.1709C150.2 81.3668 149.596 81.7585 149.233 82.3462C148.911 82.8947 148.669 83.8349 148.548 85.1669H148.588C149.072 84.07 149.878 83.5215 151.087 83.5215C151.651 83.5215 152.175 83.639 152.578 83.9133C152.981 84.1483 153.263 84.5009 153.464 84.8927C153.625 85.2844 153.746 85.6762 153.827 86.068C153.907 86.4206 153.907 86.8124 153.907 87.2041V89.4764H153.988ZM152.9 88.1444C152.9 86.6556 152.739 85.6762 152.416 85.1669C152.094 84.6576 151.611 84.4226 150.966 84.4226C149.555 84.4226 148.83 85.6762 148.83 88.1444C148.83 89.8682 148.991 91.0043 149.273 91.6311C149.555 92.2188 150.12 92.5322 150.926 92.5322C151.691 92.5322 152.215 92.2188 152.497 91.6311C152.739 91.0043 152.9 89.8682 152.9 88.1444Z" fill="#6D6C6C"/>
<path d="M82.7871 51.8663H76.3398L77.186 47.3218H95.3189L94.513 51.8663H88.1867L84.963 69.6918H79.5635L82.7871 51.8663Z" fill="#592481"/>
<path d="M97.978 47.3218H103.297L100.638 62.0523H100.758L112.283 47.3218H117.964L113.895 69.6918H108.576L111.195 55.3139H111.114L99.6704 69.6918H93.9082L97.978 47.3218Z" fill="#592481"/>
<path d="M121.551 47.3228H137.266L136.501 51.7106H126.185L125.419 55.9417H128.28C133.64 55.9417 136.621 58.2531 136.621 62.0533C136.621 67.3814 132.632 69.6536 126.507 69.6536H117.521L121.551 47.3228ZM126.588 65.3833C129.328 65.3833 131.061 64.639 131.061 62.5234C131.061 60.6821 129.65 60.1336 127.515 60.1336H124.654L123.687 65.3833H126.588Z" fill="#592481"/>
<path d="M138.717 60.5643C138.717 52.8465 144.6 46.7349 152.417 46.7349C156.044 46.7349 159.147 48.1452 160.597 50.0649L156.608 53.5517C155.883 52.4939 154.392 51.4753 152.256 51.4753C147.662 51.4753 144.519 55.5889 144.519 59.9767C144.519 63.0325 146.494 65.579 150.161 65.579C152.175 65.579 154.069 64.6779 155.48 63.15L158.502 66.6368C156.688 68.5956 153.707 70.3586 149.314 70.3586C142.827 70.2802 138.717 66.4017 138.717 60.5643Z" fill="#592481"/>
<path d="M159.429 60.3684C159.429 52.8073 165.11 46.7349 173.049 46.7349C179.979 46.7349 184.17 50.6134 184.17 56.6466C184.17 64.2078 178.609 70.2802 170.631 70.2802C163.66 70.2802 159.429 66.3625 159.429 60.3684ZM178.529 57.0384C178.529 53.9434 176.433 51.3969 172.686 51.3969C167.971 51.3969 165.03 55.5889 165.03 59.8591C165.03 62.9541 167.125 65.5006 170.913 65.5006C175.748 65.5398 178.529 61.3479 178.529 57.0384Z" fill="#592481"/>
<path d="M188.562 47.3228H197.548C200.731 47.3228 204.277 48.5764 204.277 52.2199C204.277 55.2365 202.263 57.1953 199.361 57.9397V58.0181C201.699 58.4098 203.472 60.1728 203.472 62.7976C203.472 67.3422 199.361 69.732 193.639 69.732H184.452L188.562 47.3228ZM193.559 65.4617C195.977 65.4617 198.112 64.7173 198.112 62.4059C198.112 60.9955 196.944 60.1336 194.848 60.1336H191.343L190.416 65.4617H193.559ZM195.412 56.3335C196.984 56.3335 198.999 55.7066 198.999 53.5911C198.999 52.1023 197.669 51.5539 195.896 51.5539H192.954L192.108 56.3726H195.412V56.3335Z" fill="#592481"/>
<path d="M205.445 60.3684C205.445 52.8073 211.127 46.7349 219.065 46.7349C225.996 46.7349 230.187 50.6134 230.187 56.6466C230.187 64.2078 224.626 70.2802 216.647 70.2802C209.676 70.2802 205.445 66.3625 205.445 60.3684ZM224.545 57.0384C224.545 53.9434 222.45 51.3969 218.702 51.3969C213.988 51.3969 211.046 55.5889 211.046 59.8591C211.046 62.9541 213.142 65.5006 216.929 65.5006C221.765 65.5398 224.545 61.3479 224.545 57.0384Z" fill="#592481"/>
<path d="M70.9399 48.8107C70.9399 39.8392 63.4449 32.5522 54.2173 32.5522C50.5102 32.5522 47.0851 33.7276 44.3047 35.7256C46.1583 35.0596 48.1327 34.707 50.1878 34.707C59.7378 34.707 67.4745 42.2681 67.4745 51.5922C67.4745 55.6275 66.0238 59.3493 63.6061 62.2484C68.0386 59.3101 70.9399 54.3738 70.9399 48.8107Z" fill="#592481"/>
<path d="M231.638 52.1016C231.638 49.8685 233.491 48.0664 235.828 48.0664C238.125 48.0664 240.019 49.8685 240.019 52.1016C240.019 54.3347 238.166 56.176 235.828 56.176C233.451 56.1369 231.638 54.3347 231.638 52.1016ZM238.891 52.1016C238.891 50.2995 237.601 49.1242 235.788 49.1242C233.975 49.1242 232.685 50.2995 232.685 52.1016C232.685 53.9038 233.975 55.1183 235.788 55.1183C237.561 55.0791 238.891 53.9038 238.891 52.1016ZM237.722 54.2172H236.634L235.667 52.415H234.982V54.2172H234.055V49.9861H236.151C237.078 49.9861 237.642 50.2995 237.642 51.2789C237.642 52.0233 237.198 52.3759 236.675 52.415L237.722 54.2172ZM235.99 51.5923C236.433 51.5923 236.836 51.5923 236.836 51.1222C236.836 50.7304 236.433 50.7304 235.99 50.7304H234.982V51.5532H235.99V51.5923Z" fill="#592481"/>
<mask id="mask0_879_7558" style="mask-type:luminance" maskUnits="userSpaceOnUse" x="16" y="36" width="50" height="43">
<path d="M40.3156 75.9607C40.1947 76.0391 40.1544 76.1566 40.1141 76.2741C40.1141 76.3917 40.1544 76.5092 40.235 76.6267C40.3962 76.8226 40.7185 76.8618 40.9603 76.7051L56.6352 66.3624L61.2288 63.3457C62.478 61.9745 63.0421 61.191 63.9286 59.193L40.3156 75.9607ZM32.0147 76.2741C31.8939 76.3525 31.8536 76.47 31.8133 76.5876C31.8133 76.7051 31.8133 76.8618 31.9342 76.9401C32.0953 77.1752 32.4177 77.2144 32.6595 77.0185L64.5733 56.8424C65.0166 55.5104 65.3792 53.7474 65.4195 52.2978L32.0147 76.2741ZM33.0221 70.1234C32.9012 70.2017 32.8207 70.3584 32.8207 70.5151C32.8207 70.6718 32.8207 70.8285 32.9415 70.9461C33.143 71.1811 33.4654 71.2203 33.7071 71.0244L65.2986 50.1039C65.2583 48.8895 65.0972 47.5183 64.533 46.2254L33.0221 70.1234ZM16.7428 77.2536C16.5011 77.4494 16.4608 77.7629 16.6623 77.9979C16.7831 78.1155 16.904 78.1938 17.0652 78.1938C17.2264 78.1938 17.3876 78.1938 17.5085 78.0763L63.5256 44.6192C63.0421 43.2088 62.1959 41.9551 60.9468 41.1324L16.7428 77.2536ZM16.5817 71.4554C16.3399 71.6513 16.2996 71.9647 16.5011 72.1997C16.622 72.3173 16.7428 72.3956 16.904 72.3956C17.0652 72.3956 17.2264 72.3564 17.3473 72.2781L59.3752 39.8396C58.1261 38.6643 57.0784 38.1158 55.5069 37.8024L16.5817 71.4554ZM49.4223 36.5879C48.2537 37.058 20.8127 62.8756 20.8127 62.8756C20.6112 63.0323 20.5709 63.3849 20.7321 63.5808C20.8127 63.6983 20.9335 63.7375 21.0947 63.7767C21.2156 63.7767 21.3768 63.7375 21.4574 63.6592L53.4921 37.2539C52.4042 36.823 51.155 36.5879 49.9864 36.5879C49.8253 36.5879 49.6238 36.5879 49.4223 36.5879ZM41.2827 38.7034L37.2531 42.4253L23.5124 55.1186C23.311 55.2753 23.2707 55.5887 23.4319 55.8238C23.5124 55.9413 23.6333 55.9805 23.7542 56.0197C23.8751 56.0197 24.0363 56.0197 24.1169 55.9021L47.0046 36.5879C44.7883 36.9405 43.0959 37.489 41.2827 38.7034Z" fill="white"/>
</mask>
<g mask="url(#mask0_879_7558)">
<path d="M-4.41211 51.9454L47.2464 13.4736L86.1313 62.8366L34.4325 101.308L-4.41211 51.9454Z" fill="url(#paint0_linear_879_7558)"/>
</g>
</g>
<path d="M548.532 -102.969L312.402 89.4075C309.419 91.8379 308.971 96.2264 311.402 99.2096L312.018 99.9661C314.448 102.949 318.837 103.397 321.82 100.967L557.949 -91.4095C560.932 -93.8399 561.38 -98.2284 558.95 -101.212L558.334 -101.968C555.903 -104.951 551.515 -105.399 548.532 -102.969Z" fill="url(#paint1_linear_879_7558)"/>
<path d="M358.622 100.967L594.751 -91.409C597.734 -93.8393 598.182 -98.2279 595.752 -101.211L595.135 -101.968C592.705 -104.951 588.316 -105.399 585.333 -102.968L349.204 89.408C346.221 91.8384 345.773 96.2269 348.203 99.2101L348.82 99.9666C351.25 102.95 355.639 103.398 358.622 100.967Z" fill="url(#paint2_linear_879_7558)"/>
<path d="M386.684 136.305L622.813 -56.0711C625.797 -58.5015 626.245 -62.89 623.814 -65.8732L623.198 -66.6297C620.767 -69.6128 616.379 -70.0609 613.396 -67.6305L377.267 124.746C374.284 127.176 373.835 131.565 376.266 134.548L376.882 135.305C379.313 138.288 383.701 138.736 386.684 136.305Z" fill="url(#paint3_linear_879_7558)"/>
<path d="M577.003 -157.508L340.874 34.8684C337.891 37.2988 337.443 41.6874 339.873 44.6705L340.49 45.427C342.92 48.4102 347.309 48.8583 350.292 46.4279L586.421 -145.949C589.404 -148.379 589.852 -152.767 587.422 -155.751L586.805 -156.507C584.375 -159.49 579.986 -159.938 577.003 -157.508Z" fill="url(#paint4_linear_879_7558)"/>
<path d="M346.449 48.027C350.915 48.027 354.535 44.4066 354.535 39.9405C354.535 35.4745 350.915 31.854 346.449 31.854C341.983 31.854 338.362 35.4745 338.362 39.9405C338.362 44.4066 341.983 48.027 346.449 48.027Z" fill="#E74C39"/>
<path d="M354.779 102.566C359.245 102.566 362.865 98.9456 362.865 94.4796C362.865 90.0135 359.245 86.3931 354.779 86.3931C350.313 86.3931 346.692 90.0135 346.692 94.4796C346.692 98.9456 350.313 102.566 354.779 102.566Z" fill="#61279E"/>
<path d="M321.819 38.3366L557.948 -154.04C560.931 -156.47 561.379 -160.859 558.949 -163.842L558.333 -164.598C555.902 -167.582 551.514 -168.03 548.531 -165.599L312.401 26.7771C309.418 29.2075 308.97 33.5961 311.401 36.5792L312.017 37.3358C314.447 40.3189 318.836 40.767 321.819 38.3366Z" fill="url(#paint5_linear_879_7558)"/>
<path d="M317.978 39.9406C322.444 39.9406 326.065 36.3201 326.065 31.8541C326.065 27.388 322.444 23.7676 317.978 23.7676C313.512 23.7676 309.892 27.388 309.892 31.8541C309.892 36.3201 313.512 39.9406 317.978 39.9406Z" fill="#6A19A4"/>
<path d="M382.835 137.905C387.301 137.905 390.921 134.284 390.921 129.818C390.921 125.352 387.301 121.732 382.835 121.732C378.368 121.732 374.748 125.352 374.748 129.818C374.748 134.284 378.368 137.905 382.835 137.905Z" fill="#87A9E2"/>
<path d="M317.984 102.564C322.45 102.564 326.07 98.9436 326.07 94.4776C326.07 90.0116 322.45 86.3911 317.984 86.3911C313.518 86.3911 309.897 90.0116 309.897 94.4776C309.897 98.9436 313.518 102.564 317.984 102.564Z" fill="#87A9E2"/>
</g>
<defs>
<filter id="filter0_d_879_7558" x="-80" y="-247.165" width="1102.02" height="919.921" filterUnits="userSpaceOnUse" color-interpolation-filters="sRGB">
<feFlood flood-opacity="0" result="BackgroundImageFix"/>
<feColorMatrix in="SourceAlpha" type="matrix" values="0 0 0 0 0 0 0 0 0 0 0 0 0 0 0 0 0 0 127 0" result="hardAlpha"/>
<feOffset dy="1"/>
<feGaussianBlur stdDeviation="24"/>
<feComposite in2="hardAlpha" operator="out"/>
<feColorMatrix type="matrix" values="0 0 0 0 0 0 0 0 0 0 0 0 0 0 0 0 0 0 0.05 0"/>
<feBlend mode="normal" in2="BackgroundImageFix" result="effect1_dropShadow_879_7558"/>
<feBlend mode="normal" in="SourceGraphic" in2="effect1_dropShadow_879_7558" result="shape"/>
</filter>
<linearGradient id="paint0_linear_879_7558" x1="0.318661" y1="87.5466" x2="60.404" y2="40.2291" gradientUnits="userSpaceOnUse">
<stop stop-color="#FAD0C4"/>
<stop offset="0.0269658" stop-color="#F9C8BC"/>
<stop offset="0.1548" stop-color="#F5A798"/>
<stop offset="0.2902" stop-color="#F18C7B"/>
<stop offset="0.4335" stop-color="#EE7764"/>
<stop offset="0.5884" stop-color="#ED6954"/>
<stop offset="0.7632" stop-color="#EB604B"/>
<stop offset="1" stop-color="#EB5D48"/>
</linearGradient>
<linearGradient id="paint1_linear_879_7558" x1="558.642" y1="-101.59" x2="311.71" y2="99.5878" gradientUnits="userSpaceOnUse">
<stop stop-color="#8DABDF"/>
<stop offset="0.48" stop-color="#90ADE0" stop-opacity="0.99"/>
<stop offset="0.66" stop-color="#9BB5E3" stop-opacity="0.95"/>
<stop offset="0.78" stop-color="#AEC4E8" stop-opacity="0.88"/>
<stop offset="0.88" stop-color="#CAD8F0" stop-opacity="0.79"/>
<stop offset="0.97" stop-color="#EDF2FA" stop-opacity="0.66"/>
<stop offset="1" stop-color="white" stop-opacity="0.6"/>
</linearGradient>
<linearGradient id="paint2_linear_879_7558" x1="348.506" y1="99.5929" x2="595.438" y2="-101.585" gradientUnits="userSpaceOnUse">
<stop stop-color="white" stop-opacity="0.6"/>
<stop offset="0.02" stop-color="#F3EDF8" stop-opacity="0.63"/>
<stop offset="0.08" stop-color="#CFB4E2" stop-opacity="0.73"/>
<stop offset="0.14" stop-color="#AF84CE" stop-opacity="0.81"/>
<stop offset="0.22" stop-color="#965CBF" stop-opacity="0.88"/>
<stop offset="0.31" stop-color="#823EB3" stop-opacity="0.94"/>
<stop offset="0.42" stop-color="#7429AA" stop-opacity="0.97"/>
<stop offset="0.57" stop-color="#6C1CA5" stop-opacity="0.99"/>
<stop offset="1" stop-color="#6A19A4"/>
</linearGradient>
<linearGradient id="paint3_linear_879_7558" x1="376.574" y1="134.926" x2="623.506" y2="-66.2514" gradientUnits="userSpaceOnUse">
<stop stop-color="white" stop-opacity="0.6"/>
<stop offset="0.03" stop-color="#EDF2FA" stop-opacity="0.66"/>
<stop offset="0.12" stop-color="#CAD8F0" stop-opacity="0.79"/>
<stop offset="0.22" stop-color="#AEC4E8" stop-opacity="0.88"/>
<stop offset="0.34" stop-color="#9BB5E3" stop-opacity="0.95"/>
<stop offset="0.52" stop-color="#90ADE0" stop-opacity="0.99"/>
<stop offset="1" stop-color="#8DABDF"/>
</linearGradient>
<linearGradient id="paint4_linear_879_7558" x1="587.119" y1="-156.133" x2="340.187" y2="45.0442" gradientUnits="userSpaceOnUse">
<stop stop-color="#E74C39"/>
<stop offset="0.46" stop-color="#E34E3C" stop-opacity="0.99"/>
<stop offset="0.63" stop-color="#DF5F50" stop-opacity="0.96"/>
<stop offset="0.75" stop-color="#D97266" stop-opacity="0.9"/>
<stop offset="0.84" stop-color="#E8A095" stop-opacity="0.83"/>
<stop offset="0.93" stop-color="#F2CAC4" stop-opacity="0.73"/>
<stop offset="1" stop-color="white" stop-opacity="0.6"/>
</linearGradient>
<linearGradient id="paint5_linear_879_7558" x1="311.703" y1="36.962" x2="558.635" y2="-164.216" gradientUnits="userSpaceOnUse">
<stop stop-color="white" stop-opacity="0.6"/>
<stop offset="0.02" stop-color="#F3EDF8" stop-opacity="0.63"/>
<stop offset="0.08" stop-color="#CFB4E2" stop-opacity="0.73"/>
<stop offset="0.14" stop-color="#AF84CE" stop-opacity="0.81"/>
<stop offset="0.22" stop-color="#965CBF" stop-opacity="0.88"/>
<stop offset="0.31" stop-color="#823EB3" stop-opacity="0.94"/>
<stop offset="0.42" stop-color="#7429AA" stop-opacity="0.97"/>
<stop offset="0.57" stop-color="#6C1CA5" stop-opacity="0.99"/>
<stop offset="1" stop-color="#6A19A4"/>
</linearGradient>
<clipPath id="clip0_879_7558">
<rect width="224.681" height="64" fill="white" transform="translate(16 32)"/>
</clipPath>
</defs>
</svg>
