<svg width="165" height="47" viewBox="0 0 165 47" fill="none" xmlns="http://www.w3.org/2000/svg">
<g clip-path="url(#clip0_2003_885)">
<path d="M50.2599 44.9999H49.4609V39.1883H49.4313L46.8568 44.9999H45.9395V37.7498H46.7384V43.5614H46.768L49.3425 37.7498H50.2599V44.9999Z" fill="#6D6C6C"/>
<path d="M55.9415 43.0435C55.9415 43.7053 55.7639 44.1944 55.3792 44.5108C54.9945 44.8273 54.521 44.9999 53.9588 44.9999H51.6506V37.7498H53.8108C55.1721 37.7498 55.8231 38.2964 55.8231 39.3897C55.8231 39.8788 55.7343 40.2816 55.5568 40.598C55.3792 40.9145 55.0537 41.0871 54.6098 41.1735V41.2022C55.1129 41.2885 55.4384 41.4612 55.6455 41.7776C55.8527 42.0941 55.9415 42.5257 55.9415 43.0435ZM55.0241 39.5335C55.0241 39.2746 54.9945 39.0732 54.9057 38.9294C54.8466 38.7855 54.7282 38.6704 54.5802 38.6129C54.4323 38.5553 54.3139 38.4978 54.1659 38.469C54.0476 38.4402 53.87 38.4402 53.6925 38.4402H52.42V40.857H53.4261C53.9884 40.857 54.4027 40.7707 54.6394 40.5693C54.9057 40.3679 55.0241 40.0226 55.0241 39.5335ZM55.1129 42.986C55.1129 42.4394 54.9945 42.0653 54.7578 41.8639C54.521 41.6625 54.0772 41.5475 53.4557 41.5475H52.4496V44.3094H53.8108C54.669 44.3094 55.1129 43.8779 55.1129 42.986Z" fill="#6D6C6C"/>
<path d="M61.6232 42.0942C61.6232 43.1299 61.4456 43.9067 61.0905 44.4246C60.7354 44.9425 60.1436 45.2014 59.2558 45.2014C58.4272 45.2014 57.8354 44.9425 57.5099 44.4246C57.1844 43.9067 57.0068 43.1587 57.0068 42.1805V40.7419C57.0068 39.735 57.1844 38.9582 57.5395 38.4115C57.8946 37.8649 58.4864 37.606 59.3742 37.606C59.8477 37.606 60.2323 37.6635 60.5283 37.8361C60.8242 37.98 61.0609 38.1814 61.2089 38.4691C61.3568 38.7568 61.4752 39.0733 61.5344 39.4185C61.5936 39.7637 61.6232 40.1665 61.6232 40.6556V42.0942ZM60.8242 41.7489V40.7419C60.8242 40.3967 60.7946 40.0802 60.765 39.8213C60.7354 39.5624 60.6762 39.3034 60.5875 39.0445C60.4987 38.7856 60.3507 38.5842 60.1436 38.4691C59.9364 38.3252 59.6997 38.2677 59.3742 38.2677C59.0487 38.2677 58.7528 38.3252 58.5456 38.4978C58.3385 38.6417 58.1609 38.8431 58.0721 39.1308C57.9834 39.4185 57.8946 39.6774 57.865 39.9651C57.8354 40.2241 57.8058 40.5693 57.8058 40.9721V41.864C57.8058 42.1805 57.8058 42.4394 57.8058 42.6408C57.8058 42.8422 57.8354 43.0724 57.8946 43.3313C57.9538 43.5902 58.0426 43.7916 58.1313 43.9643C58.2497 44.1081 58.3977 44.252 58.6048 44.367C58.8119 44.4821 59.0487 44.5397 59.3446 44.5397C59.5813 44.5397 59.7885 44.5109 59.966 44.4246C60.1436 44.3383 60.2619 44.2232 60.3803 44.0793C60.4691 43.9355 60.5579 43.7629 60.617 43.619C60.6762 43.4752 60.7354 43.2738 60.7354 43.0148C60.765 42.7559 60.765 42.5545 60.7946 42.4106C60.7946 42.238 60.8242 42.0366 60.8242 41.7489Z" fill="#6D6C6C"/>
<path d="M66.713 42.8997C66.713 44.4534 66.0916 45.2014 64.8191 45.2014C63.3691 45.2014 62.6589 44.2232 62.6589 42.2668V41.0297C62.6589 40.6844 62.6589 40.3967 62.6885 40.1378C62.7181 39.9076 62.7477 39.6199 62.7773 39.3322C62.8365 39.0445 62.8957 38.8143 63.014 38.6129C63.1028 38.4403 63.2508 38.2389 63.3987 38.0951C63.5467 37.9224 63.7538 37.8073 63.9906 37.721C64.2273 37.6347 64.5232 37.606 64.8487 37.606C65.4997 37.606 66.0028 37.7786 66.2691 38.1526C66.5355 38.5266 66.713 39.0733 66.713 39.8213H65.914C65.914 38.7856 65.5589 38.2964 64.8191 38.2964C64.5824 38.2964 64.3753 38.354 64.2273 38.4403C64.0793 38.5266 63.9314 38.6705 63.8426 38.8143C63.7538 38.9582 63.6651 39.1883 63.6355 39.476C63.5763 39.7637 63.5467 40.0515 63.5467 40.3392C63.5467 40.6269 63.5171 41.0009 63.5171 41.49C63.5171 41.8928 63.5171 42.238 63.5467 42.497C63.5467 42.7559 63.5763 43.0148 63.6355 43.3025C63.6946 43.5902 63.7538 43.7916 63.8426 43.9355C63.9314 44.0793 64.0497 44.2232 64.2273 44.3095C64.3753 44.4246 64.5824 44.4533 64.8191 44.4533C65.5589 44.4533 65.9436 43.9067 65.9436 42.871H66.713V42.8997Z" fill="#6D6C6C"/>
<path d="M72.2169 44.9999H71.4179V39.1883H71.3883L68.8138 44.9999H67.8965V37.7498H68.6955V43.5614H68.7251L71.2995 37.7498H72.2169V44.9999Z" fill="#6D6C6C"/>
<path d="M78.8456 46.7549H78.0466V45.0287H73.8742V46.7549H73.0752V44.3094H73.5783C73.8446 43.9354 74.0517 43.5326 74.2293 43.0723C74.3772 42.612 74.4956 42.0653 74.5548 41.4324C74.614 40.7994 74.6436 40.3103 74.6732 39.9363C74.6732 39.5623 74.7027 39.0157 74.7027 38.2964C74.7027 38.1238 74.7027 37.9799 74.7027 37.8648V37.7498H78.2538V44.3094H78.8456V46.7549ZM77.4548 44.3094V38.4402H75.4425V38.5841C75.4425 41.5187 75.0874 43.4176 74.4068 44.3094H77.4548Z" fill="#6D6C6C"/>
<path d="M84.2609 42.8134C84.2609 43.5615 84.0833 44.1369 83.6986 44.5684C83.3139 45 82.7813 45.2014 82.0119 45.2014C81.5976 45.2014 81.2425 45.1438 80.9466 45C80.6507 44.8561 80.4139 44.6835 80.2364 44.4821C80.0588 44.2807 79.9405 43.993 79.8517 43.619C79.7629 43.245 79.7037 42.8997 79.6741 42.5545C79.6445 42.2093 79.6445 41.8065 79.6445 41.2886C79.6445 40.857 79.6741 40.483 79.7037 40.1378C79.7333 39.7925 79.8221 39.476 79.9109 39.1308C80.0292 38.8143 80.1476 38.5266 80.3251 38.3252C80.5027 38.0951 80.7098 37.9512 81.0058 37.8074C81.3017 37.6635 81.6272 37.606 82.0119 37.606C82.87 37.606 83.4619 37.8937 83.7874 38.4115C84.0833 38.9582 84.2609 39.735 84.2609 40.7132V41.5188H80.5027V41.9791C80.5027 42.3243 80.5323 42.612 80.5619 42.871C80.5915 43.1299 80.6507 43.3888 80.769 43.6478C80.8578 43.9067 81.0353 44.1081 81.2425 44.252C81.4496 44.3958 81.716 44.4533 82.0415 44.4533C82.5149 44.4533 82.87 44.3095 83.1068 43.993C83.3435 43.7053 83.4619 43.2738 83.4619 42.7847H84.2609V42.8134ZM83.4619 40.857C83.4619 40.5981 83.4619 40.3967 83.4619 40.2529C83.4619 40.109 83.4323 39.9076 83.4027 39.6774C83.3731 39.4473 83.3435 39.2459 83.2547 39.102C83.166 38.9582 83.1068 38.8143 83.018 38.6705C82.9292 38.5266 82.7813 38.4115 82.6037 38.354C82.4262 38.2965 82.219 38.2389 82.0119 38.2389C81.0353 38.2389 80.5323 38.9869 80.5323 40.4542V40.8283H83.4619V40.857Z" fill="#6D6C6C"/>
<path d="M89.7649 44.9999H88.9659V41.5475H86.3026V44.9999H85.5037V37.7498H86.3026V40.857H88.9659V37.7498H89.7649V44.9999Z" fill="#6D6C6C"/>
<path d="M95.5057 44.9999H94.7067V39.1883H94.6771L92.1027 44.9999H91.1853V37.7498H91.9843V43.5614H92.0139L94.5884 37.7498H95.5057V44.9999Z" fill="#6D6C6C"/>
<path d="M101.335 42.2092C101.335 43.2162 101.128 43.9642 100.714 44.4533C100.3 44.9424 99.7669 45.1726 99.0567 45.1726C98.3465 45.1726 97.7842 44.9424 97.37 44.5109C96.9557 44.0793 96.7485 43.2737 96.7485 42.1517V40.2816C96.7485 39.0157 96.8373 38.0375 96.9853 37.4045C97.1628 36.7428 97.3996 36.2825 97.6955 35.9948C98.021 35.7071 98.4944 35.5057 99.1751 35.3331C99.7669 35.1892 100.122 35.0454 100.27 34.9303C100.359 34.844 100.388 34.7577 100.418 34.6426H101.246C101.246 34.844 101.217 35.0166 101.128 35.1604C101.039 35.3043 100.951 35.4481 100.832 35.5345C100.714 35.6208 100.566 35.7071 100.359 35.7934C100.152 35.8797 99.974 35.9372 99.8261 35.966C99.6781 35.9948 99.5006 36.0523 99.2342 36.1099C98.5536 36.2537 98.1098 36.5414 97.8434 36.973C97.6067 37.3758 97.4291 38.0663 97.3404 39.0445H97.37C97.7251 38.2389 98.3169 37.8361 99.2047 37.8361C99.6189 37.8361 100.004 37.9224 100.3 38.1238C100.595 38.2964 100.803 38.5554 100.951 38.8431C101.069 39.1308 101.158 39.4185 101.217 39.7062C101.276 39.9651 101.276 40.2528 101.276 40.5405V42.2092H101.335ZM100.536 41.231C100.536 40.1378 100.418 39.4185 100.181 39.0445C99.9444 38.6705 99.5894 38.4978 99.1159 38.4978C98.0802 38.4978 97.5475 39.4185 97.5475 41.231C97.5475 42.4969 97.6659 43.3313 97.873 43.7916C98.0802 44.2232 98.4945 44.4533 99.0863 44.4533C99.6485 44.4533 100.033 44.2232 100.24 43.7916C100.418 43.3313 100.536 42.4969 100.536 41.231Z" fill="#6D6C6C"/>
<path d="M109.592 38.4402H107.698V44.9999H106.899V38.4402H105.005V37.7498H109.592V38.4402Z" fill="#6D6C6C"/>
<path d="M114.681 45H113.882V44.0218C113.409 44.7411 112.787 45.1151 111.988 45.1151C111.426 45.1151 110.982 44.9137 110.627 44.5397C110.302 44.1656 110.124 43.6478 110.124 42.9861C110.124 41.8065 110.627 41.0872 111.663 40.8283C112.018 40.742 112.314 40.6844 112.551 40.6556C112.787 40.6269 113.202 40.6269 113.823 40.6269V39.735C113.823 38.7855 113.379 38.2964 112.521 38.2964C112.107 38.2964 111.781 38.4115 111.544 38.6129C111.308 38.8143 111.189 39.1308 111.189 39.5048V39.5336H110.331C110.361 38.9006 110.568 38.4115 110.982 38.0951C111.396 37.7786 111.9 37.606 112.551 37.606C113.142 37.606 113.616 37.7498 114.001 38.0375C114.208 38.1814 114.326 38.354 114.444 38.6129C114.563 38.8719 114.592 39.0733 114.622 39.2459C114.622 39.4185 114.652 39.6774 114.652 39.9939V43.4752L114.681 44.3958V45ZM113.853 41.864C113.853 41.8065 113.853 41.6051 113.853 41.2886C113.764 41.2886 113.675 41.2886 113.586 41.2886C112.669 41.2886 111.988 41.4324 111.544 41.7201C111.189 41.9503 110.982 42.3531 110.982 42.9573C110.982 43.4176 111.101 43.7916 111.308 44.0506C111.515 44.3095 111.811 44.4533 112.195 44.4533C112.699 44.4533 113.113 44.2232 113.468 43.7629C113.645 43.5615 113.734 43.3025 113.793 43.0436C113.823 42.7559 113.853 42.3819 113.853 41.864Z" fill="#6D6C6C"/>
<path d="M120.481 42.2092C120.481 43.2162 120.274 43.9642 119.86 44.4533C119.446 44.9424 118.913 45.1726 118.203 45.1726C117.492 45.1726 116.93 44.9424 116.516 44.5109C116.102 44.0793 115.895 43.2737 115.895 42.1517V40.2816C115.895 39.0157 115.983 38.0375 116.131 37.4045C116.309 36.7428 116.546 36.2825 116.841 35.9948C117.167 35.7071 117.64 35.5057 118.321 35.3331C118.913 35.1892 119.268 35.0454 119.416 34.9303C119.505 34.844 119.534 34.7577 119.564 34.6426H120.392C120.392 34.844 120.363 35.0166 120.274 35.1604C120.185 35.3043 120.097 35.4481 119.978 35.5345C119.86 35.6208 119.712 35.7071 119.505 35.7934C119.298 35.8797 119.12 35.9372 118.972 35.966C118.824 35.9948 118.647 36.0523 118.38 36.1099C117.7 36.2537 117.256 36.5414 116.989 36.973C116.753 37.3758 116.575 38.0663 116.486 39.0445H116.516C116.871 38.2389 117.463 37.8361 118.351 37.8361C118.765 37.8361 119.15 37.9224 119.446 38.1238C119.741 38.2964 119.949 38.5554 120.097 38.8431C120.215 39.1308 120.304 39.4185 120.363 39.7062C120.422 39.9651 120.422 40.2528 120.422 40.5405V42.2092H120.481ZM119.682 41.231C119.682 40.1378 119.564 39.4185 119.327 39.0445C119.09 38.6705 118.735 38.4978 118.262 38.4978C117.226 38.4978 116.693 39.4185 116.693 41.231C116.693 42.4969 116.812 43.3313 117.019 43.7916C117.226 44.2232 117.64 44.4533 118.232 44.4533C118.795 44.4533 119.179 44.2232 119.386 43.7916C119.594 43.3313 119.682 42.4969 119.682 41.231Z" fill="#6D6C6C"/>
<path d="M126.133 44.9999H125.334V38.4402H123.204V39.9075C123.204 42.5832 122.967 44.1656 122.523 44.6547C122.286 44.9136 121.961 45.0575 121.547 45.0575C121.31 45.0575 121.132 45.0287 120.984 44.9999V44.2519C121.044 44.2807 121.162 44.2807 121.31 44.2807C121.31 44.2807 121.339 44.2807 121.369 44.2807C121.399 44.2807 121.428 44.2807 121.458 44.2807C121.487 44.2807 121.487 44.2807 121.547 44.2807C121.606 44.2807 121.606 44.2807 121.635 44.2807C121.665 44.2807 121.695 44.2519 121.724 44.2519C121.754 44.2519 121.783 44.2231 121.813 44.2231C121.843 44.1944 121.872 44.1656 121.902 44.1656C121.931 44.1368 121.961 44.108 121.991 44.0505C122.02 44.0217 122.05 43.9642 122.079 43.9354C122.198 43.7053 122.286 43.3312 122.346 42.7558C122.405 42.1804 122.434 41.7201 122.434 41.3173C122.434 40.9433 122.434 40.3103 122.434 39.476V37.7498H126.133V44.9999Z" fill="#6D6C6C"/>
<path d="M132.022 42.8134C132.022 43.5615 131.845 44.1369 131.46 44.5684C131.075 45 130.542 45.2014 129.773 45.2014C129.359 45.2014 129.004 45.1438 128.708 45C128.412 44.8561 128.175 44.6835 127.998 44.4821C127.82 44.2807 127.702 43.993 127.613 43.619C127.524 43.245 127.465 42.8997 127.435 42.5545C127.406 42.2093 127.406 41.8065 127.406 41.2886C127.406 40.857 127.435 40.483 127.465 40.1378C127.495 39.7925 127.583 39.476 127.672 39.1308C127.79 38.8143 127.909 38.5266 128.086 38.3252C128.264 38.0951 128.471 37.9512 128.767 37.8074C129.063 37.6635 129.388 37.606 129.773 37.606C130.631 37.606 131.223 37.8937 131.549 38.4115C131.845 38.9582 132.022 39.735 132.022 40.7132V41.5188H128.264V41.9791C128.264 42.3243 128.294 42.612 128.323 42.871C128.353 43.1299 128.412 43.3888 128.53 43.6478C128.619 43.9067 128.767 44.1081 129.004 44.252C129.211 44.3958 129.477 44.4533 129.803 44.4533C130.276 44.4533 130.631 44.3095 130.868 43.993C131.105 43.6765 131.223 43.2738 131.223 42.7847H132.022V42.8134ZM131.223 40.857C131.223 40.5981 131.223 40.3967 131.223 40.2529C131.223 40.109 131.194 39.9076 131.164 39.6774C131.134 39.4473 131.105 39.2459 131.016 39.102C130.927 38.9582 130.868 38.8143 130.779 38.6705C130.69 38.5266 130.542 38.4115 130.365 38.354C130.187 38.2965 129.98 38.2389 129.773 38.2389C128.797 38.2389 128.294 38.9869 128.294 40.4542V40.8283H131.223V40.857Z" fill="#6D6C6C"/>
<path d="M137.289 38.4402H135.395V44.9999H134.597V38.4402H132.703V37.7498H137.289V38.4402Z" fill="#6D6C6C"/>
<path d="M142.646 44.9999H141.639L139.006 41.2022H138.976V44.9999H138.177V37.7498H138.976V41.1159H139.006L141.551 37.7498H142.468L139.864 41.1447L142.646 44.9999Z" fill="#6D6C6C"/>
<path d="M147.854 44.9999H147.055V39.1883H147.025L144.451 44.9999H143.533V37.7498H144.332V43.5614H144.362L146.936 37.7498H147.854V44.9999Z" fill="#6D6C6C"/>
<path d="M49.0467 14.5896H44.312L44.9334 11.2522H58.2498L57.6579 14.5896H53.012L50.6447 27.6802H46.6794L49.0467 14.5896Z" fill="#592481"/>
<path d="M60.2029 11.2522H64.109L62.1559 22.0699H62.2447L70.708 11.2522H74.8804L71.8917 27.6802H67.9855L69.909 17.1214H69.8498L61.4457 27.6802H57.2141L60.2029 11.2522Z" fill="#592481"/>
<path d="M77.5139 11.252H89.0547L88.4924 14.4743H80.9169L80.3547 17.5815H82.4557C86.3914 17.5815 88.5812 19.2789 88.5812 22.0697C88.5812 25.9825 85.6516 27.6512 81.1537 27.6512H74.5547L77.5139 11.252ZM81.2129 24.5152C83.2251 24.5152 84.4975 23.9685 84.4975 22.4149C84.4975 21.0627 83.4618 20.6599 81.8935 20.6599H79.7924L79.0822 24.5152H81.2129Z" fill="#592481"/>
<path d="M90.1201 20.9766C90.1201 15.3088 94.4405 10.8206 100.181 10.8206C102.845 10.8206 105.123 11.8563 106.188 13.2661L103.259 15.8266C102.726 15.0498 101.631 14.3018 100.063 14.3018C96.6895 14.3018 94.3813 17.3227 94.3813 20.545C94.3813 22.7891 95.8313 24.6592 98.5242 24.6592C100.004 24.6592 101.395 23.9975 102.43 22.8754L104.65 25.436C103.318 26.8745 101.128 28.1692 97.9028 28.1692C93.1385 28.1117 90.1201 25.2634 90.1201 20.9766Z" fill="#592481"/>
<path d="M105.33 20.8327C105.33 15.28 109.503 10.8206 115.332 10.8206C120.422 10.8206 123.5 13.6688 123.5 18.0995C123.5 23.6522 119.416 28.1117 113.557 28.1117C108.437 28.1117 105.33 25.2346 105.33 20.8327ZM119.357 18.3872C119.357 16.1143 117.818 14.2443 115.066 14.2443C111.604 14.2443 109.444 17.3227 109.444 20.4587C109.444 22.7316 110.982 24.6017 113.764 24.6017C117.315 24.6304 119.357 21.552 119.357 18.3872Z" fill="#592481"/>
<path d="M126.725 11.252H133.324C135.662 11.252 138.266 12.1726 138.266 14.8483C138.266 17.0636 136.786 18.5021 134.656 19.0488V19.1063C136.372 19.394 137.674 20.6887 137.674 22.6163C137.674 25.9537 134.656 27.7087 130.454 27.7087H123.707L126.725 11.252ZM130.395 24.5727C132.17 24.5727 133.738 24.0261 133.738 22.3286C133.738 21.2929 132.88 20.6599 131.341 20.6599H128.767L128.086 24.5727H130.395ZM131.756 17.8692C132.91 17.8692 134.389 17.4089 134.389 15.8552C134.389 14.762 133.413 14.3592 132.111 14.3592H129.951L129.329 17.898H131.756V17.8692Z" fill="#592481"/>
<path d="M139.124 20.8327C139.124 15.28 143.296 10.8206 149.126 10.8206C154.216 10.8206 157.293 13.6688 157.293 18.0995C157.293 23.6522 153.21 28.1117 147.351 28.1117C142.231 28.1117 139.124 25.2346 139.124 20.8327ZM153.151 18.3872C153.151 16.1143 151.612 14.2443 148.86 14.2443C145.397 14.2443 143.237 17.3227 143.237 20.4587C143.237 22.7316 144.776 24.6017 147.558 24.6017C151.109 24.6304 153.151 21.552 153.151 18.3872Z" fill="#592481"/>
<path d="M40.3466 12.3453C40.3466 5.75684 34.8425 0.405518 28.066 0.405518C25.3435 0.405518 22.8282 1.26864 20.7864 2.73594C22.1476 2.24684 23.5976 1.9879 25.1068 1.9879C32.1201 1.9879 37.8017 7.54062 37.8017 14.388C37.8017 17.3514 36.7364 20.0846 34.9609 22.2136C38.216 20.0558 40.3466 16.4307 40.3466 12.3453Z" fill="#592481"/>
<path d="M158.359 14.762C158.359 13.122 159.72 11.7986 161.436 11.7986C163.123 11.7986 164.514 13.122 164.514 14.762C164.514 16.4019 163.153 17.7541 161.436 17.7541C159.691 17.7253 158.359 16.4019 158.359 14.762ZM163.685 14.762C163.685 13.4385 162.738 12.5754 161.407 12.5754C160.075 12.5754 159.128 13.4385 159.128 14.762C159.128 16.0854 160.075 16.9773 161.407 16.9773C162.709 16.9485 163.685 16.0854 163.685 14.762ZM162.827 16.3156H162.028L161.318 14.9921H160.815V16.3156H160.134V13.2083H161.673C162.354 13.2083 162.768 13.4385 162.768 14.1578C162.768 14.7044 162.443 14.9633 162.058 14.9921L162.827 16.3156ZM161.555 14.3879C161.88 14.3879 162.176 14.3879 162.176 14.0427C162.176 13.755 161.88 13.755 161.555 13.755H160.815V14.3592H161.555V14.3879Z" fill="#592481"/>
<mask id="mask0_2003_885" style="mask-type:luminance" maskUnits="userSpaceOnUse" x="0" y="3" width="37" height="31">
<path d="M17.8569 32.2833C17.7682 32.3409 17.7386 32.4272 17.709 32.5135C17.709 32.5998 17.7386 32.6861 17.7978 32.7724C17.9161 32.9163 18.1529 32.945 18.3304 32.83L29.8416 25.2345L33.2151 23.0192C34.1325 22.0122 34.5467 21.4368 35.1978 19.9695L17.8569 32.2833ZM11.761 32.5135C11.6723 32.571 11.6427 32.6573 11.6131 32.7436C11.6131 32.83 11.6131 32.945 11.7018 33.0026C11.8202 33.1752 12.0569 33.204 12.2345 33.0601L35.6712 18.2433C35.9967 17.2651 36.2631 15.9704 36.2927 14.9059L11.761 32.5135ZM12.5008 27.9965C12.412 28.054 12.3529 28.1691 12.3529 28.2842C12.3529 28.3993 12.3529 28.5144 12.4416 28.6007C12.5896 28.7733 12.8263 28.8021 13.0039 28.6582L36.2039 13.2947C36.1743 12.4029 36.0559 11.3959 35.6416 10.4465L12.5008 27.9965ZM0.545726 33.2327C0.368175 33.3766 0.338579 33.6068 0.486538 33.7794C0.575314 33.8657 0.664089 33.9232 0.782457 33.9232C0.900824 33.9232 1.01919 33.9232 1.10797 33.8369L34.9018 9.26686C34.5467 8.23112 33.9253 7.31047 33.008 6.70628L0.545726 33.2327ZM0.427356 28.9747C0.249805 29.1186 0.220214 29.3487 0.368173 29.5213C0.456948 29.6077 0.545724 29.6652 0.664091 29.6652C0.782459 29.6652 0.900828 29.6364 0.989603 29.5789L31.8539 5.75685C30.9365 4.89374 30.1672 4.49095 29.0131 4.26079L0.427356 28.9747ZM24.5447 3.3689C23.6865 3.71414 3.5345 22.674 3.5345 22.674C3.38654 22.789 3.35695 23.048 3.47532 23.1918C3.5345 23.2781 3.62327 23.3069 3.74164 23.3357C3.83042 23.3357 3.94879 23.3069 4.00797 23.2494L27.5335 3.858C26.7345 3.54152 25.8172 3.3689 24.959 3.3689C24.8406 3.3689 24.6927 3.3689 24.5447 3.3689ZM18.5672 4.92251L15.608 7.65571L5.51715 16.9774C5.36919 17.0925 5.3396 17.3226 5.45797 17.4952C5.51715 17.5816 5.60593 17.6103 5.6947 17.6391C5.78348 17.6391 5.90184 17.6391 5.96103 17.5528L22.7692 3.3689C21.1416 3.62783 19.8988 4.03062 18.5672 4.92251Z" fill="white"/>
</mask>
<g mask="url(#mask0_2003_885)">
<path d="M-14.99 14.647L22.9468 -13.6057L51.5029 22.6452L13.5365 50.8979L-14.99 14.647Z" fill="url(#paint0_linear_2003_885)"/>
</g>
<path d="M151.997 45.1151H149.836V44.7411L151.316 42.2668C151.494 41.9791 151.582 41.6914 151.582 41.4325C151.582 41.0009 151.346 40.7707 150.902 40.7707C150.695 40.7707 150.517 40.8283 150.399 40.9721C150.28 41.116 150.221 41.3174 150.221 41.5476V41.6051H149.836V41.5188C149.836 41.1735 149.925 40.8858 150.132 40.6844C150.31 40.483 150.576 40.3967 150.902 40.3967C151.227 40.3967 151.464 40.483 151.671 40.6269C151.878 40.7995 151.967 41.0297 151.967 41.3462C151.967 41.6914 151.849 42.0942 151.582 42.5257L150.251 44.7123H151.997V45.1151Z" fill="#6D6C6C"/>
<path d="M154.63 43.0437C154.66 43.2164 154.66 43.389 154.66 43.6191C154.66 43.8493 154.63 44.0507 154.601 44.2233C154.571 44.396 154.512 44.5686 154.423 44.7124C154.334 44.8563 154.216 44.9714 154.068 45.0577C153.92 45.144 153.743 45.1728 153.506 45.1728C153.18 45.1728 152.944 45.0864 152.737 44.885C152.559 44.7124 152.47 44.4247 152.47 44.0795V43.9932H152.855V44.0507C152.855 44.5686 153.092 44.8275 153.536 44.8275C153.802 44.8275 153.979 44.7412 154.068 44.5398C154.187 44.3672 154.216 44.0507 154.216 43.5904C154.216 43.4177 154.216 43.3027 154.187 43.1876C154.187 43.0725 154.157 42.9574 154.098 42.8423C154.068 42.7273 153.979 42.6409 153.891 42.5834C153.802 42.5259 153.654 42.4971 153.506 42.4971C153.328 42.4971 153.18 42.5546 153.062 42.6409C152.944 42.7273 152.855 42.8423 152.825 42.9862H152.47L152.529 40.4832H154.453V40.8572H152.914L152.885 42.4971C153.062 42.2957 153.328 42.1806 153.624 42.1806C153.831 42.1806 154.009 42.2094 154.157 42.2957C154.305 42.3532 154.394 42.4683 154.482 42.6122C154.571 42.756 154.63 42.8999 154.63 43.0437Z" fill="#6D6C6C"/>
<path d="M157.264 43.5903C157.264 43.8204 157.264 44.0218 157.234 44.1944C157.205 44.3671 157.146 44.5397 157.086 44.6835C157.027 44.8562 156.909 44.9712 156.731 45.0576C156.554 45.1439 156.376 45.1726 156.139 45.1726C155.932 45.1726 155.755 45.1439 155.607 45.0576C155.459 44.9712 155.34 44.8562 155.281 44.7123C155.222 44.5685 155.163 44.3958 155.133 44.2232C155.104 44.0506 155.104 43.8492 155.104 43.6478V42.0366C155.104 41.8065 155.104 41.6051 155.133 41.4325C155.163 41.2598 155.222 41.0872 155.281 40.9146C155.34 40.742 155.459 40.6269 155.636 40.5406C155.784 40.4543 155.992 40.3967 156.199 40.3967C156.435 40.3967 156.613 40.4255 156.761 40.5118C156.909 40.5981 157.027 40.6844 157.086 40.8571C157.146 41.0009 157.205 41.1735 157.234 41.3462C157.264 41.5188 157.264 41.7202 157.264 41.9791V43.5903ZM156.879 43.5903V42.0654C156.879 42.0654 156.879 42.0366 156.879 42.0079C156.879 41.8352 156.879 41.7202 156.879 41.6339C156.879 41.5475 156.85 41.4325 156.85 41.3174C156.82 41.1735 156.79 41.0872 156.731 41.0009C156.672 40.9434 156.613 40.8571 156.524 40.8283C156.435 40.7995 156.317 40.742 156.169 40.742C156.021 40.742 155.873 40.7707 155.784 40.8571C155.696 40.9434 155.607 41.0297 155.577 41.1735C155.548 41.3174 155.518 41.4325 155.488 41.5763C155.488 41.6914 155.459 41.8352 155.459 42.0079V43.3889C155.459 43.3889 155.459 43.4176 155.459 43.4464C155.459 43.5903 155.459 43.6766 155.459 43.7629C155.459 43.8492 155.459 43.9355 155.488 44.0506C155.488 44.1657 155.518 44.2808 155.548 44.3383C155.577 44.3958 155.607 44.4821 155.666 44.5685C155.725 44.6548 155.784 44.7123 155.873 44.7411C155.962 44.7698 156.051 44.7986 156.169 44.7986C156.287 44.7986 156.406 44.7699 156.495 44.7123C156.583 44.6548 156.643 44.5972 156.702 44.5109C156.761 44.4246 156.79 44.3383 156.82 44.2232C156.85 44.1081 156.879 43.993 156.879 43.9067C156.879 43.8492 156.879 43.7341 156.879 43.5903Z" fill="#6D6C6C"/>
<path d="M162.117 45.1152H161.762V42.382H161.732L160.874 45.1152H160.489L159.661 42.382H159.631V45.1152H159.276V41.7778H159.809L160.697 44.6261H160.726L161.614 41.7778H162.147V45.1152H162.117Z" fill="#6D6C6C"/>
<path d="M164.484 42.0943H163.182V45.1152H162.827V41.7778H164.484V42.0943Z" fill="#6D6C6C"/>
</g>
<defs>
<linearGradient id="paint0_linear_2003_885" x1="-11.5158" y1="40.7916" x2="32.6094" y2="6.04286" gradientUnits="userSpaceOnUse">
<stop stop-color="#FAD0C4"/>
<stop offset="0.0269658" stop-color="#F9C8BC"/>
<stop offset="0.1548" stop-color="#F5A798"/>
<stop offset="0.2902" stop-color="#F18C7B"/>
<stop offset="0.4335" stop-color="#EE7764"/>
<stop offset="0.5884" stop-color="#ED6954"/>
<stop offset="0.7632" stop-color="#EB604B"/>
<stop offset="1" stop-color="#EB5D48"/>
</linearGradient>
<clipPath id="clip0_2003_885">
<rect width="165" height="47" fill="white"/>
</clipPath>
</defs>
</svg>
